M48
;DRILL file {PCBnew (2011-05-25)-stable} date Sun 15 Sep 2013 09:34:48 PM EDT
;FORMAT={2:3/ absolute / inch / suppress leading zeros}
FMAT,2
INCH,TZ
T1C0.025
T2C0.030
T3C0.032
T4C0.040
T5C0.130
%
G90
G05
M72
T1
X2425Y2425
X2425Y4025
X2500Y2450
X2500Y3375
X2625Y3825
X2650Y3525
X3050Y2600
X3125Y2900
X3225Y3875
X3350Y3850
X3475Y2600
X3600Y2600
X3625Y3875
X3700Y2675
X3725Y3475
X3775Y3800
X3900Y2600
X3900Y2675
X3900Y2775
X3900Y3625
X3950Y3350
X3975Y3875
X4025Y3375
X4025Y3475
X4250Y3500
X4275Y2600
X4275Y2675
X4450Y3500
X4500Y3650
X4550Y3500
X4650Y3500
X4750Y3500
X4950Y2925
T2
X5250Y3025
X5250Y3225
T3
X2125Y3450
X2125Y3550
X2125Y3750
X2125Y3850
X2125Y3950
X2125Y4050
X2300Y3700
X2300Y4050
X2375Y2275
X2375Y2575
X2475Y2275
X2475Y2575
X2575Y2275
X2575Y2575
X2675Y2275
X2675Y2575
X2800Y2175
X2800Y4100
X2875Y2325
X2875Y2675
X3075Y2325
X3075Y2475
X3075Y3075
X3075Y3225
X3175Y2325
X3175Y2475
X3175Y3075
X3175Y3225
X3275Y2325
X3275Y2475
X3275Y3075
X3275Y3225
X3375Y2325
X3375Y2475
X3375Y3075
X3375Y3225
X3475Y2325
X3475Y2475
X3475Y3075
X3475Y3225
X3575Y2325
X3575Y2475
X3575Y3075
X3575Y3225
X3675Y2325
X3675Y2475
X3675Y3075
X3675Y3225
X3775Y2325
X3775Y2475
X3775Y3075
X3775Y3225
X3875Y2325
X3875Y2475
X3875Y3075
X3875Y3225
X3975Y2325
X3975Y2475
X3975Y3075
X3975Y3225
X4075Y2325
X4075Y2475
X4075Y3075
X4075Y3225
X4175Y2325
X4175Y2475
X4175Y3075
X4175Y3225
X4275Y2325
X4275Y2475
X4275Y3075
X4275Y3225
X4275Y3375
X4375Y2325
X4375Y2475
X4375Y3075
X4375Y3225
X4375Y3375
X4475Y2325
X4475Y2475
X4475Y3075
X4475Y3225
X4475Y3375
X4575Y2325
X4575Y2475
X4575Y3075
X4575Y3225
X4575Y3375
X4675Y2325
X4675Y2475
X4675Y3075
X4675Y3225
X4675Y3375
X4775Y2325
X4775Y2475
X4775Y3075
X4775Y3225
X4775Y3375
X4875Y2325
X4875Y2475
X4875Y3075
X4875Y3225
X4875Y3375
X4975Y2325
X4975Y2475
X4975Y3075
X4975Y3225
X4975Y3375
X5225Y2575
X5225Y2675
X5325Y2575
T4
X2800Y2075
X2800Y4000
X2900Y2075
X2900Y2175
X2900Y4000
X2900Y4100
X3000Y2075
X3000Y2175
X3000Y4000
X3000Y4100
X3100Y2075
X3100Y2175
X3100Y4000
X3100Y4100
X3200Y2075
X3200Y2175
X3200Y4000
X3200Y4100
X3300Y2075
X3300Y2175
X3300Y4000
X3300Y4100
X3400Y2075
X3400Y2175
X3400Y4000
X3400Y4100
X3500Y2075
X3500Y2175
X3500Y4000
X3500Y4100
X3600Y2075
X3600Y2175
X3600Y4000
X3600Y4100
X3700Y2075
X3700Y2175
X3700Y4000
X3700Y4100
X3800Y2075
X3800Y2175
X3800Y4000
X3800Y4100
X3900Y2075
X3900Y2175
X3900Y4000
X3900Y4100
X4000Y2075
X4000Y2175
X4000Y4000
X4000Y4100
X4100Y2075
X4100Y2175
X4100Y4000
X4100Y4100
X4200Y2075
X4200Y2175
X4200Y4000
X4200Y4100
X4300Y2075
X4300Y2175
X4300Y4000
X4300Y4100
X4400Y2075
X4400Y2175
X4400Y4000
X4400Y4100
X4500Y2075
X4500Y2175
X4500Y4000
X4500Y4100
X4600Y2075
X4600Y2175
X4600Y4000
X4600Y4100
X4700Y2075
X4700Y2175
X4700Y4000
X4700Y4100
X4800Y2075
X4800Y2175
X4800Y4000
X4800Y4100
X4900Y2075
X4900Y2175
X4900Y4000
X4900Y4100
X5000Y2075
X5000Y2175
X5000Y4000
X5000Y4100
T5
X2575Y2125
X2575Y4025
X5175Y2250
X5175Y3900
T0
M30
