G04 (created by PCBNEW (2011-05-25)-stable) date Wed 02 Oct 2013 10:58:44 PM EDT*
G01*
G70*
G90*
%MOIN*%
G04 Gerber Fmt 3.4, Leading zero omitted, Abs format*
%FSLAX34Y34*%
G04 APERTURE LIST*
%ADD10C,0.001000*%
%ADD11C,0.015000*%
%ADD12C,0.008000*%
G04 APERTURE END LIST*
G54D10*
G54D11*
X50250Y-26000D02*
X50226Y-26242D01*
X50155Y-26476D01*
X50041Y-26691D01*
X49886Y-26880D01*
X49698Y-27036D01*
X49484Y-27152D01*
X49251Y-27224D01*
X49008Y-27249D01*
X48766Y-27227D01*
X48532Y-27158D01*
X48316Y-27045D01*
X48126Y-26893D01*
X47969Y-26706D01*
X47852Y-26492D01*
X47778Y-26259D01*
X47751Y-26017D01*
X47771Y-25775D01*
X47838Y-25540D01*
X47950Y-25323D01*
X48101Y-25132D01*
X48287Y-24974D01*
X48500Y-24855D01*
X48732Y-24780D01*
X48974Y-24751D01*
X49217Y-24769D01*
X49452Y-24835D01*
X49669Y-24945D01*
X49862Y-25095D01*
X50021Y-25280D01*
X50141Y-25492D01*
X50218Y-25724D01*
X50249Y-25966D01*
X50250Y-26000D01*
X46500Y-26000D02*
X51500Y-26000D01*
X49000Y-23500D02*
X49000Y-28500D01*
X50250Y-36500D02*
X50226Y-36742D01*
X50155Y-36976D01*
X50041Y-37191D01*
X49886Y-37380D01*
X49698Y-37536D01*
X49484Y-37652D01*
X49251Y-37724D01*
X49008Y-37749D01*
X48766Y-37727D01*
X48532Y-37658D01*
X48316Y-37545D01*
X48126Y-37393D01*
X47969Y-37206D01*
X47852Y-36992D01*
X47778Y-36759D01*
X47751Y-36517D01*
X47771Y-36275D01*
X47838Y-36040D01*
X47950Y-35823D01*
X48101Y-35632D01*
X48287Y-35474D01*
X48500Y-35355D01*
X48732Y-35280D01*
X48974Y-35251D01*
X49217Y-35269D01*
X49452Y-35335D01*
X49669Y-35445D01*
X49862Y-35595D01*
X50021Y-35780D01*
X50141Y-35992D01*
X50218Y-36224D01*
X50249Y-36466D01*
X50250Y-36500D01*
X46500Y-36500D02*
X51500Y-36500D01*
X49000Y-34000D02*
X49000Y-39000D01*
X29250Y-36500D02*
X29226Y-36742D01*
X29155Y-36976D01*
X29041Y-37191D01*
X28886Y-37380D01*
X28698Y-37536D01*
X28484Y-37652D01*
X28251Y-37724D01*
X28008Y-37749D01*
X27766Y-37727D01*
X27532Y-37658D01*
X27316Y-37545D01*
X27126Y-37393D01*
X26969Y-37206D01*
X26852Y-36992D01*
X26778Y-36759D01*
X26751Y-36517D01*
X26771Y-36275D01*
X26838Y-36040D01*
X26950Y-35823D01*
X27101Y-35632D01*
X27287Y-35474D01*
X27500Y-35355D01*
X27732Y-35280D01*
X27974Y-35251D01*
X28217Y-35269D01*
X28452Y-35335D01*
X28669Y-35445D01*
X28862Y-35595D01*
X29021Y-35780D01*
X29141Y-35992D01*
X29218Y-36224D01*
X29249Y-36466D01*
X29250Y-36500D01*
X25500Y-36500D02*
X30500Y-36500D01*
X28000Y-34000D02*
X28000Y-39000D01*
X22750Y-26000D02*
X22750Y-26250D01*
X23250Y-20000D02*
X22750Y-20000D01*
X23250Y-26250D02*
X22750Y-26250D01*
X28000Y-26250D02*
X27750Y-26250D01*
X28000Y-33250D02*
X27750Y-33250D01*
X28000Y-26250D02*
X28000Y-33250D01*
X20000Y-41500D02*
X20000Y-33250D01*
X23250Y-20000D02*
X54000Y-20000D01*
X22750Y-26000D02*
X22750Y-20000D01*
X27750Y-26250D02*
X23250Y-26250D01*
X20000Y-33250D02*
X27750Y-33250D01*
X54000Y-20000D02*
X54000Y-20000D01*
X54000Y-41500D02*
X54000Y-20000D01*
X20000Y-41500D02*
X54000Y-41500D01*
G54D10*
X27925Y-33375D02*
X28175Y-33625D01*
X28175Y-33375D02*
X27925Y-33625D01*
X28775Y-38725D02*
X29025Y-38975D01*
X29025Y-38725D02*
X28775Y-38975D01*
X30525Y-35225D02*
X30775Y-35475D01*
X30775Y-35225D02*
X30525Y-35475D01*
X31175Y-35875D02*
X31425Y-36125D01*
X31425Y-35875D02*
X31175Y-36125D01*
X31425Y-37175D02*
X31675Y-37425D01*
X31675Y-37175D02*
X31425Y-37425D01*
X32175Y-37475D02*
X32425Y-37725D01*
X32425Y-37475D02*
X32175Y-37725D01*
X32525Y-40125D02*
X32775Y-40375D01*
X32775Y-40125D02*
X32525Y-40375D01*
X32575Y-22525D02*
X32825Y-22775D01*
X32825Y-22525D02*
X32575Y-22775D01*
X32825Y-23625D02*
X33075Y-23875D01*
X33075Y-23625D02*
X32825Y-23875D01*
X33025Y-22625D02*
X33275Y-22875D01*
X33275Y-22625D02*
X33025Y-22875D01*
X33125Y-24325D02*
X33375Y-24575D01*
X33375Y-24325D02*
X33125Y-24575D01*
X33375Y-37325D02*
X33625Y-37575D01*
X33625Y-37325D02*
X33375Y-37575D01*
X33475Y-22625D02*
X33725Y-22875D01*
X33725Y-22625D02*
X33475Y-22875D01*
X33675Y-36425D02*
X33925Y-36675D01*
X33925Y-36425D02*
X33675Y-36675D01*
X33675Y-37725D02*
X33925Y-37975D01*
X33925Y-37725D02*
X33675Y-37975D01*
X33825Y-23175D02*
X34075Y-23425D01*
X34075Y-23175D02*
X33825Y-23425D01*
X33925Y-22625D02*
X34175Y-22875D01*
X34175Y-22625D02*
X33925Y-22875D01*
X34075Y-24275D02*
X34325Y-24525D01*
X34325Y-24275D02*
X34075Y-24525D01*
X34125Y-23825D02*
X34375Y-24075D01*
X34375Y-23825D02*
X34125Y-24075D01*
X34775Y-37525D02*
X35025Y-37775D01*
X35025Y-37525D02*
X34775Y-37775D01*
X35225Y-24425D02*
X35475Y-24675D01*
X35475Y-24425D02*
X35225Y-24675D01*
X35275Y-37475D02*
X35525Y-37725D01*
X35525Y-37475D02*
X35275Y-37725D01*
X35675Y-37725D02*
X35925Y-37975D01*
X35925Y-37725D02*
X35675Y-37975D01*
X39875Y-28075D02*
X40125Y-28325D01*
X40125Y-28075D02*
X39875Y-28325D01*
X40525Y-27725D02*
X40775Y-27975D01*
X40775Y-27725D02*
X40525Y-27975D01*
X43875Y-31075D02*
X44125Y-31325D01*
X44125Y-31075D02*
X43875Y-31325D01*
X44375Y-36775D02*
X44625Y-37025D01*
X44625Y-36775D02*
X44375Y-37025D01*
X45375Y-36775D02*
X45625Y-37025D01*
X45625Y-36775D02*
X45375Y-37025D01*
X45525Y-31925D02*
X45775Y-32175D01*
X45775Y-31925D02*
X45525Y-32175D01*
X46575Y-28875D02*
X46825Y-29125D01*
X46825Y-28875D02*
X46575Y-29125D01*
X47575Y-28875D02*
X47825Y-29125D01*
X47825Y-28875D02*
X47575Y-29125D01*
X47725Y-30225D02*
X47975Y-30475D01*
X47975Y-30225D02*
X47725Y-30475D01*
X48725Y-30225D02*
X48975Y-30475D01*
X48975Y-30225D02*
X48725Y-30475D01*
X49425Y-29575D02*
X49675Y-29825D01*
X49675Y-29575D02*
X49425Y-29825D01*
X49725Y-28875D02*
X49975Y-29125D01*
X49975Y-28875D02*
X49725Y-29125D01*
X51025Y-27575D02*
X51275Y-27825D01*
X51275Y-27575D02*
X51025Y-27825D01*
X51025Y-28025D02*
X51275Y-28275D01*
X51275Y-28025D02*
X51025Y-28275D01*
X51025Y-29575D02*
X51275Y-29825D01*
X51275Y-29575D02*
X51025Y-29825D01*
X51525Y-26075D02*
X51775Y-26325D01*
X51775Y-26075D02*
X51525Y-26325D01*
X38900Y-36400D02*
X38897Y-36429D01*
X38888Y-36457D01*
X38874Y-36483D01*
X38856Y-36505D01*
X38833Y-36524D01*
X38808Y-36538D01*
X38780Y-36546D01*
X38751Y-36549D01*
X38722Y-36547D01*
X38694Y-36539D01*
X38668Y-36525D01*
X38646Y-36507D01*
X38627Y-36484D01*
X38613Y-36459D01*
X38604Y-36431D01*
X38601Y-36402D01*
X38603Y-36373D01*
X38611Y-36345D01*
X38624Y-36319D01*
X38643Y-36296D01*
X38665Y-36277D01*
X38690Y-36263D01*
X38718Y-36254D01*
X38747Y-36251D01*
X38776Y-36253D01*
X38804Y-36261D01*
X38830Y-36274D01*
X38853Y-36292D01*
X38872Y-36314D01*
X38887Y-36339D01*
X38896Y-36367D01*
X38899Y-36396D01*
X38900Y-36400D01*
X40900Y-36400D02*
X40897Y-36429D01*
X40888Y-36457D01*
X40874Y-36483D01*
X40856Y-36505D01*
X40833Y-36524D01*
X40808Y-36538D01*
X40780Y-36546D01*
X40751Y-36549D01*
X40722Y-36547D01*
X40694Y-36539D01*
X40668Y-36525D01*
X40646Y-36507D01*
X40627Y-36484D01*
X40613Y-36459D01*
X40604Y-36431D01*
X40601Y-36402D01*
X40603Y-36373D01*
X40611Y-36345D01*
X40624Y-36319D01*
X40643Y-36296D01*
X40665Y-36277D01*
X40690Y-36263D01*
X40718Y-36254D01*
X40747Y-36251D01*
X40776Y-36253D01*
X40804Y-36261D01*
X40830Y-36274D01*
X40853Y-36292D01*
X40872Y-36314D01*
X40887Y-36339D01*
X40896Y-36367D01*
X40899Y-36396D01*
X40900Y-36400D01*
X21250Y-34340D02*
X21250Y-34660D01*
X21410Y-34500D02*
X21090Y-34500D01*
X21250Y-35340D02*
X21250Y-35660D01*
X21410Y-35500D02*
X21090Y-35500D01*
X21250Y-36440D02*
X21250Y-36760D01*
X21410Y-36600D02*
X21090Y-36600D01*
X21250Y-39940D02*
X21250Y-40260D01*
X21410Y-40100D02*
X21090Y-40100D01*
X23443Y-34090D02*
X23443Y-34410D01*
X23603Y-34250D02*
X23283Y-34250D01*
X23450Y-36390D02*
X23450Y-36710D01*
X23610Y-36550D02*
X23290Y-36550D01*
X23450Y-39890D02*
X23450Y-40210D01*
X23610Y-40050D02*
X23290Y-40050D01*
X24150Y-34797D02*
X24150Y-35117D01*
X24310Y-34957D02*
X23990Y-34957D01*
X24550Y-36390D02*
X24550Y-36710D01*
X24710Y-36550D02*
X24390Y-36550D01*
X24550Y-39890D02*
X24550Y-40210D01*
X24710Y-40050D02*
X24390Y-40050D01*
X24857Y-34090D02*
X24857Y-34410D01*
X25017Y-34250D02*
X24697Y-34250D01*
X28000Y-21590D02*
X28000Y-21910D01*
X28160Y-21750D02*
X27840Y-21750D01*
X28000Y-40590D02*
X28000Y-40910D01*
X28160Y-40750D02*
X27840Y-40750D01*
X30750Y-25290D02*
X30750Y-25610D01*
X30910Y-25450D02*
X30590Y-25450D01*
X30750Y-26790D02*
X30750Y-27110D01*
X30910Y-26950D02*
X30590Y-26950D01*
X30750Y-32790D02*
X30750Y-33110D01*
X30910Y-32950D02*
X30590Y-32950D01*
X30750Y-34290D02*
X30750Y-34610D01*
X30910Y-34450D02*
X30590Y-34450D01*
X31400Y-35190D02*
X31400Y-35510D01*
X31560Y-35350D02*
X31240Y-35350D01*
X31400Y-38690D02*
X31400Y-39010D01*
X31560Y-38850D02*
X31240Y-38850D01*
X31750Y-25290D02*
X31750Y-25610D01*
X31910Y-25450D02*
X31590Y-25450D01*
X31750Y-26790D02*
X31750Y-27110D01*
X31910Y-26950D02*
X31590Y-26950D01*
X31750Y-32790D02*
X31750Y-33110D01*
X31910Y-32950D02*
X31590Y-32950D01*
X31750Y-34290D02*
X31750Y-34610D01*
X31910Y-34450D02*
X31590Y-34450D01*
X32750Y-25290D02*
X32750Y-25610D01*
X32910Y-25450D02*
X32590Y-25450D01*
X32750Y-26790D02*
X32750Y-27110D01*
X32910Y-26950D02*
X32590Y-26950D01*
X32750Y-32790D02*
X32750Y-33110D01*
X32910Y-32950D02*
X32590Y-32950D01*
X32750Y-34290D02*
X32750Y-34610D01*
X32910Y-34450D02*
X32590Y-34450D01*
X33150Y-35540D02*
X33150Y-35860D01*
X33310Y-35700D02*
X32990Y-35700D01*
X33150Y-38540D02*
X33150Y-38860D01*
X33310Y-38700D02*
X32990Y-38700D01*
X33750Y-25290D02*
X33750Y-25610D01*
X33910Y-25450D02*
X33590Y-25450D01*
X33750Y-26790D02*
X33750Y-27110D01*
X33910Y-26950D02*
X33590Y-26950D01*
X33750Y-32790D02*
X33750Y-33110D01*
X33910Y-32950D02*
X33590Y-32950D01*
X33750Y-34290D02*
X33750Y-34610D01*
X33910Y-34450D02*
X33590Y-34450D01*
X34150Y-35540D02*
X34150Y-35860D01*
X34310Y-35700D02*
X33990Y-35700D01*
X34150Y-38540D02*
X34150Y-38860D01*
X34310Y-38700D02*
X33990Y-38700D01*
X34750Y-25290D02*
X34750Y-25610D01*
X34910Y-25450D02*
X34590Y-25450D01*
X34750Y-26790D02*
X34750Y-27110D01*
X34910Y-26950D02*
X34590Y-26950D01*
X34750Y-32790D02*
X34750Y-33110D01*
X34910Y-32950D02*
X34590Y-32950D01*
X34750Y-34290D02*
X34750Y-34610D01*
X34910Y-34450D02*
X34590Y-34450D01*
X35150Y-35540D02*
X35150Y-35860D01*
X35310Y-35700D02*
X34990Y-35700D01*
X35150Y-38540D02*
X35150Y-38860D01*
X35310Y-38700D02*
X34990Y-38700D01*
X35750Y-25290D02*
X35750Y-25610D01*
X35910Y-25450D02*
X35590Y-25450D01*
X35750Y-26790D02*
X35750Y-27110D01*
X35910Y-26950D02*
X35590Y-26950D01*
X35750Y-32790D02*
X35750Y-33110D01*
X35910Y-32950D02*
X35590Y-32950D01*
X35750Y-34290D02*
X35750Y-34610D01*
X35910Y-34450D02*
X35590Y-34450D01*
X36150Y-35540D02*
X36150Y-35860D01*
X36310Y-35700D02*
X35990Y-35700D01*
X36150Y-38540D02*
X36150Y-38860D01*
X36310Y-38700D02*
X35990Y-38700D01*
X36750Y-25290D02*
X36750Y-25610D01*
X36910Y-25450D02*
X36590Y-25450D01*
X36750Y-26790D02*
X36750Y-27110D01*
X36910Y-26950D02*
X36590Y-26950D01*
X36750Y-32790D02*
X36750Y-33110D01*
X36910Y-32950D02*
X36590Y-32950D01*
X36750Y-34290D02*
X36750Y-34610D01*
X36910Y-34450D02*
X36590Y-34450D01*
X37750Y-25290D02*
X37750Y-25610D01*
X37910Y-25450D02*
X37590Y-25450D01*
X37750Y-26790D02*
X37750Y-27110D01*
X37910Y-26950D02*
X37590Y-26950D01*
X37750Y-32790D02*
X37750Y-33110D01*
X37910Y-32950D02*
X37590Y-32950D01*
X37750Y-34290D02*
X37750Y-34610D01*
X37910Y-34450D02*
X37590Y-34450D01*
X38750Y-25290D02*
X38750Y-25610D01*
X38910Y-25450D02*
X38590Y-25450D01*
X38750Y-26790D02*
X38750Y-27110D01*
X38910Y-26950D02*
X38590Y-26950D01*
X38750Y-32790D02*
X38750Y-33110D01*
X38910Y-32950D02*
X38590Y-32950D01*
X38750Y-34290D02*
X38750Y-34610D01*
X38910Y-34450D02*
X38590Y-34450D01*
X39750Y-25290D02*
X39750Y-25610D01*
X39910Y-25450D02*
X39590Y-25450D01*
X39750Y-26790D02*
X39750Y-27110D01*
X39910Y-26950D02*
X39590Y-26950D01*
X39750Y-32790D02*
X39750Y-33110D01*
X39910Y-32950D02*
X39590Y-32950D01*
X39750Y-34290D02*
X39750Y-34610D01*
X39910Y-34450D02*
X39590Y-34450D01*
X40750Y-25290D02*
X40750Y-25610D01*
X40910Y-25450D02*
X40590Y-25450D01*
X40750Y-26790D02*
X40750Y-27110D01*
X40910Y-26950D02*
X40590Y-26950D01*
X40750Y-32790D02*
X40750Y-33110D01*
X40910Y-32950D02*
X40590Y-32950D01*
X40750Y-34290D02*
X40750Y-34610D01*
X40910Y-34450D02*
X40590Y-34450D01*
X41750Y-25290D02*
X41750Y-25610D01*
X41910Y-25450D02*
X41590Y-25450D01*
X41750Y-26790D02*
X41750Y-27110D01*
X41910Y-26950D02*
X41590Y-26950D01*
X41750Y-32790D02*
X41750Y-33110D01*
X41910Y-32950D02*
X41590Y-32950D01*
X41750Y-34290D02*
X41750Y-34610D01*
X41910Y-34450D02*
X41590Y-34450D01*
X42750Y-25290D02*
X42750Y-25610D01*
X42910Y-25450D02*
X42590Y-25450D01*
X42750Y-26790D02*
X42750Y-27110D01*
X42910Y-26950D02*
X42590Y-26950D01*
X42750Y-32790D02*
X42750Y-33110D01*
X42910Y-32950D02*
X42590Y-32950D01*
X42750Y-34290D02*
X42750Y-34610D01*
X42910Y-34450D02*
X42590Y-34450D01*
X42750Y-35890D02*
X42750Y-36210D01*
X42910Y-36050D02*
X42590Y-36050D01*
X43750Y-25290D02*
X43750Y-25610D01*
X43910Y-25450D02*
X43590Y-25450D01*
X43750Y-26790D02*
X43750Y-27110D01*
X43910Y-26950D02*
X43590Y-26950D01*
X43750Y-32790D02*
X43750Y-33110D01*
X43910Y-32950D02*
X43590Y-32950D01*
X43750Y-34290D02*
X43750Y-34610D01*
X43910Y-34450D02*
X43590Y-34450D01*
X43750Y-35890D02*
X43750Y-36210D01*
X43910Y-36050D02*
X43590Y-36050D01*
X44750Y-25290D02*
X44750Y-25610D01*
X44910Y-25450D02*
X44590Y-25450D01*
X44750Y-26790D02*
X44750Y-27110D01*
X44910Y-26950D02*
X44590Y-26950D01*
X44750Y-32790D02*
X44750Y-33110D01*
X44910Y-32950D02*
X44590Y-32950D01*
X44750Y-34290D02*
X44750Y-34610D01*
X44910Y-34450D02*
X44590Y-34450D01*
X44750Y-35890D02*
X44750Y-36210D01*
X44910Y-36050D02*
X44590Y-36050D01*
X45750Y-25290D02*
X45750Y-25610D01*
X45910Y-25450D02*
X45590Y-25450D01*
X45750Y-26790D02*
X45750Y-27110D01*
X45910Y-26950D02*
X45590Y-26950D01*
X45750Y-32790D02*
X45750Y-33110D01*
X45910Y-32950D02*
X45590Y-32950D01*
X45750Y-34290D02*
X45750Y-34610D01*
X45910Y-34450D02*
X45590Y-34450D01*
X45750Y-35890D02*
X45750Y-36210D01*
X45910Y-36050D02*
X45590Y-36050D01*
X46750Y-25290D02*
X46750Y-25610D01*
X46910Y-25450D02*
X46590Y-25450D01*
X46750Y-26790D02*
X46750Y-27110D01*
X46910Y-26950D02*
X46590Y-26950D01*
X46750Y-32790D02*
X46750Y-33110D01*
X46910Y-32950D02*
X46590Y-32950D01*
X46750Y-34290D02*
X46750Y-34610D01*
X46910Y-34450D02*
X46590Y-34450D01*
X46750Y-35890D02*
X46750Y-36210D01*
X46910Y-36050D02*
X46590Y-36050D01*
X47750Y-25290D02*
X47750Y-25610D01*
X47910Y-25450D02*
X47590Y-25450D01*
X47750Y-26790D02*
X47750Y-27110D01*
X47910Y-26950D02*
X47590Y-26950D01*
X47750Y-32790D02*
X47750Y-33110D01*
X47910Y-32950D02*
X47590Y-32950D01*
X47750Y-34290D02*
X47750Y-34610D01*
X47910Y-34450D02*
X47590Y-34450D01*
X47750Y-35890D02*
X47750Y-36210D01*
X47910Y-36050D02*
X47590Y-36050D01*
X48750Y-25290D02*
X48750Y-25610D01*
X48910Y-25450D02*
X48590Y-25450D01*
X48750Y-26790D02*
X48750Y-27110D01*
X48910Y-26950D02*
X48590Y-26950D01*
X48750Y-32790D02*
X48750Y-33110D01*
X48910Y-32950D02*
X48590Y-32950D01*
X48750Y-34290D02*
X48750Y-34610D01*
X48910Y-34450D02*
X48590Y-34450D01*
X48750Y-35890D02*
X48750Y-36210D01*
X48910Y-36050D02*
X48590Y-36050D01*
X49750Y-25290D02*
X49750Y-25610D01*
X49910Y-25450D02*
X49590Y-25450D01*
X49750Y-26790D02*
X49750Y-27110D01*
X49910Y-26950D02*
X49590Y-26950D01*
X49750Y-32790D02*
X49750Y-33110D01*
X49910Y-32950D02*
X49590Y-32950D01*
X49750Y-34290D02*
X49750Y-34610D01*
X49910Y-34450D02*
X49590Y-34450D01*
X49750Y-35890D02*
X49750Y-36210D01*
X49910Y-36050D02*
X49590Y-36050D01*
X52450Y-32290D02*
X52450Y-32610D01*
X52610Y-32450D02*
X52290Y-32450D01*
X52450Y-33290D02*
X52450Y-33610D01*
X52610Y-33450D02*
X52290Y-33450D01*
X52450Y-34290D02*
X52450Y-34610D01*
X52610Y-34450D02*
X52290Y-34450D01*
X52450Y-35290D02*
X52450Y-35610D01*
X52610Y-35450D02*
X52290Y-35450D01*
X28200Y-20750D02*
X28196Y-20788D01*
X28184Y-20826D01*
X28166Y-20860D01*
X28141Y-20890D01*
X28111Y-20915D01*
X28077Y-20934D01*
X28040Y-20945D01*
X28001Y-20949D01*
X27963Y-20946D01*
X27926Y-20935D01*
X27891Y-20917D01*
X27861Y-20892D01*
X27835Y-20862D01*
X27817Y-20828D01*
X27805Y-20791D01*
X27801Y-20752D01*
X27804Y-20714D01*
X27815Y-20677D01*
X27832Y-20642D01*
X27857Y-20612D01*
X27886Y-20586D01*
X27920Y-20567D01*
X27958Y-20555D01*
X27996Y-20551D01*
X28034Y-20554D01*
X28072Y-20564D01*
X28107Y-20582D01*
X28137Y-20606D01*
X28163Y-20635D01*
X28182Y-20669D01*
X28195Y-20706D01*
X28199Y-20745D01*
X28200Y-20750D01*
X27800Y-20550D02*
X28200Y-20950D01*
X28200Y-20550D02*
X27800Y-20950D01*
X28200Y-39750D02*
X28196Y-39788D01*
X28184Y-39826D01*
X28166Y-39860D01*
X28141Y-39890D01*
X28111Y-39915D01*
X28077Y-39934D01*
X28040Y-39945D01*
X28001Y-39949D01*
X27963Y-39946D01*
X27926Y-39935D01*
X27891Y-39917D01*
X27861Y-39892D01*
X27835Y-39862D01*
X27817Y-39828D01*
X27805Y-39791D01*
X27801Y-39752D01*
X27804Y-39714D01*
X27815Y-39677D01*
X27832Y-39642D01*
X27857Y-39612D01*
X27886Y-39586D01*
X27920Y-39567D01*
X27958Y-39555D01*
X27996Y-39551D01*
X28034Y-39554D01*
X28072Y-39564D01*
X28107Y-39582D01*
X28137Y-39606D01*
X28163Y-39635D01*
X28182Y-39669D01*
X28195Y-39706D01*
X28199Y-39745D01*
X28200Y-39750D01*
X27800Y-39550D02*
X28200Y-39950D01*
X28200Y-39550D02*
X27800Y-39950D01*
X29200Y-20750D02*
X29196Y-20788D01*
X29184Y-20826D01*
X29166Y-20860D01*
X29141Y-20890D01*
X29111Y-20915D01*
X29077Y-20934D01*
X29040Y-20945D01*
X29001Y-20949D01*
X28963Y-20946D01*
X28926Y-20935D01*
X28891Y-20917D01*
X28861Y-20892D01*
X28835Y-20862D01*
X28817Y-20828D01*
X28805Y-20791D01*
X28801Y-20752D01*
X28804Y-20714D01*
X28815Y-20677D01*
X28832Y-20642D01*
X28857Y-20612D01*
X28886Y-20586D01*
X28920Y-20567D01*
X28958Y-20555D01*
X28996Y-20551D01*
X29034Y-20554D01*
X29072Y-20564D01*
X29107Y-20582D01*
X29137Y-20606D01*
X29163Y-20635D01*
X29182Y-20669D01*
X29195Y-20706D01*
X29199Y-20745D01*
X29200Y-20750D01*
X28800Y-20550D02*
X29200Y-20950D01*
X29200Y-20550D02*
X28800Y-20950D01*
X29200Y-21750D02*
X29196Y-21788D01*
X29184Y-21826D01*
X29166Y-21860D01*
X29141Y-21890D01*
X29111Y-21915D01*
X29077Y-21934D01*
X29040Y-21945D01*
X29001Y-21949D01*
X28963Y-21946D01*
X28926Y-21935D01*
X28891Y-21917D01*
X28861Y-21892D01*
X28835Y-21862D01*
X28817Y-21828D01*
X28805Y-21791D01*
X28801Y-21752D01*
X28804Y-21714D01*
X28815Y-21677D01*
X28832Y-21642D01*
X28857Y-21612D01*
X28886Y-21586D01*
X28920Y-21567D01*
X28958Y-21555D01*
X28996Y-21551D01*
X29034Y-21554D01*
X29072Y-21564D01*
X29107Y-21582D01*
X29137Y-21606D01*
X29163Y-21635D01*
X29182Y-21669D01*
X29195Y-21706D01*
X29199Y-21745D01*
X29200Y-21750D01*
X28800Y-21550D02*
X29200Y-21950D01*
X29200Y-21550D02*
X28800Y-21950D01*
X29200Y-39750D02*
X29196Y-39788D01*
X29184Y-39826D01*
X29166Y-39860D01*
X29141Y-39890D01*
X29111Y-39915D01*
X29077Y-39934D01*
X29040Y-39945D01*
X29001Y-39949D01*
X28963Y-39946D01*
X28926Y-39935D01*
X28891Y-39917D01*
X28861Y-39892D01*
X28835Y-39862D01*
X28817Y-39828D01*
X28805Y-39791D01*
X28801Y-39752D01*
X28804Y-39714D01*
X28815Y-39677D01*
X28832Y-39642D01*
X28857Y-39612D01*
X28886Y-39586D01*
X28920Y-39567D01*
X28958Y-39555D01*
X28996Y-39551D01*
X29034Y-39554D01*
X29072Y-39564D01*
X29107Y-39582D01*
X29137Y-39606D01*
X29163Y-39635D01*
X29182Y-39669D01*
X29195Y-39706D01*
X29199Y-39745D01*
X29200Y-39750D01*
X28800Y-39550D02*
X29200Y-39950D01*
X29200Y-39550D02*
X28800Y-39950D01*
X29200Y-40750D02*
X29196Y-40788D01*
X29184Y-40826D01*
X29166Y-40860D01*
X29141Y-40890D01*
X29111Y-40915D01*
X29077Y-40934D01*
X29040Y-40945D01*
X29001Y-40949D01*
X28963Y-40946D01*
X28926Y-40935D01*
X28891Y-40917D01*
X28861Y-40892D01*
X28835Y-40862D01*
X28817Y-40828D01*
X28805Y-40791D01*
X28801Y-40752D01*
X28804Y-40714D01*
X28815Y-40677D01*
X28832Y-40642D01*
X28857Y-40612D01*
X28886Y-40586D01*
X28920Y-40567D01*
X28958Y-40555D01*
X28996Y-40551D01*
X29034Y-40554D01*
X29072Y-40564D01*
X29107Y-40582D01*
X29137Y-40606D01*
X29163Y-40635D01*
X29182Y-40669D01*
X29195Y-40706D01*
X29199Y-40745D01*
X29200Y-40750D01*
X28800Y-40550D02*
X29200Y-40950D01*
X29200Y-40550D02*
X28800Y-40950D01*
X30200Y-20750D02*
X30196Y-20788D01*
X30184Y-20826D01*
X30166Y-20860D01*
X30141Y-20890D01*
X30111Y-20915D01*
X30077Y-20934D01*
X30040Y-20945D01*
X30001Y-20949D01*
X29963Y-20946D01*
X29926Y-20935D01*
X29891Y-20917D01*
X29861Y-20892D01*
X29835Y-20862D01*
X29817Y-20828D01*
X29805Y-20791D01*
X29801Y-20752D01*
X29804Y-20714D01*
X29815Y-20677D01*
X29832Y-20642D01*
X29857Y-20612D01*
X29886Y-20586D01*
X29920Y-20567D01*
X29958Y-20555D01*
X29996Y-20551D01*
X30034Y-20554D01*
X30072Y-20564D01*
X30107Y-20582D01*
X30137Y-20606D01*
X30163Y-20635D01*
X30182Y-20669D01*
X30195Y-20706D01*
X30199Y-20745D01*
X30200Y-20750D01*
X29800Y-20550D02*
X30200Y-20950D01*
X30200Y-20550D02*
X29800Y-20950D01*
X30200Y-21750D02*
X30196Y-21788D01*
X30184Y-21826D01*
X30166Y-21860D01*
X30141Y-21890D01*
X30111Y-21915D01*
X30077Y-21934D01*
X30040Y-21945D01*
X30001Y-21949D01*
X29963Y-21946D01*
X29926Y-21935D01*
X29891Y-21917D01*
X29861Y-21892D01*
X29835Y-21862D01*
X29817Y-21828D01*
X29805Y-21791D01*
X29801Y-21752D01*
X29804Y-21714D01*
X29815Y-21677D01*
X29832Y-21642D01*
X29857Y-21612D01*
X29886Y-21586D01*
X29920Y-21567D01*
X29958Y-21555D01*
X29996Y-21551D01*
X30034Y-21554D01*
X30072Y-21564D01*
X30107Y-21582D01*
X30137Y-21606D01*
X30163Y-21635D01*
X30182Y-21669D01*
X30195Y-21706D01*
X30199Y-21745D01*
X30200Y-21750D01*
X29800Y-21550D02*
X30200Y-21950D01*
X30200Y-21550D02*
X29800Y-21950D01*
X30200Y-39750D02*
X30196Y-39788D01*
X30184Y-39826D01*
X30166Y-39860D01*
X30141Y-39890D01*
X30111Y-39915D01*
X30077Y-39934D01*
X30040Y-39945D01*
X30001Y-39949D01*
X29963Y-39946D01*
X29926Y-39935D01*
X29891Y-39917D01*
X29861Y-39892D01*
X29835Y-39862D01*
X29817Y-39828D01*
X29805Y-39791D01*
X29801Y-39752D01*
X29804Y-39714D01*
X29815Y-39677D01*
X29832Y-39642D01*
X29857Y-39612D01*
X29886Y-39586D01*
X29920Y-39567D01*
X29958Y-39555D01*
X29996Y-39551D01*
X30034Y-39554D01*
X30072Y-39564D01*
X30107Y-39582D01*
X30137Y-39606D01*
X30163Y-39635D01*
X30182Y-39669D01*
X30195Y-39706D01*
X30199Y-39745D01*
X30200Y-39750D01*
X29800Y-39550D02*
X30200Y-39950D01*
X30200Y-39550D02*
X29800Y-39950D01*
X30200Y-40750D02*
X30196Y-40788D01*
X30184Y-40826D01*
X30166Y-40860D01*
X30141Y-40890D01*
X30111Y-40915D01*
X30077Y-40934D01*
X30040Y-40945D01*
X30001Y-40949D01*
X29963Y-40946D01*
X29926Y-40935D01*
X29891Y-40917D01*
X29861Y-40892D01*
X29835Y-40862D01*
X29817Y-40828D01*
X29805Y-40791D01*
X29801Y-40752D01*
X29804Y-40714D01*
X29815Y-40677D01*
X29832Y-40642D01*
X29857Y-40612D01*
X29886Y-40586D01*
X29920Y-40567D01*
X29958Y-40555D01*
X29996Y-40551D01*
X30034Y-40554D01*
X30072Y-40564D01*
X30107Y-40582D01*
X30137Y-40606D01*
X30163Y-40635D01*
X30182Y-40669D01*
X30195Y-40706D01*
X30199Y-40745D01*
X30200Y-40750D01*
X29800Y-40550D02*
X30200Y-40950D01*
X30200Y-40550D02*
X29800Y-40950D01*
X31200Y-20750D02*
X31196Y-20788D01*
X31184Y-20826D01*
X31166Y-20860D01*
X31141Y-20890D01*
X31111Y-20915D01*
X31077Y-20934D01*
X31040Y-20945D01*
X31001Y-20949D01*
X30963Y-20946D01*
X30926Y-20935D01*
X30891Y-20917D01*
X30861Y-20892D01*
X30835Y-20862D01*
X30817Y-20828D01*
X30805Y-20791D01*
X30801Y-20752D01*
X30804Y-20714D01*
X30815Y-20677D01*
X30832Y-20642D01*
X30857Y-20612D01*
X30886Y-20586D01*
X30920Y-20567D01*
X30958Y-20555D01*
X30996Y-20551D01*
X31034Y-20554D01*
X31072Y-20564D01*
X31107Y-20582D01*
X31137Y-20606D01*
X31163Y-20635D01*
X31182Y-20669D01*
X31195Y-20706D01*
X31199Y-20745D01*
X31200Y-20750D01*
X30800Y-20550D02*
X31200Y-20950D01*
X31200Y-20550D02*
X30800Y-20950D01*
X31200Y-21750D02*
X31196Y-21788D01*
X31184Y-21826D01*
X31166Y-21860D01*
X31141Y-21890D01*
X31111Y-21915D01*
X31077Y-21934D01*
X31040Y-21945D01*
X31001Y-21949D01*
X30963Y-21946D01*
X30926Y-21935D01*
X30891Y-21917D01*
X30861Y-21892D01*
X30835Y-21862D01*
X30817Y-21828D01*
X30805Y-21791D01*
X30801Y-21752D01*
X30804Y-21714D01*
X30815Y-21677D01*
X30832Y-21642D01*
X30857Y-21612D01*
X30886Y-21586D01*
X30920Y-21567D01*
X30958Y-21555D01*
X30996Y-21551D01*
X31034Y-21554D01*
X31072Y-21564D01*
X31107Y-21582D01*
X31137Y-21606D01*
X31163Y-21635D01*
X31182Y-21669D01*
X31195Y-21706D01*
X31199Y-21745D01*
X31200Y-21750D01*
X30800Y-21550D02*
X31200Y-21950D01*
X31200Y-21550D02*
X30800Y-21950D01*
X31200Y-39750D02*
X31196Y-39788D01*
X31184Y-39826D01*
X31166Y-39860D01*
X31141Y-39890D01*
X31111Y-39915D01*
X31077Y-39934D01*
X31040Y-39945D01*
X31001Y-39949D01*
X30963Y-39946D01*
X30926Y-39935D01*
X30891Y-39917D01*
X30861Y-39892D01*
X30835Y-39862D01*
X30817Y-39828D01*
X30805Y-39791D01*
X30801Y-39752D01*
X30804Y-39714D01*
X30815Y-39677D01*
X30832Y-39642D01*
X30857Y-39612D01*
X30886Y-39586D01*
X30920Y-39567D01*
X30958Y-39555D01*
X30996Y-39551D01*
X31034Y-39554D01*
X31072Y-39564D01*
X31107Y-39582D01*
X31137Y-39606D01*
X31163Y-39635D01*
X31182Y-39669D01*
X31195Y-39706D01*
X31199Y-39745D01*
X31200Y-39750D01*
X30800Y-39550D02*
X31200Y-39950D01*
X31200Y-39550D02*
X30800Y-39950D01*
X31200Y-40750D02*
X31196Y-40788D01*
X31184Y-40826D01*
X31166Y-40860D01*
X31141Y-40890D01*
X31111Y-40915D01*
X31077Y-40934D01*
X31040Y-40945D01*
X31001Y-40949D01*
X30963Y-40946D01*
X30926Y-40935D01*
X30891Y-40917D01*
X30861Y-40892D01*
X30835Y-40862D01*
X30817Y-40828D01*
X30805Y-40791D01*
X30801Y-40752D01*
X30804Y-40714D01*
X30815Y-40677D01*
X30832Y-40642D01*
X30857Y-40612D01*
X30886Y-40586D01*
X30920Y-40567D01*
X30958Y-40555D01*
X30996Y-40551D01*
X31034Y-40554D01*
X31072Y-40564D01*
X31107Y-40582D01*
X31137Y-40606D01*
X31163Y-40635D01*
X31182Y-40669D01*
X31195Y-40706D01*
X31199Y-40745D01*
X31200Y-40750D01*
X30800Y-40550D02*
X31200Y-40950D01*
X31200Y-40550D02*
X30800Y-40950D01*
X32200Y-20750D02*
X32196Y-20788D01*
X32184Y-20826D01*
X32166Y-20860D01*
X32141Y-20890D01*
X32111Y-20915D01*
X32077Y-20934D01*
X32040Y-20945D01*
X32001Y-20949D01*
X31963Y-20946D01*
X31926Y-20935D01*
X31891Y-20917D01*
X31861Y-20892D01*
X31835Y-20862D01*
X31817Y-20828D01*
X31805Y-20791D01*
X31801Y-20752D01*
X31804Y-20714D01*
X31815Y-20677D01*
X31832Y-20642D01*
X31857Y-20612D01*
X31886Y-20586D01*
X31920Y-20567D01*
X31958Y-20555D01*
X31996Y-20551D01*
X32034Y-20554D01*
X32072Y-20564D01*
X32107Y-20582D01*
X32137Y-20606D01*
X32163Y-20635D01*
X32182Y-20669D01*
X32195Y-20706D01*
X32199Y-20745D01*
X32200Y-20750D01*
X31800Y-20550D02*
X32200Y-20950D01*
X32200Y-20550D02*
X31800Y-20950D01*
X32200Y-21750D02*
X32196Y-21788D01*
X32184Y-21826D01*
X32166Y-21860D01*
X32141Y-21890D01*
X32111Y-21915D01*
X32077Y-21934D01*
X32040Y-21945D01*
X32001Y-21949D01*
X31963Y-21946D01*
X31926Y-21935D01*
X31891Y-21917D01*
X31861Y-21892D01*
X31835Y-21862D01*
X31817Y-21828D01*
X31805Y-21791D01*
X31801Y-21752D01*
X31804Y-21714D01*
X31815Y-21677D01*
X31832Y-21642D01*
X31857Y-21612D01*
X31886Y-21586D01*
X31920Y-21567D01*
X31958Y-21555D01*
X31996Y-21551D01*
X32034Y-21554D01*
X32072Y-21564D01*
X32107Y-21582D01*
X32137Y-21606D01*
X32163Y-21635D01*
X32182Y-21669D01*
X32195Y-21706D01*
X32199Y-21745D01*
X32200Y-21750D01*
X31800Y-21550D02*
X32200Y-21950D01*
X32200Y-21550D02*
X31800Y-21950D01*
X32200Y-39750D02*
X32196Y-39788D01*
X32184Y-39826D01*
X32166Y-39860D01*
X32141Y-39890D01*
X32111Y-39915D01*
X32077Y-39934D01*
X32040Y-39945D01*
X32001Y-39949D01*
X31963Y-39946D01*
X31926Y-39935D01*
X31891Y-39917D01*
X31861Y-39892D01*
X31835Y-39862D01*
X31817Y-39828D01*
X31805Y-39791D01*
X31801Y-39752D01*
X31804Y-39714D01*
X31815Y-39677D01*
X31832Y-39642D01*
X31857Y-39612D01*
X31886Y-39586D01*
X31920Y-39567D01*
X31958Y-39555D01*
X31996Y-39551D01*
X32034Y-39554D01*
X32072Y-39564D01*
X32107Y-39582D01*
X32137Y-39606D01*
X32163Y-39635D01*
X32182Y-39669D01*
X32195Y-39706D01*
X32199Y-39745D01*
X32200Y-39750D01*
X31800Y-39550D02*
X32200Y-39950D01*
X32200Y-39550D02*
X31800Y-39950D01*
X32200Y-40750D02*
X32196Y-40788D01*
X32184Y-40826D01*
X32166Y-40860D01*
X32141Y-40890D01*
X32111Y-40915D01*
X32077Y-40934D01*
X32040Y-40945D01*
X32001Y-40949D01*
X31963Y-40946D01*
X31926Y-40935D01*
X31891Y-40917D01*
X31861Y-40892D01*
X31835Y-40862D01*
X31817Y-40828D01*
X31805Y-40791D01*
X31801Y-40752D01*
X31804Y-40714D01*
X31815Y-40677D01*
X31832Y-40642D01*
X31857Y-40612D01*
X31886Y-40586D01*
X31920Y-40567D01*
X31958Y-40555D01*
X31996Y-40551D01*
X32034Y-40554D01*
X32072Y-40564D01*
X32107Y-40582D01*
X32137Y-40606D01*
X32163Y-40635D01*
X32182Y-40669D01*
X32195Y-40706D01*
X32199Y-40745D01*
X32200Y-40750D01*
X31800Y-40550D02*
X32200Y-40950D01*
X32200Y-40550D02*
X31800Y-40950D01*
X33200Y-20750D02*
X33196Y-20788D01*
X33184Y-20826D01*
X33166Y-20860D01*
X33141Y-20890D01*
X33111Y-20915D01*
X33077Y-20934D01*
X33040Y-20945D01*
X33001Y-20949D01*
X32963Y-20946D01*
X32926Y-20935D01*
X32891Y-20917D01*
X32861Y-20892D01*
X32835Y-20862D01*
X32817Y-20828D01*
X32805Y-20791D01*
X32801Y-20752D01*
X32804Y-20714D01*
X32815Y-20677D01*
X32832Y-20642D01*
X32857Y-20612D01*
X32886Y-20586D01*
X32920Y-20567D01*
X32958Y-20555D01*
X32996Y-20551D01*
X33034Y-20554D01*
X33072Y-20564D01*
X33107Y-20582D01*
X33137Y-20606D01*
X33163Y-20635D01*
X33182Y-20669D01*
X33195Y-20706D01*
X33199Y-20745D01*
X33200Y-20750D01*
X32800Y-20550D02*
X33200Y-20950D01*
X33200Y-20550D02*
X32800Y-20950D01*
X33200Y-21750D02*
X33196Y-21788D01*
X33184Y-21826D01*
X33166Y-21860D01*
X33141Y-21890D01*
X33111Y-21915D01*
X33077Y-21934D01*
X33040Y-21945D01*
X33001Y-21949D01*
X32963Y-21946D01*
X32926Y-21935D01*
X32891Y-21917D01*
X32861Y-21892D01*
X32835Y-21862D01*
X32817Y-21828D01*
X32805Y-21791D01*
X32801Y-21752D01*
X32804Y-21714D01*
X32815Y-21677D01*
X32832Y-21642D01*
X32857Y-21612D01*
X32886Y-21586D01*
X32920Y-21567D01*
X32958Y-21555D01*
X32996Y-21551D01*
X33034Y-21554D01*
X33072Y-21564D01*
X33107Y-21582D01*
X33137Y-21606D01*
X33163Y-21635D01*
X33182Y-21669D01*
X33195Y-21706D01*
X33199Y-21745D01*
X33200Y-21750D01*
X32800Y-21550D02*
X33200Y-21950D01*
X33200Y-21550D02*
X32800Y-21950D01*
X33200Y-39750D02*
X33196Y-39788D01*
X33184Y-39826D01*
X33166Y-39860D01*
X33141Y-39890D01*
X33111Y-39915D01*
X33077Y-39934D01*
X33040Y-39945D01*
X33001Y-39949D01*
X32963Y-39946D01*
X32926Y-39935D01*
X32891Y-39917D01*
X32861Y-39892D01*
X32835Y-39862D01*
X32817Y-39828D01*
X32805Y-39791D01*
X32801Y-39752D01*
X32804Y-39714D01*
X32815Y-39677D01*
X32832Y-39642D01*
X32857Y-39612D01*
X32886Y-39586D01*
X32920Y-39567D01*
X32958Y-39555D01*
X32996Y-39551D01*
X33034Y-39554D01*
X33072Y-39564D01*
X33107Y-39582D01*
X33137Y-39606D01*
X33163Y-39635D01*
X33182Y-39669D01*
X33195Y-39706D01*
X33199Y-39745D01*
X33200Y-39750D01*
X32800Y-39550D02*
X33200Y-39950D01*
X33200Y-39550D02*
X32800Y-39950D01*
X33200Y-40750D02*
X33196Y-40788D01*
X33184Y-40826D01*
X33166Y-40860D01*
X33141Y-40890D01*
X33111Y-40915D01*
X33077Y-40934D01*
X33040Y-40945D01*
X33001Y-40949D01*
X32963Y-40946D01*
X32926Y-40935D01*
X32891Y-40917D01*
X32861Y-40892D01*
X32835Y-40862D01*
X32817Y-40828D01*
X32805Y-40791D01*
X32801Y-40752D01*
X32804Y-40714D01*
X32815Y-40677D01*
X32832Y-40642D01*
X32857Y-40612D01*
X32886Y-40586D01*
X32920Y-40567D01*
X32958Y-40555D01*
X32996Y-40551D01*
X33034Y-40554D01*
X33072Y-40564D01*
X33107Y-40582D01*
X33137Y-40606D01*
X33163Y-40635D01*
X33182Y-40669D01*
X33195Y-40706D01*
X33199Y-40745D01*
X33200Y-40750D01*
X32800Y-40550D02*
X33200Y-40950D01*
X33200Y-40550D02*
X32800Y-40950D01*
X34200Y-20750D02*
X34196Y-20788D01*
X34184Y-20826D01*
X34166Y-20860D01*
X34141Y-20890D01*
X34111Y-20915D01*
X34077Y-20934D01*
X34040Y-20945D01*
X34001Y-20949D01*
X33963Y-20946D01*
X33926Y-20935D01*
X33891Y-20917D01*
X33861Y-20892D01*
X33835Y-20862D01*
X33817Y-20828D01*
X33805Y-20791D01*
X33801Y-20752D01*
X33804Y-20714D01*
X33815Y-20677D01*
X33832Y-20642D01*
X33857Y-20612D01*
X33886Y-20586D01*
X33920Y-20567D01*
X33958Y-20555D01*
X33996Y-20551D01*
X34034Y-20554D01*
X34072Y-20564D01*
X34107Y-20582D01*
X34137Y-20606D01*
X34163Y-20635D01*
X34182Y-20669D01*
X34195Y-20706D01*
X34199Y-20745D01*
X34200Y-20750D01*
X33800Y-20550D02*
X34200Y-20950D01*
X34200Y-20550D02*
X33800Y-20950D01*
X34200Y-21750D02*
X34196Y-21788D01*
X34184Y-21826D01*
X34166Y-21860D01*
X34141Y-21890D01*
X34111Y-21915D01*
X34077Y-21934D01*
X34040Y-21945D01*
X34001Y-21949D01*
X33963Y-21946D01*
X33926Y-21935D01*
X33891Y-21917D01*
X33861Y-21892D01*
X33835Y-21862D01*
X33817Y-21828D01*
X33805Y-21791D01*
X33801Y-21752D01*
X33804Y-21714D01*
X33815Y-21677D01*
X33832Y-21642D01*
X33857Y-21612D01*
X33886Y-21586D01*
X33920Y-21567D01*
X33958Y-21555D01*
X33996Y-21551D01*
X34034Y-21554D01*
X34072Y-21564D01*
X34107Y-21582D01*
X34137Y-21606D01*
X34163Y-21635D01*
X34182Y-21669D01*
X34195Y-21706D01*
X34199Y-21745D01*
X34200Y-21750D01*
X33800Y-21550D02*
X34200Y-21950D01*
X34200Y-21550D02*
X33800Y-21950D01*
X34200Y-39750D02*
X34196Y-39788D01*
X34184Y-39826D01*
X34166Y-39860D01*
X34141Y-39890D01*
X34111Y-39915D01*
X34077Y-39934D01*
X34040Y-39945D01*
X34001Y-39949D01*
X33963Y-39946D01*
X33926Y-39935D01*
X33891Y-39917D01*
X33861Y-39892D01*
X33835Y-39862D01*
X33817Y-39828D01*
X33805Y-39791D01*
X33801Y-39752D01*
X33804Y-39714D01*
X33815Y-39677D01*
X33832Y-39642D01*
X33857Y-39612D01*
X33886Y-39586D01*
X33920Y-39567D01*
X33958Y-39555D01*
X33996Y-39551D01*
X34034Y-39554D01*
X34072Y-39564D01*
X34107Y-39582D01*
X34137Y-39606D01*
X34163Y-39635D01*
X34182Y-39669D01*
X34195Y-39706D01*
X34199Y-39745D01*
X34200Y-39750D01*
X33800Y-39550D02*
X34200Y-39950D01*
X34200Y-39550D02*
X33800Y-39950D01*
X34200Y-40750D02*
X34196Y-40788D01*
X34184Y-40826D01*
X34166Y-40860D01*
X34141Y-40890D01*
X34111Y-40915D01*
X34077Y-40934D01*
X34040Y-40945D01*
X34001Y-40949D01*
X33963Y-40946D01*
X33926Y-40935D01*
X33891Y-40917D01*
X33861Y-40892D01*
X33835Y-40862D01*
X33817Y-40828D01*
X33805Y-40791D01*
X33801Y-40752D01*
X33804Y-40714D01*
X33815Y-40677D01*
X33832Y-40642D01*
X33857Y-40612D01*
X33886Y-40586D01*
X33920Y-40567D01*
X33958Y-40555D01*
X33996Y-40551D01*
X34034Y-40554D01*
X34072Y-40564D01*
X34107Y-40582D01*
X34137Y-40606D01*
X34163Y-40635D01*
X34182Y-40669D01*
X34195Y-40706D01*
X34199Y-40745D01*
X34200Y-40750D01*
X33800Y-40550D02*
X34200Y-40950D01*
X34200Y-40550D02*
X33800Y-40950D01*
X35200Y-20750D02*
X35196Y-20788D01*
X35184Y-20826D01*
X35166Y-20860D01*
X35141Y-20890D01*
X35111Y-20915D01*
X35077Y-20934D01*
X35040Y-20945D01*
X35001Y-20949D01*
X34963Y-20946D01*
X34926Y-20935D01*
X34891Y-20917D01*
X34861Y-20892D01*
X34835Y-20862D01*
X34817Y-20828D01*
X34805Y-20791D01*
X34801Y-20752D01*
X34804Y-20714D01*
X34815Y-20677D01*
X34832Y-20642D01*
X34857Y-20612D01*
X34886Y-20586D01*
X34920Y-20567D01*
X34958Y-20555D01*
X34996Y-20551D01*
X35034Y-20554D01*
X35072Y-20564D01*
X35107Y-20582D01*
X35137Y-20606D01*
X35163Y-20635D01*
X35182Y-20669D01*
X35195Y-20706D01*
X35199Y-20745D01*
X35200Y-20750D01*
X34800Y-20550D02*
X35200Y-20950D01*
X35200Y-20550D02*
X34800Y-20950D01*
X35200Y-21750D02*
X35196Y-21788D01*
X35184Y-21826D01*
X35166Y-21860D01*
X35141Y-21890D01*
X35111Y-21915D01*
X35077Y-21934D01*
X35040Y-21945D01*
X35001Y-21949D01*
X34963Y-21946D01*
X34926Y-21935D01*
X34891Y-21917D01*
X34861Y-21892D01*
X34835Y-21862D01*
X34817Y-21828D01*
X34805Y-21791D01*
X34801Y-21752D01*
X34804Y-21714D01*
X34815Y-21677D01*
X34832Y-21642D01*
X34857Y-21612D01*
X34886Y-21586D01*
X34920Y-21567D01*
X34958Y-21555D01*
X34996Y-21551D01*
X35034Y-21554D01*
X35072Y-21564D01*
X35107Y-21582D01*
X35137Y-21606D01*
X35163Y-21635D01*
X35182Y-21669D01*
X35195Y-21706D01*
X35199Y-21745D01*
X35200Y-21750D01*
X34800Y-21550D02*
X35200Y-21950D01*
X35200Y-21550D02*
X34800Y-21950D01*
X35200Y-39750D02*
X35196Y-39788D01*
X35184Y-39826D01*
X35166Y-39860D01*
X35141Y-39890D01*
X35111Y-39915D01*
X35077Y-39934D01*
X35040Y-39945D01*
X35001Y-39949D01*
X34963Y-39946D01*
X34926Y-39935D01*
X34891Y-39917D01*
X34861Y-39892D01*
X34835Y-39862D01*
X34817Y-39828D01*
X34805Y-39791D01*
X34801Y-39752D01*
X34804Y-39714D01*
X34815Y-39677D01*
X34832Y-39642D01*
X34857Y-39612D01*
X34886Y-39586D01*
X34920Y-39567D01*
X34958Y-39555D01*
X34996Y-39551D01*
X35034Y-39554D01*
X35072Y-39564D01*
X35107Y-39582D01*
X35137Y-39606D01*
X35163Y-39635D01*
X35182Y-39669D01*
X35195Y-39706D01*
X35199Y-39745D01*
X35200Y-39750D01*
X34800Y-39550D02*
X35200Y-39950D01*
X35200Y-39550D02*
X34800Y-39950D01*
X35200Y-40750D02*
X35196Y-40788D01*
X35184Y-40826D01*
X35166Y-40860D01*
X35141Y-40890D01*
X35111Y-40915D01*
X35077Y-40934D01*
X35040Y-40945D01*
X35001Y-40949D01*
X34963Y-40946D01*
X34926Y-40935D01*
X34891Y-40917D01*
X34861Y-40892D01*
X34835Y-40862D01*
X34817Y-40828D01*
X34805Y-40791D01*
X34801Y-40752D01*
X34804Y-40714D01*
X34815Y-40677D01*
X34832Y-40642D01*
X34857Y-40612D01*
X34886Y-40586D01*
X34920Y-40567D01*
X34958Y-40555D01*
X34996Y-40551D01*
X35034Y-40554D01*
X35072Y-40564D01*
X35107Y-40582D01*
X35137Y-40606D01*
X35163Y-40635D01*
X35182Y-40669D01*
X35195Y-40706D01*
X35199Y-40745D01*
X35200Y-40750D01*
X34800Y-40550D02*
X35200Y-40950D01*
X35200Y-40550D02*
X34800Y-40950D01*
X36200Y-20750D02*
X36196Y-20788D01*
X36184Y-20826D01*
X36166Y-20860D01*
X36141Y-20890D01*
X36111Y-20915D01*
X36077Y-20934D01*
X36040Y-20945D01*
X36001Y-20949D01*
X35963Y-20946D01*
X35926Y-20935D01*
X35891Y-20917D01*
X35861Y-20892D01*
X35835Y-20862D01*
X35817Y-20828D01*
X35805Y-20791D01*
X35801Y-20752D01*
X35804Y-20714D01*
X35815Y-20677D01*
X35832Y-20642D01*
X35857Y-20612D01*
X35886Y-20586D01*
X35920Y-20567D01*
X35958Y-20555D01*
X35996Y-20551D01*
X36034Y-20554D01*
X36072Y-20564D01*
X36107Y-20582D01*
X36137Y-20606D01*
X36163Y-20635D01*
X36182Y-20669D01*
X36195Y-20706D01*
X36199Y-20745D01*
X36200Y-20750D01*
X35800Y-20550D02*
X36200Y-20950D01*
X36200Y-20550D02*
X35800Y-20950D01*
X36200Y-21750D02*
X36196Y-21788D01*
X36184Y-21826D01*
X36166Y-21860D01*
X36141Y-21890D01*
X36111Y-21915D01*
X36077Y-21934D01*
X36040Y-21945D01*
X36001Y-21949D01*
X35963Y-21946D01*
X35926Y-21935D01*
X35891Y-21917D01*
X35861Y-21892D01*
X35835Y-21862D01*
X35817Y-21828D01*
X35805Y-21791D01*
X35801Y-21752D01*
X35804Y-21714D01*
X35815Y-21677D01*
X35832Y-21642D01*
X35857Y-21612D01*
X35886Y-21586D01*
X35920Y-21567D01*
X35958Y-21555D01*
X35996Y-21551D01*
X36034Y-21554D01*
X36072Y-21564D01*
X36107Y-21582D01*
X36137Y-21606D01*
X36163Y-21635D01*
X36182Y-21669D01*
X36195Y-21706D01*
X36199Y-21745D01*
X36200Y-21750D01*
X35800Y-21550D02*
X36200Y-21950D01*
X36200Y-21550D02*
X35800Y-21950D01*
X36200Y-39750D02*
X36196Y-39788D01*
X36184Y-39826D01*
X36166Y-39860D01*
X36141Y-39890D01*
X36111Y-39915D01*
X36077Y-39934D01*
X36040Y-39945D01*
X36001Y-39949D01*
X35963Y-39946D01*
X35926Y-39935D01*
X35891Y-39917D01*
X35861Y-39892D01*
X35835Y-39862D01*
X35817Y-39828D01*
X35805Y-39791D01*
X35801Y-39752D01*
X35804Y-39714D01*
X35815Y-39677D01*
X35832Y-39642D01*
X35857Y-39612D01*
X35886Y-39586D01*
X35920Y-39567D01*
X35958Y-39555D01*
X35996Y-39551D01*
X36034Y-39554D01*
X36072Y-39564D01*
X36107Y-39582D01*
X36137Y-39606D01*
X36163Y-39635D01*
X36182Y-39669D01*
X36195Y-39706D01*
X36199Y-39745D01*
X36200Y-39750D01*
X35800Y-39550D02*
X36200Y-39950D01*
X36200Y-39550D02*
X35800Y-39950D01*
X36200Y-40750D02*
X36196Y-40788D01*
X36184Y-40826D01*
X36166Y-40860D01*
X36141Y-40890D01*
X36111Y-40915D01*
X36077Y-40934D01*
X36040Y-40945D01*
X36001Y-40949D01*
X35963Y-40946D01*
X35926Y-40935D01*
X35891Y-40917D01*
X35861Y-40892D01*
X35835Y-40862D01*
X35817Y-40828D01*
X35805Y-40791D01*
X35801Y-40752D01*
X35804Y-40714D01*
X35815Y-40677D01*
X35832Y-40642D01*
X35857Y-40612D01*
X35886Y-40586D01*
X35920Y-40567D01*
X35958Y-40555D01*
X35996Y-40551D01*
X36034Y-40554D01*
X36072Y-40564D01*
X36107Y-40582D01*
X36137Y-40606D01*
X36163Y-40635D01*
X36182Y-40669D01*
X36195Y-40706D01*
X36199Y-40745D01*
X36200Y-40750D01*
X35800Y-40550D02*
X36200Y-40950D01*
X36200Y-40550D02*
X35800Y-40950D01*
X37200Y-20750D02*
X37196Y-20788D01*
X37184Y-20826D01*
X37166Y-20860D01*
X37141Y-20890D01*
X37111Y-20915D01*
X37077Y-20934D01*
X37040Y-20945D01*
X37001Y-20949D01*
X36963Y-20946D01*
X36926Y-20935D01*
X36891Y-20917D01*
X36861Y-20892D01*
X36835Y-20862D01*
X36817Y-20828D01*
X36805Y-20791D01*
X36801Y-20752D01*
X36804Y-20714D01*
X36815Y-20677D01*
X36832Y-20642D01*
X36857Y-20612D01*
X36886Y-20586D01*
X36920Y-20567D01*
X36958Y-20555D01*
X36996Y-20551D01*
X37034Y-20554D01*
X37072Y-20564D01*
X37107Y-20582D01*
X37137Y-20606D01*
X37163Y-20635D01*
X37182Y-20669D01*
X37195Y-20706D01*
X37199Y-20745D01*
X37200Y-20750D01*
X36800Y-20550D02*
X37200Y-20950D01*
X37200Y-20550D02*
X36800Y-20950D01*
X37200Y-21750D02*
X37196Y-21788D01*
X37184Y-21826D01*
X37166Y-21860D01*
X37141Y-21890D01*
X37111Y-21915D01*
X37077Y-21934D01*
X37040Y-21945D01*
X37001Y-21949D01*
X36963Y-21946D01*
X36926Y-21935D01*
X36891Y-21917D01*
X36861Y-21892D01*
X36835Y-21862D01*
X36817Y-21828D01*
X36805Y-21791D01*
X36801Y-21752D01*
X36804Y-21714D01*
X36815Y-21677D01*
X36832Y-21642D01*
X36857Y-21612D01*
X36886Y-21586D01*
X36920Y-21567D01*
X36958Y-21555D01*
X36996Y-21551D01*
X37034Y-21554D01*
X37072Y-21564D01*
X37107Y-21582D01*
X37137Y-21606D01*
X37163Y-21635D01*
X37182Y-21669D01*
X37195Y-21706D01*
X37199Y-21745D01*
X37200Y-21750D01*
X36800Y-21550D02*
X37200Y-21950D01*
X37200Y-21550D02*
X36800Y-21950D01*
X37200Y-39750D02*
X37196Y-39788D01*
X37184Y-39826D01*
X37166Y-39860D01*
X37141Y-39890D01*
X37111Y-39915D01*
X37077Y-39934D01*
X37040Y-39945D01*
X37001Y-39949D01*
X36963Y-39946D01*
X36926Y-39935D01*
X36891Y-39917D01*
X36861Y-39892D01*
X36835Y-39862D01*
X36817Y-39828D01*
X36805Y-39791D01*
X36801Y-39752D01*
X36804Y-39714D01*
X36815Y-39677D01*
X36832Y-39642D01*
X36857Y-39612D01*
X36886Y-39586D01*
X36920Y-39567D01*
X36958Y-39555D01*
X36996Y-39551D01*
X37034Y-39554D01*
X37072Y-39564D01*
X37107Y-39582D01*
X37137Y-39606D01*
X37163Y-39635D01*
X37182Y-39669D01*
X37195Y-39706D01*
X37199Y-39745D01*
X37200Y-39750D01*
X36800Y-39550D02*
X37200Y-39950D01*
X37200Y-39550D02*
X36800Y-39950D01*
X37200Y-40750D02*
X37196Y-40788D01*
X37184Y-40826D01*
X37166Y-40860D01*
X37141Y-40890D01*
X37111Y-40915D01*
X37077Y-40934D01*
X37040Y-40945D01*
X37001Y-40949D01*
X36963Y-40946D01*
X36926Y-40935D01*
X36891Y-40917D01*
X36861Y-40892D01*
X36835Y-40862D01*
X36817Y-40828D01*
X36805Y-40791D01*
X36801Y-40752D01*
X36804Y-40714D01*
X36815Y-40677D01*
X36832Y-40642D01*
X36857Y-40612D01*
X36886Y-40586D01*
X36920Y-40567D01*
X36958Y-40555D01*
X36996Y-40551D01*
X37034Y-40554D01*
X37072Y-40564D01*
X37107Y-40582D01*
X37137Y-40606D01*
X37163Y-40635D01*
X37182Y-40669D01*
X37195Y-40706D01*
X37199Y-40745D01*
X37200Y-40750D01*
X36800Y-40550D02*
X37200Y-40950D01*
X37200Y-40550D02*
X36800Y-40950D01*
X38200Y-20750D02*
X38196Y-20788D01*
X38184Y-20826D01*
X38166Y-20860D01*
X38141Y-20890D01*
X38111Y-20915D01*
X38077Y-20934D01*
X38040Y-20945D01*
X38001Y-20949D01*
X37963Y-20946D01*
X37926Y-20935D01*
X37891Y-20917D01*
X37861Y-20892D01*
X37835Y-20862D01*
X37817Y-20828D01*
X37805Y-20791D01*
X37801Y-20752D01*
X37804Y-20714D01*
X37815Y-20677D01*
X37832Y-20642D01*
X37857Y-20612D01*
X37886Y-20586D01*
X37920Y-20567D01*
X37958Y-20555D01*
X37996Y-20551D01*
X38034Y-20554D01*
X38072Y-20564D01*
X38107Y-20582D01*
X38137Y-20606D01*
X38163Y-20635D01*
X38182Y-20669D01*
X38195Y-20706D01*
X38199Y-20745D01*
X38200Y-20750D01*
X37800Y-20550D02*
X38200Y-20950D01*
X38200Y-20550D02*
X37800Y-20950D01*
X38200Y-21750D02*
X38196Y-21788D01*
X38184Y-21826D01*
X38166Y-21860D01*
X38141Y-21890D01*
X38111Y-21915D01*
X38077Y-21934D01*
X38040Y-21945D01*
X38001Y-21949D01*
X37963Y-21946D01*
X37926Y-21935D01*
X37891Y-21917D01*
X37861Y-21892D01*
X37835Y-21862D01*
X37817Y-21828D01*
X37805Y-21791D01*
X37801Y-21752D01*
X37804Y-21714D01*
X37815Y-21677D01*
X37832Y-21642D01*
X37857Y-21612D01*
X37886Y-21586D01*
X37920Y-21567D01*
X37958Y-21555D01*
X37996Y-21551D01*
X38034Y-21554D01*
X38072Y-21564D01*
X38107Y-21582D01*
X38137Y-21606D01*
X38163Y-21635D01*
X38182Y-21669D01*
X38195Y-21706D01*
X38199Y-21745D01*
X38200Y-21750D01*
X37800Y-21550D02*
X38200Y-21950D01*
X38200Y-21550D02*
X37800Y-21950D01*
X38200Y-39750D02*
X38196Y-39788D01*
X38184Y-39826D01*
X38166Y-39860D01*
X38141Y-39890D01*
X38111Y-39915D01*
X38077Y-39934D01*
X38040Y-39945D01*
X38001Y-39949D01*
X37963Y-39946D01*
X37926Y-39935D01*
X37891Y-39917D01*
X37861Y-39892D01*
X37835Y-39862D01*
X37817Y-39828D01*
X37805Y-39791D01*
X37801Y-39752D01*
X37804Y-39714D01*
X37815Y-39677D01*
X37832Y-39642D01*
X37857Y-39612D01*
X37886Y-39586D01*
X37920Y-39567D01*
X37958Y-39555D01*
X37996Y-39551D01*
X38034Y-39554D01*
X38072Y-39564D01*
X38107Y-39582D01*
X38137Y-39606D01*
X38163Y-39635D01*
X38182Y-39669D01*
X38195Y-39706D01*
X38199Y-39745D01*
X38200Y-39750D01*
X37800Y-39550D02*
X38200Y-39950D01*
X38200Y-39550D02*
X37800Y-39950D01*
X38200Y-40750D02*
X38196Y-40788D01*
X38184Y-40826D01*
X38166Y-40860D01*
X38141Y-40890D01*
X38111Y-40915D01*
X38077Y-40934D01*
X38040Y-40945D01*
X38001Y-40949D01*
X37963Y-40946D01*
X37926Y-40935D01*
X37891Y-40917D01*
X37861Y-40892D01*
X37835Y-40862D01*
X37817Y-40828D01*
X37805Y-40791D01*
X37801Y-40752D01*
X37804Y-40714D01*
X37815Y-40677D01*
X37832Y-40642D01*
X37857Y-40612D01*
X37886Y-40586D01*
X37920Y-40567D01*
X37958Y-40555D01*
X37996Y-40551D01*
X38034Y-40554D01*
X38072Y-40564D01*
X38107Y-40582D01*
X38137Y-40606D01*
X38163Y-40635D01*
X38182Y-40669D01*
X38195Y-40706D01*
X38199Y-40745D01*
X38200Y-40750D01*
X37800Y-40550D02*
X38200Y-40950D01*
X38200Y-40550D02*
X37800Y-40950D01*
X39200Y-20750D02*
X39196Y-20788D01*
X39184Y-20826D01*
X39166Y-20860D01*
X39141Y-20890D01*
X39111Y-20915D01*
X39077Y-20934D01*
X39040Y-20945D01*
X39001Y-20949D01*
X38963Y-20946D01*
X38926Y-20935D01*
X38891Y-20917D01*
X38861Y-20892D01*
X38835Y-20862D01*
X38817Y-20828D01*
X38805Y-20791D01*
X38801Y-20752D01*
X38804Y-20714D01*
X38815Y-20677D01*
X38832Y-20642D01*
X38857Y-20612D01*
X38886Y-20586D01*
X38920Y-20567D01*
X38958Y-20555D01*
X38996Y-20551D01*
X39034Y-20554D01*
X39072Y-20564D01*
X39107Y-20582D01*
X39137Y-20606D01*
X39163Y-20635D01*
X39182Y-20669D01*
X39195Y-20706D01*
X39199Y-20745D01*
X39200Y-20750D01*
X38800Y-20550D02*
X39200Y-20950D01*
X39200Y-20550D02*
X38800Y-20950D01*
X39200Y-21750D02*
X39196Y-21788D01*
X39184Y-21826D01*
X39166Y-21860D01*
X39141Y-21890D01*
X39111Y-21915D01*
X39077Y-21934D01*
X39040Y-21945D01*
X39001Y-21949D01*
X38963Y-21946D01*
X38926Y-21935D01*
X38891Y-21917D01*
X38861Y-21892D01*
X38835Y-21862D01*
X38817Y-21828D01*
X38805Y-21791D01*
X38801Y-21752D01*
X38804Y-21714D01*
X38815Y-21677D01*
X38832Y-21642D01*
X38857Y-21612D01*
X38886Y-21586D01*
X38920Y-21567D01*
X38958Y-21555D01*
X38996Y-21551D01*
X39034Y-21554D01*
X39072Y-21564D01*
X39107Y-21582D01*
X39137Y-21606D01*
X39163Y-21635D01*
X39182Y-21669D01*
X39195Y-21706D01*
X39199Y-21745D01*
X39200Y-21750D01*
X38800Y-21550D02*
X39200Y-21950D01*
X39200Y-21550D02*
X38800Y-21950D01*
X39200Y-39750D02*
X39196Y-39788D01*
X39184Y-39826D01*
X39166Y-39860D01*
X39141Y-39890D01*
X39111Y-39915D01*
X39077Y-39934D01*
X39040Y-39945D01*
X39001Y-39949D01*
X38963Y-39946D01*
X38926Y-39935D01*
X38891Y-39917D01*
X38861Y-39892D01*
X38835Y-39862D01*
X38817Y-39828D01*
X38805Y-39791D01*
X38801Y-39752D01*
X38804Y-39714D01*
X38815Y-39677D01*
X38832Y-39642D01*
X38857Y-39612D01*
X38886Y-39586D01*
X38920Y-39567D01*
X38958Y-39555D01*
X38996Y-39551D01*
X39034Y-39554D01*
X39072Y-39564D01*
X39107Y-39582D01*
X39137Y-39606D01*
X39163Y-39635D01*
X39182Y-39669D01*
X39195Y-39706D01*
X39199Y-39745D01*
X39200Y-39750D01*
X38800Y-39550D02*
X39200Y-39950D01*
X39200Y-39550D02*
X38800Y-39950D01*
X39200Y-40750D02*
X39196Y-40788D01*
X39184Y-40826D01*
X39166Y-40860D01*
X39141Y-40890D01*
X39111Y-40915D01*
X39077Y-40934D01*
X39040Y-40945D01*
X39001Y-40949D01*
X38963Y-40946D01*
X38926Y-40935D01*
X38891Y-40917D01*
X38861Y-40892D01*
X38835Y-40862D01*
X38817Y-40828D01*
X38805Y-40791D01*
X38801Y-40752D01*
X38804Y-40714D01*
X38815Y-40677D01*
X38832Y-40642D01*
X38857Y-40612D01*
X38886Y-40586D01*
X38920Y-40567D01*
X38958Y-40555D01*
X38996Y-40551D01*
X39034Y-40554D01*
X39072Y-40564D01*
X39107Y-40582D01*
X39137Y-40606D01*
X39163Y-40635D01*
X39182Y-40669D01*
X39195Y-40706D01*
X39199Y-40745D01*
X39200Y-40750D01*
X38800Y-40550D02*
X39200Y-40950D01*
X39200Y-40550D02*
X38800Y-40950D01*
X40200Y-20750D02*
X40196Y-20788D01*
X40184Y-20826D01*
X40166Y-20860D01*
X40141Y-20890D01*
X40111Y-20915D01*
X40077Y-20934D01*
X40040Y-20945D01*
X40001Y-20949D01*
X39963Y-20946D01*
X39926Y-20935D01*
X39891Y-20917D01*
X39861Y-20892D01*
X39835Y-20862D01*
X39817Y-20828D01*
X39805Y-20791D01*
X39801Y-20752D01*
X39804Y-20714D01*
X39815Y-20677D01*
X39832Y-20642D01*
X39857Y-20612D01*
X39886Y-20586D01*
X39920Y-20567D01*
X39958Y-20555D01*
X39996Y-20551D01*
X40034Y-20554D01*
X40072Y-20564D01*
X40107Y-20582D01*
X40137Y-20606D01*
X40163Y-20635D01*
X40182Y-20669D01*
X40195Y-20706D01*
X40199Y-20745D01*
X40200Y-20750D01*
X39800Y-20550D02*
X40200Y-20950D01*
X40200Y-20550D02*
X39800Y-20950D01*
X40200Y-21750D02*
X40196Y-21788D01*
X40184Y-21826D01*
X40166Y-21860D01*
X40141Y-21890D01*
X40111Y-21915D01*
X40077Y-21934D01*
X40040Y-21945D01*
X40001Y-21949D01*
X39963Y-21946D01*
X39926Y-21935D01*
X39891Y-21917D01*
X39861Y-21892D01*
X39835Y-21862D01*
X39817Y-21828D01*
X39805Y-21791D01*
X39801Y-21752D01*
X39804Y-21714D01*
X39815Y-21677D01*
X39832Y-21642D01*
X39857Y-21612D01*
X39886Y-21586D01*
X39920Y-21567D01*
X39958Y-21555D01*
X39996Y-21551D01*
X40034Y-21554D01*
X40072Y-21564D01*
X40107Y-21582D01*
X40137Y-21606D01*
X40163Y-21635D01*
X40182Y-21669D01*
X40195Y-21706D01*
X40199Y-21745D01*
X40200Y-21750D01*
X39800Y-21550D02*
X40200Y-21950D01*
X40200Y-21550D02*
X39800Y-21950D01*
X40200Y-39750D02*
X40196Y-39788D01*
X40184Y-39826D01*
X40166Y-39860D01*
X40141Y-39890D01*
X40111Y-39915D01*
X40077Y-39934D01*
X40040Y-39945D01*
X40001Y-39949D01*
X39963Y-39946D01*
X39926Y-39935D01*
X39891Y-39917D01*
X39861Y-39892D01*
X39835Y-39862D01*
X39817Y-39828D01*
X39805Y-39791D01*
X39801Y-39752D01*
X39804Y-39714D01*
X39815Y-39677D01*
X39832Y-39642D01*
X39857Y-39612D01*
X39886Y-39586D01*
X39920Y-39567D01*
X39958Y-39555D01*
X39996Y-39551D01*
X40034Y-39554D01*
X40072Y-39564D01*
X40107Y-39582D01*
X40137Y-39606D01*
X40163Y-39635D01*
X40182Y-39669D01*
X40195Y-39706D01*
X40199Y-39745D01*
X40200Y-39750D01*
X39800Y-39550D02*
X40200Y-39950D01*
X40200Y-39550D02*
X39800Y-39950D01*
X40200Y-40750D02*
X40196Y-40788D01*
X40184Y-40826D01*
X40166Y-40860D01*
X40141Y-40890D01*
X40111Y-40915D01*
X40077Y-40934D01*
X40040Y-40945D01*
X40001Y-40949D01*
X39963Y-40946D01*
X39926Y-40935D01*
X39891Y-40917D01*
X39861Y-40892D01*
X39835Y-40862D01*
X39817Y-40828D01*
X39805Y-40791D01*
X39801Y-40752D01*
X39804Y-40714D01*
X39815Y-40677D01*
X39832Y-40642D01*
X39857Y-40612D01*
X39886Y-40586D01*
X39920Y-40567D01*
X39958Y-40555D01*
X39996Y-40551D01*
X40034Y-40554D01*
X40072Y-40564D01*
X40107Y-40582D01*
X40137Y-40606D01*
X40163Y-40635D01*
X40182Y-40669D01*
X40195Y-40706D01*
X40199Y-40745D01*
X40200Y-40750D01*
X39800Y-40550D02*
X40200Y-40950D01*
X40200Y-40550D02*
X39800Y-40950D01*
X41200Y-20750D02*
X41196Y-20788D01*
X41184Y-20826D01*
X41166Y-20860D01*
X41141Y-20890D01*
X41111Y-20915D01*
X41077Y-20934D01*
X41040Y-20945D01*
X41001Y-20949D01*
X40963Y-20946D01*
X40926Y-20935D01*
X40891Y-20917D01*
X40861Y-20892D01*
X40835Y-20862D01*
X40817Y-20828D01*
X40805Y-20791D01*
X40801Y-20752D01*
X40804Y-20714D01*
X40815Y-20677D01*
X40832Y-20642D01*
X40857Y-20612D01*
X40886Y-20586D01*
X40920Y-20567D01*
X40958Y-20555D01*
X40996Y-20551D01*
X41034Y-20554D01*
X41072Y-20564D01*
X41107Y-20582D01*
X41137Y-20606D01*
X41163Y-20635D01*
X41182Y-20669D01*
X41195Y-20706D01*
X41199Y-20745D01*
X41200Y-20750D01*
X40800Y-20550D02*
X41200Y-20950D01*
X41200Y-20550D02*
X40800Y-20950D01*
X41200Y-21750D02*
X41196Y-21788D01*
X41184Y-21826D01*
X41166Y-21860D01*
X41141Y-21890D01*
X41111Y-21915D01*
X41077Y-21934D01*
X41040Y-21945D01*
X41001Y-21949D01*
X40963Y-21946D01*
X40926Y-21935D01*
X40891Y-21917D01*
X40861Y-21892D01*
X40835Y-21862D01*
X40817Y-21828D01*
X40805Y-21791D01*
X40801Y-21752D01*
X40804Y-21714D01*
X40815Y-21677D01*
X40832Y-21642D01*
X40857Y-21612D01*
X40886Y-21586D01*
X40920Y-21567D01*
X40958Y-21555D01*
X40996Y-21551D01*
X41034Y-21554D01*
X41072Y-21564D01*
X41107Y-21582D01*
X41137Y-21606D01*
X41163Y-21635D01*
X41182Y-21669D01*
X41195Y-21706D01*
X41199Y-21745D01*
X41200Y-21750D01*
X40800Y-21550D02*
X41200Y-21950D01*
X41200Y-21550D02*
X40800Y-21950D01*
X41200Y-39750D02*
X41196Y-39788D01*
X41184Y-39826D01*
X41166Y-39860D01*
X41141Y-39890D01*
X41111Y-39915D01*
X41077Y-39934D01*
X41040Y-39945D01*
X41001Y-39949D01*
X40963Y-39946D01*
X40926Y-39935D01*
X40891Y-39917D01*
X40861Y-39892D01*
X40835Y-39862D01*
X40817Y-39828D01*
X40805Y-39791D01*
X40801Y-39752D01*
X40804Y-39714D01*
X40815Y-39677D01*
X40832Y-39642D01*
X40857Y-39612D01*
X40886Y-39586D01*
X40920Y-39567D01*
X40958Y-39555D01*
X40996Y-39551D01*
X41034Y-39554D01*
X41072Y-39564D01*
X41107Y-39582D01*
X41137Y-39606D01*
X41163Y-39635D01*
X41182Y-39669D01*
X41195Y-39706D01*
X41199Y-39745D01*
X41200Y-39750D01*
X40800Y-39550D02*
X41200Y-39950D01*
X41200Y-39550D02*
X40800Y-39950D01*
X41200Y-40750D02*
X41196Y-40788D01*
X41184Y-40826D01*
X41166Y-40860D01*
X41141Y-40890D01*
X41111Y-40915D01*
X41077Y-40934D01*
X41040Y-40945D01*
X41001Y-40949D01*
X40963Y-40946D01*
X40926Y-40935D01*
X40891Y-40917D01*
X40861Y-40892D01*
X40835Y-40862D01*
X40817Y-40828D01*
X40805Y-40791D01*
X40801Y-40752D01*
X40804Y-40714D01*
X40815Y-40677D01*
X40832Y-40642D01*
X40857Y-40612D01*
X40886Y-40586D01*
X40920Y-40567D01*
X40958Y-40555D01*
X40996Y-40551D01*
X41034Y-40554D01*
X41072Y-40564D01*
X41107Y-40582D01*
X41137Y-40606D01*
X41163Y-40635D01*
X41182Y-40669D01*
X41195Y-40706D01*
X41199Y-40745D01*
X41200Y-40750D01*
X40800Y-40550D02*
X41200Y-40950D01*
X41200Y-40550D02*
X40800Y-40950D01*
X42200Y-20750D02*
X42196Y-20788D01*
X42184Y-20826D01*
X42166Y-20860D01*
X42141Y-20890D01*
X42111Y-20915D01*
X42077Y-20934D01*
X42040Y-20945D01*
X42001Y-20949D01*
X41963Y-20946D01*
X41926Y-20935D01*
X41891Y-20917D01*
X41861Y-20892D01*
X41835Y-20862D01*
X41817Y-20828D01*
X41805Y-20791D01*
X41801Y-20752D01*
X41804Y-20714D01*
X41815Y-20677D01*
X41832Y-20642D01*
X41857Y-20612D01*
X41886Y-20586D01*
X41920Y-20567D01*
X41958Y-20555D01*
X41996Y-20551D01*
X42034Y-20554D01*
X42072Y-20564D01*
X42107Y-20582D01*
X42137Y-20606D01*
X42163Y-20635D01*
X42182Y-20669D01*
X42195Y-20706D01*
X42199Y-20745D01*
X42200Y-20750D01*
X41800Y-20550D02*
X42200Y-20950D01*
X42200Y-20550D02*
X41800Y-20950D01*
X42200Y-21750D02*
X42196Y-21788D01*
X42184Y-21826D01*
X42166Y-21860D01*
X42141Y-21890D01*
X42111Y-21915D01*
X42077Y-21934D01*
X42040Y-21945D01*
X42001Y-21949D01*
X41963Y-21946D01*
X41926Y-21935D01*
X41891Y-21917D01*
X41861Y-21892D01*
X41835Y-21862D01*
X41817Y-21828D01*
X41805Y-21791D01*
X41801Y-21752D01*
X41804Y-21714D01*
X41815Y-21677D01*
X41832Y-21642D01*
X41857Y-21612D01*
X41886Y-21586D01*
X41920Y-21567D01*
X41958Y-21555D01*
X41996Y-21551D01*
X42034Y-21554D01*
X42072Y-21564D01*
X42107Y-21582D01*
X42137Y-21606D01*
X42163Y-21635D01*
X42182Y-21669D01*
X42195Y-21706D01*
X42199Y-21745D01*
X42200Y-21750D01*
X41800Y-21550D02*
X42200Y-21950D01*
X42200Y-21550D02*
X41800Y-21950D01*
X42200Y-39750D02*
X42196Y-39788D01*
X42184Y-39826D01*
X42166Y-39860D01*
X42141Y-39890D01*
X42111Y-39915D01*
X42077Y-39934D01*
X42040Y-39945D01*
X42001Y-39949D01*
X41963Y-39946D01*
X41926Y-39935D01*
X41891Y-39917D01*
X41861Y-39892D01*
X41835Y-39862D01*
X41817Y-39828D01*
X41805Y-39791D01*
X41801Y-39752D01*
X41804Y-39714D01*
X41815Y-39677D01*
X41832Y-39642D01*
X41857Y-39612D01*
X41886Y-39586D01*
X41920Y-39567D01*
X41958Y-39555D01*
X41996Y-39551D01*
X42034Y-39554D01*
X42072Y-39564D01*
X42107Y-39582D01*
X42137Y-39606D01*
X42163Y-39635D01*
X42182Y-39669D01*
X42195Y-39706D01*
X42199Y-39745D01*
X42200Y-39750D01*
X41800Y-39550D02*
X42200Y-39950D01*
X42200Y-39550D02*
X41800Y-39950D01*
X42200Y-40750D02*
X42196Y-40788D01*
X42184Y-40826D01*
X42166Y-40860D01*
X42141Y-40890D01*
X42111Y-40915D01*
X42077Y-40934D01*
X42040Y-40945D01*
X42001Y-40949D01*
X41963Y-40946D01*
X41926Y-40935D01*
X41891Y-40917D01*
X41861Y-40892D01*
X41835Y-40862D01*
X41817Y-40828D01*
X41805Y-40791D01*
X41801Y-40752D01*
X41804Y-40714D01*
X41815Y-40677D01*
X41832Y-40642D01*
X41857Y-40612D01*
X41886Y-40586D01*
X41920Y-40567D01*
X41958Y-40555D01*
X41996Y-40551D01*
X42034Y-40554D01*
X42072Y-40564D01*
X42107Y-40582D01*
X42137Y-40606D01*
X42163Y-40635D01*
X42182Y-40669D01*
X42195Y-40706D01*
X42199Y-40745D01*
X42200Y-40750D01*
X41800Y-40550D02*
X42200Y-40950D01*
X42200Y-40550D02*
X41800Y-40950D01*
X43200Y-20750D02*
X43196Y-20788D01*
X43184Y-20826D01*
X43166Y-20860D01*
X43141Y-20890D01*
X43111Y-20915D01*
X43077Y-20934D01*
X43040Y-20945D01*
X43001Y-20949D01*
X42963Y-20946D01*
X42926Y-20935D01*
X42891Y-20917D01*
X42861Y-20892D01*
X42835Y-20862D01*
X42817Y-20828D01*
X42805Y-20791D01*
X42801Y-20752D01*
X42804Y-20714D01*
X42815Y-20677D01*
X42832Y-20642D01*
X42857Y-20612D01*
X42886Y-20586D01*
X42920Y-20567D01*
X42958Y-20555D01*
X42996Y-20551D01*
X43034Y-20554D01*
X43072Y-20564D01*
X43107Y-20582D01*
X43137Y-20606D01*
X43163Y-20635D01*
X43182Y-20669D01*
X43195Y-20706D01*
X43199Y-20745D01*
X43200Y-20750D01*
X42800Y-20550D02*
X43200Y-20950D01*
X43200Y-20550D02*
X42800Y-20950D01*
X43200Y-21750D02*
X43196Y-21788D01*
X43184Y-21826D01*
X43166Y-21860D01*
X43141Y-21890D01*
X43111Y-21915D01*
X43077Y-21934D01*
X43040Y-21945D01*
X43001Y-21949D01*
X42963Y-21946D01*
X42926Y-21935D01*
X42891Y-21917D01*
X42861Y-21892D01*
X42835Y-21862D01*
X42817Y-21828D01*
X42805Y-21791D01*
X42801Y-21752D01*
X42804Y-21714D01*
X42815Y-21677D01*
X42832Y-21642D01*
X42857Y-21612D01*
X42886Y-21586D01*
X42920Y-21567D01*
X42958Y-21555D01*
X42996Y-21551D01*
X43034Y-21554D01*
X43072Y-21564D01*
X43107Y-21582D01*
X43137Y-21606D01*
X43163Y-21635D01*
X43182Y-21669D01*
X43195Y-21706D01*
X43199Y-21745D01*
X43200Y-21750D01*
X42800Y-21550D02*
X43200Y-21950D01*
X43200Y-21550D02*
X42800Y-21950D01*
X43200Y-39750D02*
X43196Y-39788D01*
X43184Y-39826D01*
X43166Y-39860D01*
X43141Y-39890D01*
X43111Y-39915D01*
X43077Y-39934D01*
X43040Y-39945D01*
X43001Y-39949D01*
X42963Y-39946D01*
X42926Y-39935D01*
X42891Y-39917D01*
X42861Y-39892D01*
X42835Y-39862D01*
X42817Y-39828D01*
X42805Y-39791D01*
X42801Y-39752D01*
X42804Y-39714D01*
X42815Y-39677D01*
X42832Y-39642D01*
X42857Y-39612D01*
X42886Y-39586D01*
X42920Y-39567D01*
X42958Y-39555D01*
X42996Y-39551D01*
X43034Y-39554D01*
X43072Y-39564D01*
X43107Y-39582D01*
X43137Y-39606D01*
X43163Y-39635D01*
X43182Y-39669D01*
X43195Y-39706D01*
X43199Y-39745D01*
X43200Y-39750D01*
X42800Y-39550D02*
X43200Y-39950D01*
X43200Y-39550D02*
X42800Y-39950D01*
X43200Y-40750D02*
X43196Y-40788D01*
X43184Y-40826D01*
X43166Y-40860D01*
X43141Y-40890D01*
X43111Y-40915D01*
X43077Y-40934D01*
X43040Y-40945D01*
X43001Y-40949D01*
X42963Y-40946D01*
X42926Y-40935D01*
X42891Y-40917D01*
X42861Y-40892D01*
X42835Y-40862D01*
X42817Y-40828D01*
X42805Y-40791D01*
X42801Y-40752D01*
X42804Y-40714D01*
X42815Y-40677D01*
X42832Y-40642D01*
X42857Y-40612D01*
X42886Y-40586D01*
X42920Y-40567D01*
X42958Y-40555D01*
X42996Y-40551D01*
X43034Y-40554D01*
X43072Y-40564D01*
X43107Y-40582D01*
X43137Y-40606D01*
X43163Y-40635D01*
X43182Y-40669D01*
X43195Y-40706D01*
X43199Y-40745D01*
X43200Y-40750D01*
X42800Y-40550D02*
X43200Y-40950D01*
X43200Y-40550D02*
X42800Y-40950D01*
X44200Y-20750D02*
X44196Y-20788D01*
X44184Y-20826D01*
X44166Y-20860D01*
X44141Y-20890D01*
X44111Y-20915D01*
X44077Y-20934D01*
X44040Y-20945D01*
X44001Y-20949D01*
X43963Y-20946D01*
X43926Y-20935D01*
X43891Y-20917D01*
X43861Y-20892D01*
X43835Y-20862D01*
X43817Y-20828D01*
X43805Y-20791D01*
X43801Y-20752D01*
X43804Y-20714D01*
X43815Y-20677D01*
X43832Y-20642D01*
X43857Y-20612D01*
X43886Y-20586D01*
X43920Y-20567D01*
X43958Y-20555D01*
X43996Y-20551D01*
X44034Y-20554D01*
X44072Y-20564D01*
X44107Y-20582D01*
X44137Y-20606D01*
X44163Y-20635D01*
X44182Y-20669D01*
X44195Y-20706D01*
X44199Y-20745D01*
X44200Y-20750D01*
X43800Y-20550D02*
X44200Y-20950D01*
X44200Y-20550D02*
X43800Y-20950D01*
X44200Y-21750D02*
X44196Y-21788D01*
X44184Y-21826D01*
X44166Y-21860D01*
X44141Y-21890D01*
X44111Y-21915D01*
X44077Y-21934D01*
X44040Y-21945D01*
X44001Y-21949D01*
X43963Y-21946D01*
X43926Y-21935D01*
X43891Y-21917D01*
X43861Y-21892D01*
X43835Y-21862D01*
X43817Y-21828D01*
X43805Y-21791D01*
X43801Y-21752D01*
X43804Y-21714D01*
X43815Y-21677D01*
X43832Y-21642D01*
X43857Y-21612D01*
X43886Y-21586D01*
X43920Y-21567D01*
X43958Y-21555D01*
X43996Y-21551D01*
X44034Y-21554D01*
X44072Y-21564D01*
X44107Y-21582D01*
X44137Y-21606D01*
X44163Y-21635D01*
X44182Y-21669D01*
X44195Y-21706D01*
X44199Y-21745D01*
X44200Y-21750D01*
X43800Y-21550D02*
X44200Y-21950D01*
X44200Y-21550D02*
X43800Y-21950D01*
X44200Y-39750D02*
X44196Y-39788D01*
X44184Y-39826D01*
X44166Y-39860D01*
X44141Y-39890D01*
X44111Y-39915D01*
X44077Y-39934D01*
X44040Y-39945D01*
X44001Y-39949D01*
X43963Y-39946D01*
X43926Y-39935D01*
X43891Y-39917D01*
X43861Y-39892D01*
X43835Y-39862D01*
X43817Y-39828D01*
X43805Y-39791D01*
X43801Y-39752D01*
X43804Y-39714D01*
X43815Y-39677D01*
X43832Y-39642D01*
X43857Y-39612D01*
X43886Y-39586D01*
X43920Y-39567D01*
X43958Y-39555D01*
X43996Y-39551D01*
X44034Y-39554D01*
X44072Y-39564D01*
X44107Y-39582D01*
X44137Y-39606D01*
X44163Y-39635D01*
X44182Y-39669D01*
X44195Y-39706D01*
X44199Y-39745D01*
X44200Y-39750D01*
X43800Y-39550D02*
X44200Y-39950D01*
X44200Y-39550D02*
X43800Y-39950D01*
X44200Y-40750D02*
X44196Y-40788D01*
X44184Y-40826D01*
X44166Y-40860D01*
X44141Y-40890D01*
X44111Y-40915D01*
X44077Y-40934D01*
X44040Y-40945D01*
X44001Y-40949D01*
X43963Y-40946D01*
X43926Y-40935D01*
X43891Y-40917D01*
X43861Y-40892D01*
X43835Y-40862D01*
X43817Y-40828D01*
X43805Y-40791D01*
X43801Y-40752D01*
X43804Y-40714D01*
X43815Y-40677D01*
X43832Y-40642D01*
X43857Y-40612D01*
X43886Y-40586D01*
X43920Y-40567D01*
X43958Y-40555D01*
X43996Y-40551D01*
X44034Y-40554D01*
X44072Y-40564D01*
X44107Y-40582D01*
X44137Y-40606D01*
X44163Y-40635D01*
X44182Y-40669D01*
X44195Y-40706D01*
X44199Y-40745D01*
X44200Y-40750D01*
X43800Y-40550D02*
X44200Y-40950D01*
X44200Y-40550D02*
X43800Y-40950D01*
X45200Y-20750D02*
X45196Y-20788D01*
X45184Y-20826D01*
X45166Y-20860D01*
X45141Y-20890D01*
X45111Y-20915D01*
X45077Y-20934D01*
X45040Y-20945D01*
X45001Y-20949D01*
X44963Y-20946D01*
X44926Y-20935D01*
X44891Y-20917D01*
X44861Y-20892D01*
X44835Y-20862D01*
X44817Y-20828D01*
X44805Y-20791D01*
X44801Y-20752D01*
X44804Y-20714D01*
X44815Y-20677D01*
X44832Y-20642D01*
X44857Y-20612D01*
X44886Y-20586D01*
X44920Y-20567D01*
X44958Y-20555D01*
X44996Y-20551D01*
X45034Y-20554D01*
X45072Y-20564D01*
X45107Y-20582D01*
X45137Y-20606D01*
X45163Y-20635D01*
X45182Y-20669D01*
X45195Y-20706D01*
X45199Y-20745D01*
X45200Y-20750D01*
X44800Y-20550D02*
X45200Y-20950D01*
X45200Y-20550D02*
X44800Y-20950D01*
X45200Y-21750D02*
X45196Y-21788D01*
X45184Y-21826D01*
X45166Y-21860D01*
X45141Y-21890D01*
X45111Y-21915D01*
X45077Y-21934D01*
X45040Y-21945D01*
X45001Y-21949D01*
X44963Y-21946D01*
X44926Y-21935D01*
X44891Y-21917D01*
X44861Y-21892D01*
X44835Y-21862D01*
X44817Y-21828D01*
X44805Y-21791D01*
X44801Y-21752D01*
X44804Y-21714D01*
X44815Y-21677D01*
X44832Y-21642D01*
X44857Y-21612D01*
X44886Y-21586D01*
X44920Y-21567D01*
X44958Y-21555D01*
X44996Y-21551D01*
X45034Y-21554D01*
X45072Y-21564D01*
X45107Y-21582D01*
X45137Y-21606D01*
X45163Y-21635D01*
X45182Y-21669D01*
X45195Y-21706D01*
X45199Y-21745D01*
X45200Y-21750D01*
X44800Y-21550D02*
X45200Y-21950D01*
X45200Y-21550D02*
X44800Y-21950D01*
X45200Y-39750D02*
X45196Y-39788D01*
X45184Y-39826D01*
X45166Y-39860D01*
X45141Y-39890D01*
X45111Y-39915D01*
X45077Y-39934D01*
X45040Y-39945D01*
X45001Y-39949D01*
X44963Y-39946D01*
X44926Y-39935D01*
X44891Y-39917D01*
X44861Y-39892D01*
X44835Y-39862D01*
X44817Y-39828D01*
X44805Y-39791D01*
X44801Y-39752D01*
X44804Y-39714D01*
X44815Y-39677D01*
X44832Y-39642D01*
X44857Y-39612D01*
X44886Y-39586D01*
X44920Y-39567D01*
X44958Y-39555D01*
X44996Y-39551D01*
X45034Y-39554D01*
X45072Y-39564D01*
X45107Y-39582D01*
X45137Y-39606D01*
X45163Y-39635D01*
X45182Y-39669D01*
X45195Y-39706D01*
X45199Y-39745D01*
X45200Y-39750D01*
X44800Y-39550D02*
X45200Y-39950D01*
X45200Y-39550D02*
X44800Y-39950D01*
X45200Y-40750D02*
X45196Y-40788D01*
X45184Y-40826D01*
X45166Y-40860D01*
X45141Y-40890D01*
X45111Y-40915D01*
X45077Y-40934D01*
X45040Y-40945D01*
X45001Y-40949D01*
X44963Y-40946D01*
X44926Y-40935D01*
X44891Y-40917D01*
X44861Y-40892D01*
X44835Y-40862D01*
X44817Y-40828D01*
X44805Y-40791D01*
X44801Y-40752D01*
X44804Y-40714D01*
X44815Y-40677D01*
X44832Y-40642D01*
X44857Y-40612D01*
X44886Y-40586D01*
X44920Y-40567D01*
X44958Y-40555D01*
X44996Y-40551D01*
X45034Y-40554D01*
X45072Y-40564D01*
X45107Y-40582D01*
X45137Y-40606D01*
X45163Y-40635D01*
X45182Y-40669D01*
X45195Y-40706D01*
X45199Y-40745D01*
X45200Y-40750D01*
X44800Y-40550D02*
X45200Y-40950D01*
X45200Y-40550D02*
X44800Y-40950D01*
X46200Y-20750D02*
X46196Y-20788D01*
X46184Y-20826D01*
X46166Y-20860D01*
X46141Y-20890D01*
X46111Y-20915D01*
X46077Y-20934D01*
X46040Y-20945D01*
X46001Y-20949D01*
X45963Y-20946D01*
X45926Y-20935D01*
X45891Y-20917D01*
X45861Y-20892D01*
X45835Y-20862D01*
X45817Y-20828D01*
X45805Y-20791D01*
X45801Y-20752D01*
X45804Y-20714D01*
X45815Y-20677D01*
X45832Y-20642D01*
X45857Y-20612D01*
X45886Y-20586D01*
X45920Y-20567D01*
X45958Y-20555D01*
X45996Y-20551D01*
X46034Y-20554D01*
X46072Y-20564D01*
X46107Y-20582D01*
X46137Y-20606D01*
X46163Y-20635D01*
X46182Y-20669D01*
X46195Y-20706D01*
X46199Y-20745D01*
X46200Y-20750D01*
X45800Y-20550D02*
X46200Y-20950D01*
X46200Y-20550D02*
X45800Y-20950D01*
X46200Y-21750D02*
X46196Y-21788D01*
X46184Y-21826D01*
X46166Y-21860D01*
X46141Y-21890D01*
X46111Y-21915D01*
X46077Y-21934D01*
X46040Y-21945D01*
X46001Y-21949D01*
X45963Y-21946D01*
X45926Y-21935D01*
X45891Y-21917D01*
X45861Y-21892D01*
X45835Y-21862D01*
X45817Y-21828D01*
X45805Y-21791D01*
X45801Y-21752D01*
X45804Y-21714D01*
X45815Y-21677D01*
X45832Y-21642D01*
X45857Y-21612D01*
X45886Y-21586D01*
X45920Y-21567D01*
X45958Y-21555D01*
X45996Y-21551D01*
X46034Y-21554D01*
X46072Y-21564D01*
X46107Y-21582D01*
X46137Y-21606D01*
X46163Y-21635D01*
X46182Y-21669D01*
X46195Y-21706D01*
X46199Y-21745D01*
X46200Y-21750D01*
X45800Y-21550D02*
X46200Y-21950D01*
X46200Y-21550D02*
X45800Y-21950D01*
X46200Y-39750D02*
X46196Y-39788D01*
X46184Y-39826D01*
X46166Y-39860D01*
X46141Y-39890D01*
X46111Y-39915D01*
X46077Y-39934D01*
X46040Y-39945D01*
X46001Y-39949D01*
X45963Y-39946D01*
X45926Y-39935D01*
X45891Y-39917D01*
X45861Y-39892D01*
X45835Y-39862D01*
X45817Y-39828D01*
X45805Y-39791D01*
X45801Y-39752D01*
X45804Y-39714D01*
X45815Y-39677D01*
X45832Y-39642D01*
X45857Y-39612D01*
X45886Y-39586D01*
X45920Y-39567D01*
X45958Y-39555D01*
X45996Y-39551D01*
X46034Y-39554D01*
X46072Y-39564D01*
X46107Y-39582D01*
X46137Y-39606D01*
X46163Y-39635D01*
X46182Y-39669D01*
X46195Y-39706D01*
X46199Y-39745D01*
X46200Y-39750D01*
X45800Y-39550D02*
X46200Y-39950D01*
X46200Y-39550D02*
X45800Y-39950D01*
X46200Y-40750D02*
X46196Y-40788D01*
X46184Y-40826D01*
X46166Y-40860D01*
X46141Y-40890D01*
X46111Y-40915D01*
X46077Y-40934D01*
X46040Y-40945D01*
X46001Y-40949D01*
X45963Y-40946D01*
X45926Y-40935D01*
X45891Y-40917D01*
X45861Y-40892D01*
X45835Y-40862D01*
X45817Y-40828D01*
X45805Y-40791D01*
X45801Y-40752D01*
X45804Y-40714D01*
X45815Y-40677D01*
X45832Y-40642D01*
X45857Y-40612D01*
X45886Y-40586D01*
X45920Y-40567D01*
X45958Y-40555D01*
X45996Y-40551D01*
X46034Y-40554D01*
X46072Y-40564D01*
X46107Y-40582D01*
X46137Y-40606D01*
X46163Y-40635D01*
X46182Y-40669D01*
X46195Y-40706D01*
X46199Y-40745D01*
X46200Y-40750D01*
X45800Y-40550D02*
X46200Y-40950D01*
X46200Y-40550D02*
X45800Y-40950D01*
X47200Y-20750D02*
X47196Y-20788D01*
X47184Y-20826D01*
X47166Y-20860D01*
X47141Y-20890D01*
X47111Y-20915D01*
X47077Y-20934D01*
X47040Y-20945D01*
X47001Y-20949D01*
X46963Y-20946D01*
X46926Y-20935D01*
X46891Y-20917D01*
X46861Y-20892D01*
X46835Y-20862D01*
X46817Y-20828D01*
X46805Y-20791D01*
X46801Y-20752D01*
X46804Y-20714D01*
X46815Y-20677D01*
X46832Y-20642D01*
X46857Y-20612D01*
X46886Y-20586D01*
X46920Y-20567D01*
X46958Y-20555D01*
X46996Y-20551D01*
X47034Y-20554D01*
X47072Y-20564D01*
X47107Y-20582D01*
X47137Y-20606D01*
X47163Y-20635D01*
X47182Y-20669D01*
X47195Y-20706D01*
X47199Y-20745D01*
X47200Y-20750D01*
X46800Y-20550D02*
X47200Y-20950D01*
X47200Y-20550D02*
X46800Y-20950D01*
X47200Y-21750D02*
X47196Y-21788D01*
X47184Y-21826D01*
X47166Y-21860D01*
X47141Y-21890D01*
X47111Y-21915D01*
X47077Y-21934D01*
X47040Y-21945D01*
X47001Y-21949D01*
X46963Y-21946D01*
X46926Y-21935D01*
X46891Y-21917D01*
X46861Y-21892D01*
X46835Y-21862D01*
X46817Y-21828D01*
X46805Y-21791D01*
X46801Y-21752D01*
X46804Y-21714D01*
X46815Y-21677D01*
X46832Y-21642D01*
X46857Y-21612D01*
X46886Y-21586D01*
X46920Y-21567D01*
X46958Y-21555D01*
X46996Y-21551D01*
X47034Y-21554D01*
X47072Y-21564D01*
X47107Y-21582D01*
X47137Y-21606D01*
X47163Y-21635D01*
X47182Y-21669D01*
X47195Y-21706D01*
X47199Y-21745D01*
X47200Y-21750D01*
X46800Y-21550D02*
X47200Y-21950D01*
X47200Y-21550D02*
X46800Y-21950D01*
X47200Y-39750D02*
X47196Y-39788D01*
X47184Y-39826D01*
X47166Y-39860D01*
X47141Y-39890D01*
X47111Y-39915D01*
X47077Y-39934D01*
X47040Y-39945D01*
X47001Y-39949D01*
X46963Y-39946D01*
X46926Y-39935D01*
X46891Y-39917D01*
X46861Y-39892D01*
X46835Y-39862D01*
X46817Y-39828D01*
X46805Y-39791D01*
X46801Y-39752D01*
X46804Y-39714D01*
X46815Y-39677D01*
X46832Y-39642D01*
X46857Y-39612D01*
X46886Y-39586D01*
X46920Y-39567D01*
X46958Y-39555D01*
X46996Y-39551D01*
X47034Y-39554D01*
X47072Y-39564D01*
X47107Y-39582D01*
X47137Y-39606D01*
X47163Y-39635D01*
X47182Y-39669D01*
X47195Y-39706D01*
X47199Y-39745D01*
X47200Y-39750D01*
X46800Y-39550D02*
X47200Y-39950D01*
X47200Y-39550D02*
X46800Y-39950D01*
X47200Y-40750D02*
X47196Y-40788D01*
X47184Y-40826D01*
X47166Y-40860D01*
X47141Y-40890D01*
X47111Y-40915D01*
X47077Y-40934D01*
X47040Y-40945D01*
X47001Y-40949D01*
X46963Y-40946D01*
X46926Y-40935D01*
X46891Y-40917D01*
X46861Y-40892D01*
X46835Y-40862D01*
X46817Y-40828D01*
X46805Y-40791D01*
X46801Y-40752D01*
X46804Y-40714D01*
X46815Y-40677D01*
X46832Y-40642D01*
X46857Y-40612D01*
X46886Y-40586D01*
X46920Y-40567D01*
X46958Y-40555D01*
X46996Y-40551D01*
X47034Y-40554D01*
X47072Y-40564D01*
X47107Y-40582D01*
X47137Y-40606D01*
X47163Y-40635D01*
X47182Y-40669D01*
X47195Y-40706D01*
X47199Y-40745D01*
X47200Y-40750D01*
X46800Y-40550D02*
X47200Y-40950D01*
X47200Y-40550D02*
X46800Y-40950D01*
X48200Y-20750D02*
X48196Y-20788D01*
X48184Y-20826D01*
X48166Y-20860D01*
X48141Y-20890D01*
X48111Y-20915D01*
X48077Y-20934D01*
X48040Y-20945D01*
X48001Y-20949D01*
X47963Y-20946D01*
X47926Y-20935D01*
X47891Y-20917D01*
X47861Y-20892D01*
X47835Y-20862D01*
X47817Y-20828D01*
X47805Y-20791D01*
X47801Y-20752D01*
X47804Y-20714D01*
X47815Y-20677D01*
X47832Y-20642D01*
X47857Y-20612D01*
X47886Y-20586D01*
X47920Y-20567D01*
X47958Y-20555D01*
X47996Y-20551D01*
X48034Y-20554D01*
X48072Y-20564D01*
X48107Y-20582D01*
X48137Y-20606D01*
X48163Y-20635D01*
X48182Y-20669D01*
X48195Y-20706D01*
X48199Y-20745D01*
X48200Y-20750D01*
X47800Y-20550D02*
X48200Y-20950D01*
X48200Y-20550D02*
X47800Y-20950D01*
X48200Y-21750D02*
X48196Y-21788D01*
X48184Y-21826D01*
X48166Y-21860D01*
X48141Y-21890D01*
X48111Y-21915D01*
X48077Y-21934D01*
X48040Y-21945D01*
X48001Y-21949D01*
X47963Y-21946D01*
X47926Y-21935D01*
X47891Y-21917D01*
X47861Y-21892D01*
X47835Y-21862D01*
X47817Y-21828D01*
X47805Y-21791D01*
X47801Y-21752D01*
X47804Y-21714D01*
X47815Y-21677D01*
X47832Y-21642D01*
X47857Y-21612D01*
X47886Y-21586D01*
X47920Y-21567D01*
X47958Y-21555D01*
X47996Y-21551D01*
X48034Y-21554D01*
X48072Y-21564D01*
X48107Y-21582D01*
X48137Y-21606D01*
X48163Y-21635D01*
X48182Y-21669D01*
X48195Y-21706D01*
X48199Y-21745D01*
X48200Y-21750D01*
X47800Y-21550D02*
X48200Y-21950D01*
X48200Y-21550D02*
X47800Y-21950D01*
X48200Y-39750D02*
X48196Y-39788D01*
X48184Y-39826D01*
X48166Y-39860D01*
X48141Y-39890D01*
X48111Y-39915D01*
X48077Y-39934D01*
X48040Y-39945D01*
X48001Y-39949D01*
X47963Y-39946D01*
X47926Y-39935D01*
X47891Y-39917D01*
X47861Y-39892D01*
X47835Y-39862D01*
X47817Y-39828D01*
X47805Y-39791D01*
X47801Y-39752D01*
X47804Y-39714D01*
X47815Y-39677D01*
X47832Y-39642D01*
X47857Y-39612D01*
X47886Y-39586D01*
X47920Y-39567D01*
X47958Y-39555D01*
X47996Y-39551D01*
X48034Y-39554D01*
X48072Y-39564D01*
X48107Y-39582D01*
X48137Y-39606D01*
X48163Y-39635D01*
X48182Y-39669D01*
X48195Y-39706D01*
X48199Y-39745D01*
X48200Y-39750D01*
X47800Y-39550D02*
X48200Y-39950D01*
X48200Y-39550D02*
X47800Y-39950D01*
X48200Y-40750D02*
X48196Y-40788D01*
X48184Y-40826D01*
X48166Y-40860D01*
X48141Y-40890D01*
X48111Y-40915D01*
X48077Y-40934D01*
X48040Y-40945D01*
X48001Y-40949D01*
X47963Y-40946D01*
X47926Y-40935D01*
X47891Y-40917D01*
X47861Y-40892D01*
X47835Y-40862D01*
X47817Y-40828D01*
X47805Y-40791D01*
X47801Y-40752D01*
X47804Y-40714D01*
X47815Y-40677D01*
X47832Y-40642D01*
X47857Y-40612D01*
X47886Y-40586D01*
X47920Y-40567D01*
X47958Y-40555D01*
X47996Y-40551D01*
X48034Y-40554D01*
X48072Y-40564D01*
X48107Y-40582D01*
X48137Y-40606D01*
X48163Y-40635D01*
X48182Y-40669D01*
X48195Y-40706D01*
X48199Y-40745D01*
X48200Y-40750D01*
X47800Y-40550D02*
X48200Y-40950D01*
X48200Y-40550D02*
X47800Y-40950D01*
X49200Y-20750D02*
X49196Y-20788D01*
X49184Y-20826D01*
X49166Y-20860D01*
X49141Y-20890D01*
X49111Y-20915D01*
X49077Y-20934D01*
X49040Y-20945D01*
X49001Y-20949D01*
X48963Y-20946D01*
X48926Y-20935D01*
X48891Y-20917D01*
X48861Y-20892D01*
X48835Y-20862D01*
X48817Y-20828D01*
X48805Y-20791D01*
X48801Y-20752D01*
X48804Y-20714D01*
X48815Y-20677D01*
X48832Y-20642D01*
X48857Y-20612D01*
X48886Y-20586D01*
X48920Y-20567D01*
X48958Y-20555D01*
X48996Y-20551D01*
X49034Y-20554D01*
X49072Y-20564D01*
X49107Y-20582D01*
X49137Y-20606D01*
X49163Y-20635D01*
X49182Y-20669D01*
X49195Y-20706D01*
X49199Y-20745D01*
X49200Y-20750D01*
X48800Y-20550D02*
X49200Y-20950D01*
X49200Y-20550D02*
X48800Y-20950D01*
X49200Y-21750D02*
X49196Y-21788D01*
X49184Y-21826D01*
X49166Y-21860D01*
X49141Y-21890D01*
X49111Y-21915D01*
X49077Y-21934D01*
X49040Y-21945D01*
X49001Y-21949D01*
X48963Y-21946D01*
X48926Y-21935D01*
X48891Y-21917D01*
X48861Y-21892D01*
X48835Y-21862D01*
X48817Y-21828D01*
X48805Y-21791D01*
X48801Y-21752D01*
X48804Y-21714D01*
X48815Y-21677D01*
X48832Y-21642D01*
X48857Y-21612D01*
X48886Y-21586D01*
X48920Y-21567D01*
X48958Y-21555D01*
X48996Y-21551D01*
X49034Y-21554D01*
X49072Y-21564D01*
X49107Y-21582D01*
X49137Y-21606D01*
X49163Y-21635D01*
X49182Y-21669D01*
X49195Y-21706D01*
X49199Y-21745D01*
X49200Y-21750D01*
X48800Y-21550D02*
X49200Y-21950D01*
X49200Y-21550D02*
X48800Y-21950D01*
X49200Y-39750D02*
X49196Y-39788D01*
X49184Y-39826D01*
X49166Y-39860D01*
X49141Y-39890D01*
X49111Y-39915D01*
X49077Y-39934D01*
X49040Y-39945D01*
X49001Y-39949D01*
X48963Y-39946D01*
X48926Y-39935D01*
X48891Y-39917D01*
X48861Y-39892D01*
X48835Y-39862D01*
X48817Y-39828D01*
X48805Y-39791D01*
X48801Y-39752D01*
X48804Y-39714D01*
X48815Y-39677D01*
X48832Y-39642D01*
X48857Y-39612D01*
X48886Y-39586D01*
X48920Y-39567D01*
X48958Y-39555D01*
X48996Y-39551D01*
X49034Y-39554D01*
X49072Y-39564D01*
X49107Y-39582D01*
X49137Y-39606D01*
X49163Y-39635D01*
X49182Y-39669D01*
X49195Y-39706D01*
X49199Y-39745D01*
X49200Y-39750D01*
X48800Y-39550D02*
X49200Y-39950D01*
X49200Y-39550D02*
X48800Y-39950D01*
X49200Y-40750D02*
X49196Y-40788D01*
X49184Y-40826D01*
X49166Y-40860D01*
X49141Y-40890D01*
X49111Y-40915D01*
X49077Y-40934D01*
X49040Y-40945D01*
X49001Y-40949D01*
X48963Y-40946D01*
X48926Y-40935D01*
X48891Y-40917D01*
X48861Y-40892D01*
X48835Y-40862D01*
X48817Y-40828D01*
X48805Y-40791D01*
X48801Y-40752D01*
X48804Y-40714D01*
X48815Y-40677D01*
X48832Y-40642D01*
X48857Y-40612D01*
X48886Y-40586D01*
X48920Y-40567D01*
X48958Y-40555D01*
X48996Y-40551D01*
X49034Y-40554D01*
X49072Y-40564D01*
X49107Y-40582D01*
X49137Y-40606D01*
X49163Y-40635D01*
X49182Y-40669D01*
X49195Y-40706D01*
X49199Y-40745D01*
X49200Y-40750D01*
X48800Y-40550D02*
X49200Y-40950D01*
X49200Y-40550D02*
X48800Y-40950D01*
X50200Y-20750D02*
X50196Y-20788D01*
X50184Y-20826D01*
X50166Y-20860D01*
X50141Y-20890D01*
X50111Y-20915D01*
X50077Y-20934D01*
X50040Y-20945D01*
X50001Y-20949D01*
X49963Y-20946D01*
X49926Y-20935D01*
X49891Y-20917D01*
X49861Y-20892D01*
X49835Y-20862D01*
X49817Y-20828D01*
X49805Y-20791D01*
X49801Y-20752D01*
X49804Y-20714D01*
X49815Y-20677D01*
X49832Y-20642D01*
X49857Y-20612D01*
X49886Y-20586D01*
X49920Y-20567D01*
X49958Y-20555D01*
X49996Y-20551D01*
X50034Y-20554D01*
X50072Y-20564D01*
X50107Y-20582D01*
X50137Y-20606D01*
X50163Y-20635D01*
X50182Y-20669D01*
X50195Y-20706D01*
X50199Y-20745D01*
X50200Y-20750D01*
X49800Y-20550D02*
X50200Y-20950D01*
X50200Y-20550D02*
X49800Y-20950D01*
X50200Y-21750D02*
X50196Y-21788D01*
X50184Y-21826D01*
X50166Y-21860D01*
X50141Y-21890D01*
X50111Y-21915D01*
X50077Y-21934D01*
X50040Y-21945D01*
X50001Y-21949D01*
X49963Y-21946D01*
X49926Y-21935D01*
X49891Y-21917D01*
X49861Y-21892D01*
X49835Y-21862D01*
X49817Y-21828D01*
X49805Y-21791D01*
X49801Y-21752D01*
X49804Y-21714D01*
X49815Y-21677D01*
X49832Y-21642D01*
X49857Y-21612D01*
X49886Y-21586D01*
X49920Y-21567D01*
X49958Y-21555D01*
X49996Y-21551D01*
X50034Y-21554D01*
X50072Y-21564D01*
X50107Y-21582D01*
X50137Y-21606D01*
X50163Y-21635D01*
X50182Y-21669D01*
X50195Y-21706D01*
X50199Y-21745D01*
X50200Y-21750D01*
X49800Y-21550D02*
X50200Y-21950D01*
X50200Y-21550D02*
X49800Y-21950D01*
X50200Y-39750D02*
X50196Y-39788D01*
X50184Y-39826D01*
X50166Y-39860D01*
X50141Y-39890D01*
X50111Y-39915D01*
X50077Y-39934D01*
X50040Y-39945D01*
X50001Y-39949D01*
X49963Y-39946D01*
X49926Y-39935D01*
X49891Y-39917D01*
X49861Y-39892D01*
X49835Y-39862D01*
X49817Y-39828D01*
X49805Y-39791D01*
X49801Y-39752D01*
X49804Y-39714D01*
X49815Y-39677D01*
X49832Y-39642D01*
X49857Y-39612D01*
X49886Y-39586D01*
X49920Y-39567D01*
X49958Y-39555D01*
X49996Y-39551D01*
X50034Y-39554D01*
X50072Y-39564D01*
X50107Y-39582D01*
X50137Y-39606D01*
X50163Y-39635D01*
X50182Y-39669D01*
X50195Y-39706D01*
X50199Y-39745D01*
X50200Y-39750D01*
X49800Y-39550D02*
X50200Y-39950D01*
X50200Y-39550D02*
X49800Y-39950D01*
X50200Y-40750D02*
X50196Y-40788D01*
X50184Y-40826D01*
X50166Y-40860D01*
X50141Y-40890D01*
X50111Y-40915D01*
X50077Y-40934D01*
X50040Y-40945D01*
X50001Y-40949D01*
X49963Y-40946D01*
X49926Y-40935D01*
X49891Y-40917D01*
X49861Y-40892D01*
X49835Y-40862D01*
X49817Y-40828D01*
X49805Y-40791D01*
X49801Y-40752D01*
X49804Y-40714D01*
X49815Y-40677D01*
X49832Y-40642D01*
X49857Y-40612D01*
X49886Y-40586D01*
X49920Y-40567D01*
X49958Y-40555D01*
X49996Y-40551D01*
X50034Y-40554D01*
X50072Y-40564D01*
X50107Y-40582D01*
X50137Y-40606D01*
X50163Y-40635D01*
X50182Y-40669D01*
X50195Y-40706D01*
X50199Y-40745D01*
X50200Y-40750D01*
X49800Y-40550D02*
X50200Y-40950D01*
X50200Y-40550D02*
X49800Y-40950D01*
X52700Y-24350D02*
X52696Y-24388D01*
X52684Y-24426D01*
X52666Y-24460D01*
X52641Y-24490D01*
X52611Y-24515D01*
X52577Y-24534D01*
X52540Y-24545D01*
X52501Y-24549D01*
X52463Y-24546D01*
X52426Y-24535D01*
X52391Y-24517D01*
X52361Y-24492D01*
X52335Y-24462D01*
X52317Y-24428D01*
X52305Y-24391D01*
X52301Y-24352D01*
X52304Y-24314D01*
X52315Y-24277D01*
X52332Y-24242D01*
X52357Y-24212D01*
X52386Y-24186D01*
X52420Y-24167D01*
X52458Y-24155D01*
X52496Y-24151D01*
X52534Y-24154D01*
X52572Y-24164D01*
X52607Y-24182D01*
X52637Y-24206D01*
X52663Y-24235D01*
X52682Y-24269D01*
X52695Y-24306D01*
X52699Y-24345D01*
X52700Y-24350D01*
X52300Y-24150D02*
X52700Y-24550D01*
X52700Y-24150D02*
X52300Y-24550D01*
X52700Y-25350D02*
X52696Y-25388D01*
X52684Y-25426D01*
X52666Y-25460D01*
X52641Y-25490D01*
X52611Y-25515D01*
X52577Y-25534D01*
X52540Y-25545D01*
X52501Y-25549D01*
X52463Y-25546D01*
X52426Y-25535D01*
X52391Y-25517D01*
X52361Y-25492D01*
X52335Y-25462D01*
X52317Y-25428D01*
X52305Y-25391D01*
X52301Y-25352D01*
X52304Y-25314D01*
X52315Y-25277D01*
X52332Y-25242D01*
X52357Y-25212D01*
X52386Y-25186D01*
X52420Y-25167D01*
X52458Y-25155D01*
X52496Y-25151D01*
X52534Y-25154D01*
X52572Y-25164D01*
X52607Y-25182D01*
X52637Y-25206D01*
X52663Y-25235D01*
X52682Y-25269D01*
X52695Y-25306D01*
X52699Y-25345D01*
X52700Y-25350D01*
X52300Y-25150D02*
X52700Y-25550D01*
X52700Y-25150D02*
X52300Y-25550D01*
X52700Y-26350D02*
X52696Y-26388D01*
X52684Y-26426D01*
X52666Y-26460D01*
X52641Y-26490D01*
X52611Y-26515D01*
X52577Y-26534D01*
X52540Y-26545D01*
X52501Y-26549D01*
X52463Y-26546D01*
X52426Y-26535D01*
X52391Y-26517D01*
X52361Y-26492D01*
X52335Y-26462D01*
X52317Y-26428D01*
X52305Y-26391D01*
X52301Y-26352D01*
X52304Y-26314D01*
X52315Y-26277D01*
X52332Y-26242D01*
X52357Y-26212D01*
X52386Y-26186D01*
X52420Y-26167D01*
X52458Y-26155D01*
X52496Y-26151D01*
X52534Y-26154D01*
X52572Y-26164D01*
X52607Y-26182D01*
X52637Y-26206D01*
X52663Y-26235D01*
X52682Y-26269D01*
X52695Y-26306D01*
X52699Y-26345D01*
X52700Y-26350D01*
X52300Y-26150D02*
X52700Y-26550D01*
X52700Y-26150D02*
X52300Y-26550D01*
X52700Y-27350D02*
X52696Y-27388D01*
X52684Y-27426D01*
X52666Y-27460D01*
X52641Y-27490D01*
X52611Y-27515D01*
X52577Y-27534D01*
X52540Y-27545D01*
X52501Y-27549D01*
X52463Y-27546D01*
X52426Y-27535D01*
X52391Y-27517D01*
X52361Y-27492D01*
X52335Y-27462D01*
X52317Y-27428D01*
X52305Y-27391D01*
X52301Y-27352D01*
X52304Y-27314D01*
X52315Y-27277D01*
X52332Y-27242D01*
X52357Y-27212D01*
X52386Y-27186D01*
X52420Y-27167D01*
X52458Y-27155D01*
X52496Y-27151D01*
X52534Y-27154D01*
X52572Y-27164D01*
X52607Y-27182D01*
X52637Y-27206D01*
X52663Y-27235D01*
X52682Y-27269D01*
X52695Y-27306D01*
X52699Y-27345D01*
X52700Y-27350D01*
X52300Y-27150D02*
X52700Y-27550D01*
X52700Y-27150D02*
X52300Y-27550D01*
X52700Y-28350D02*
X52696Y-28388D01*
X52684Y-28426D01*
X52666Y-28460D01*
X52641Y-28490D01*
X52611Y-28515D01*
X52577Y-28534D01*
X52540Y-28545D01*
X52501Y-28549D01*
X52463Y-28546D01*
X52426Y-28535D01*
X52391Y-28517D01*
X52361Y-28492D01*
X52335Y-28462D01*
X52317Y-28428D01*
X52305Y-28391D01*
X52301Y-28352D01*
X52304Y-28314D01*
X52315Y-28277D01*
X52332Y-28242D01*
X52357Y-28212D01*
X52386Y-28186D01*
X52420Y-28167D01*
X52458Y-28155D01*
X52496Y-28151D01*
X52534Y-28154D01*
X52572Y-28164D01*
X52607Y-28182D01*
X52637Y-28206D01*
X52663Y-28235D01*
X52682Y-28269D01*
X52695Y-28306D01*
X52699Y-28345D01*
X52700Y-28350D01*
X52300Y-28150D02*
X52700Y-28550D01*
X52700Y-28150D02*
X52300Y-28550D01*
X52700Y-29350D02*
X52696Y-29388D01*
X52684Y-29426D01*
X52666Y-29460D01*
X52641Y-29490D01*
X52611Y-29515D01*
X52577Y-29534D01*
X52540Y-29545D01*
X52501Y-29549D01*
X52463Y-29546D01*
X52426Y-29535D01*
X52391Y-29517D01*
X52361Y-29492D01*
X52335Y-29462D01*
X52317Y-29428D01*
X52305Y-29391D01*
X52301Y-29352D01*
X52304Y-29314D01*
X52315Y-29277D01*
X52332Y-29242D01*
X52357Y-29212D01*
X52386Y-29186D01*
X52420Y-29167D01*
X52458Y-29155D01*
X52496Y-29151D01*
X52534Y-29154D01*
X52572Y-29164D01*
X52607Y-29182D01*
X52637Y-29206D01*
X52663Y-29235D01*
X52682Y-29269D01*
X52695Y-29306D01*
X52699Y-29345D01*
X52700Y-29350D01*
X52300Y-29150D02*
X52700Y-29550D01*
X52700Y-29150D02*
X52300Y-29550D01*
X26400Y-21250D02*
X26387Y-21376D01*
X26350Y-21497D01*
X26291Y-21609D01*
X26211Y-21708D01*
X26113Y-21788D01*
X26001Y-21849D01*
X25880Y-21886D01*
X25754Y-21899D01*
X25629Y-21888D01*
X25507Y-21852D01*
X25395Y-21793D01*
X25296Y-21714D01*
X25214Y-21617D01*
X25153Y-21506D01*
X25115Y-21385D01*
X25101Y-21259D01*
X25111Y-21133D01*
X25146Y-21011D01*
X25204Y-20898D01*
X25283Y-20799D01*
X25380Y-20717D01*
X25490Y-20655D01*
X25611Y-20616D01*
X25737Y-20601D01*
X25862Y-20610D01*
X25985Y-20644D01*
X26098Y-20702D01*
X26198Y-20780D01*
X26281Y-20876D01*
X26343Y-20986D01*
X26383Y-21106D01*
X26399Y-21232D01*
X26400Y-21250D01*
X25100Y-21250D02*
X26400Y-21250D01*
X26400Y-40250D02*
X26387Y-40376D01*
X26350Y-40497D01*
X26291Y-40609D01*
X26211Y-40708D01*
X26113Y-40788D01*
X26001Y-40849D01*
X25880Y-40886D01*
X25754Y-40899D01*
X25629Y-40888D01*
X25507Y-40852D01*
X25395Y-40793D01*
X25296Y-40714D01*
X25214Y-40617D01*
X25153Y-40506D01*
X25115Y-40385D01*
X25101Y-40259D01*
X25111Y-40133D01*
X25146Y-40011D01*
X25204Y-39898D01*
X25283Y-39799D01*
X25380Y-39717D01*
X25490Y-39655D01*
X25611Y-39616D01*
X25737Y-39601D01*
X25862Y-39610D01*
X25985Y-39644D01*
X26098Y-39702D01*
X26198Y-39780D01*
X26281Y-39876D01*
X26343Y-39986D01*
X26383Y-40106D01*
X26399Y-40232D01*
X26400Y-40250D01*
X25100Y-40250D02*
X26400Y-40250D01*
X52400Y-22500D02*
X52387Y-22626D01*
X52350Y-22747D01*
X52291Y-22859D01*
X52211Y-22958D01*
X52113Y-23038D01*
X52001Y-23099D01*
X51880Y-23136D01*
X51754Y-23149D01*
X51629Y-23138D01*
X51507Y-23102D01*
X51395Y-23043D01*
X51296Y-22964D01*
X51214Y-22867D01*
X51153Y-22756D01*
X51115Y-22635D01*
X51101Y-22509D01*
X51111Y-22383D01*
X51146Y-22261D01*
X51204Y-22148D01*
X51283Y-22049D01*
X51380Y-21967D01*
X51490Y-21905D01*
X51611Y-21866D01*
X51737Y-21851D01*
X51862Y-21860D01*
X51985Y-21894D01*
X52098Y-21952D01*
X52198Y-22030D01*
X52281Y-22126D01*
X52343Y-22236D01*
X52383Y-22356D01*
X52399Y-22482D01*
X52400Y-22500D01*
X51100Y-22500D02*
X52400Y-22500D01*
X52400Y-39000D02*
X52387Y-39126D01*
X52350Y-39247D01*
X52291Y-39359D01*
X52211Y-39458D01*
X52113Y-39538D01*
X52001Y-39599D01*
X51880Y-39636D01*
X51754Y-39649D01*
X51629Y-39638D01*
X51507Y-39602D01*
X51395Y-39543D01*
X51296Y-39464D01*
X51214Y-39367D01*
X51153Y-39256D01*
X51115Y-39135D01*
X51101Y-39009D01*
X51111Y-38883D01*
X51146Y-38761D01*
X51204Y-38648D01*
X51283Y-38549D01*
X51380Y-38467D01*
X51490Y-38405D01*
X51611Y-38366D01*
X51737Y-38351D01*
X51862Y-38360D01*
X51985Y-38394D01*
X52098Y-38452D01*
X52198Y-38530D01*
X52281Y-38626D01*
X52343Y-38736D01*
X52383Y-38856D01*
X52399Y-38982D01*
X52400Y-39000D01*
X51100Y-39000D02*
X52400Y-39000D01*
G54D12*
X20314Y-43254D02*
X20314Y-42454D01*
X20505Y-42454D01*
X20619Y-42492D01*
X20695Y-42568D01*
X20734Y-42644D01*
X20772Y-42797D01*
X20772Y-42911D01*
X20734Y-43063D01*
X20695Y-43140D01*
X20619Y-43216D01*
X20505Y-43254D01*
X20314Y-43254D01*
X21114Y-43254D02*
X21114Y-42720D01*
X21114Y-42873D02*
X21153Y-42797D01*
X21191Y-42759D01*
X21267Y-42720D01*
X21343Y-42720D01*
X21609Y-43254D02*
X21609Y-42720D01*
X21609Y-42454D02*
X21571Y-42492D01*
X21609Y-42530D01*
X21648Y-42492D01*
X21609Y-42454D01*
X21609Y-42530D01*
X22105Y-43254D02*
X22029Y-43216D01*
X21990Y-43140D01*
X21990Y-42454D01*
X22524Y-43254D02*
X22448Y-43216D01*
X22409Y-43140D01*
X22409Y-42454D01*
X23438Y-43254D02*
X23438Y-42454D01*
X23705Y-43025D01*
X23972Y-42454D01*
X23972Y-43254D01*
X24695Y-43254D02*
X24695Y-42835D01*
X24657Y-42759D01*
X24581Y-42720D01*
X24429Y-42720D01*
X24352Y-42759D01*
X24695Y-43216D02*
X24619Y-43254D01*
X24429Y-43254D01*
X24352Y-43216D01*
X24314Y-43140D01*
X24314Y-43063D01*
X24352Y-42987D01*
X24429Y-42949D01*
X24619Y-42949D01*
X24695Y-42911D01*
X25076Y-42720D02*
X25076Y-43520D01*
X25076Y-42759D02*
X25153Y-42720D01*
X25305Y-42720D01*
X25381Y-42759D01*
X25419Y-42797D01*
X25457Y-42873D01*
X25457Y-43101D01*
X25419Y-43178D01*
X25381Y-43216D01*
X25305Y-43254D01*
X25153Y-43254D01*
X25076Y-43216D01*
X25800Y-43178D02*
X25839Y-43216D01*
X25800Y-43254D01*
X25762Y-43216D01*
X25800Y-43178D01*
X25800Y-43254D01*
X25800Y-42759D02*
X25839Y-42797D01*
X25800Y-42835D01*
X25762Y-42797D01*
X25800Y-42759D01*
X25800Y-42835D01*
X19674Y-44485D02*
X19924Y-44735D01*
X19924Y-44485D02*
X19674Y-44735D01*
X20467Y-44134D02*
X20543Y-44134D01*
X20619Y-44172D01*
X20657Y-44210D01*
X20695Y-44286D01*
X20734Y-44439D01*
X20734Y-44629D01*
X20695Y-44781D01*
X20657Y-44858D01*
X20619Y-44896D01*
X20543Y-44934D01*
X20467Y-44934D01*
X20391Y-44896D01*
X20353Y-44858D01*
X20314Y-44781D01*
X20276Y-44629D01*
X20276Y-44439D01*
X20314Y-44286D01*
X20353Y-44210D01*
X20391Y-44172D01*
X20467Y-44134D01*
X21076Y-44858D02*
X21115Y-44896D01*
X21076Y-44934D01*
X21038Y-44896D01*
X21076Y-44858D01*
X21076Y-44934D01*
X21610Y-44134D02*
X21686Y-44134D01*
X21762Y-44172D01*
X21800Y-44210D01*
X21838Y-44286D01*
X21877Y-44439D01*
X21877Y-44629D01*
X21838Y-44781D01*
X21800Y-44858D01*
X21762Y-44896D01*
X21686Y-44934D01*
X21610Y-44934D01*
X21534Y-44896D01*
X21496Y-44858D01*
X21457Y-44781D01*
X21419Y-44629D01*
X21419Y-44439D01*
X21457Y-44286D01*
X21496Y-44210D01*
X21534Y-44172D01*
X21610Y-44134D01*
X22181Y-44210D02*
X22219Y-44172D01*
X22296Y-44134D01*
X22486Y-44134D01*
X22562Y-44172D01*
X22600Y-44210D01*
X22639Y-44286D01*
X22639Y-44362D01*
X22600Y-44477D01*
X22143Y-44934D01*
X22639Y-44934D01*
X23362Y-44134D02*
X22981Y-44134D01*
X22943Y-44515D01*
X22981Y-44477D01*
X23058Y-44439D01*
X23248Y-44439D01*
X23324Y-44477D01*
X23362Y-44515D01*
X23401Y-44591D01*
X23401Y-44781D01*
X23362Y-44858D01*
X23324Y-44896D01*
X23248Y-44934D01*
X23058Y-44934D01*
X22981Y-44896D01*
X22943Y-44858D01*
X23705Y-44134D02*
X23705Y-44286D01*
X24010Y-44134D02*
X24010Y-44286D01*
X25535Y-44096D02*
X24849Y-45124D01*
X26564Y-44134D02*
X26640Y-44134D01*
X26716Y-44172D01*
X26754Y-44210D01*
X26792Y-44286D01*
X26831Y-44439D01*
X26831Y-44629D01*
X26792Y-44781D01*
X26754Y-44858D01*
X26716Y-44896D01*
X26640Y-44934D01*
X26564Y-44934D01*
X26488Y-44896D01*
X26450Y-44858D01*
X26411Y-44781D01*
X26373Y-44629D01*
X26373Y-44439D01*
X26411Y-44286D01*
X26450Y-44210D01*
X26488Y-44172D01*
X26564Y-44134D01*
X27173Y-44858D02*
X27212Y-44896D01*
X27173Y-44934D01*
X27135Y-44896D01*
X27173Y-44858D01*
X27173Y-44934D01*
X27897Y-44134D02*
X27745Y-44134D01*
X27669Y-44172D01*
X27631Y-44210D01*
X27554Y-44324D01*
X27516Y-44477D01*
X27516Y-44781D01*
X27554Y-44858D01*
X27593Y-44896D01*
X27669Y-44934D01*
X27821Y-44934D01*
X27897Y-44896D01*
X27935Y-44858D01*
X27974Y-44781D01*
X27974Y-44591D01*
X27935Y-44515D01*
X27897Y-44477D01*
X27821Y-44439D01*
X27669Y-44439D01*
X27593Y-44477D01*
X27554Y-44515D01*
X27516Y-44591D01*
X28659Y-44400D02*
X28659Y-44934D01*
X28469Y-44096D02*
X28278Y-44667D01*
X28774Y-44667D01*
X29078Y-44934D02*
X29078Y-44400D01*
X29078Y-44477D02*
X29117Y-44439D01*
X29193Y-44400D01*
X29307Y-44400D01*
X29383Y-44439D01*
X29421Y-44515D01*
X29421Y-44934D01*
X29421Y-44515D02*
X29459Y-44439D01*
X29536Y-44400D01*
X29650Y-44400D01*
X29726Y-44439D01*
X29764Y-44515D01*
X29764Y-44934D01*
X30145Y-44934D02*
X30145Y-44400D01*
X30145Y-44477D02*
X30184Y-44439D01*
X30260Y-44400D01*
X30374Y-44400D01*
X30450Y-44439D01*
X30488Y-44515D01*
X30488Y-44934D01*
X30488Y-44515D02*
X30526Y-44439D01*
X30603Y-44400D01*
X30717Y-44400D01*
X30793Y-44439D01*
X30831Y-44515D01*
X30831Y-44934D01*
X32051Y-45239D02*
X32013Y-45200D01*
X31937Y-45086D01*
X31899Y-45010D01*
X31861Y-44896D01*
X31822Y-44705D01*
X31822Y-44553D01*
X31861Y-44362D01*
X31899Y-44248D01*
X31937Y-44172D01*
X32013Y-44058D01*
X32051Y-44020D01*
X32279Y-44134D02*
X32775Y-44134D01*
X32508Y-44439D01*
X32622Y-44439D01*
X32698Y-44477D01*
X32736Y-44515D01*
X32775Y-44591D01*
X32775Y-44781D01*
X32736Y-44858D01*
X32698Y-44896D01*
X32622Y-44934D01*
X32394Y-44934D01*
X32317Y-44896D01*
X32279Y-44858D01*
X33156Y-44934D02*
X33308Y-44934D01*
X33384Y-44896D01*
X33422Y-44858D01*
X33498Y-44743D01*
X33537Y-44591D01*
X33537Y-44286D01*
X33498Y-44210D01*
X33460Y-44172D01*
X33384Y-44134D01*
X33232Y-44134D01*
X33156Y-44172D01*
X33117Y-44210D01*
X33079Y-44286D01*
X33079Y-44477D01*
X33117Y-44553D01*
X33156Y-44591D01*
X33232Y-44629D01*
X33384Y-44629D01*
X33460Y-44591D01*
X33498Y-44553D01*
X33537Y-44477D01*
X34489Y-44934D02*
X34489Y-44134D01*
X34832Y-44934D02*
X34832Y-44515D01*
X34794Y-44439D01*
X34718Y-44400D01*
X34604Y-44400D01*
X34528Y-44439D01*
X34489Y-44477D01*
X35328Y-44934D02*
X35252Y-44896D01*
X35213Y-44858D01*
X35175Y-44781D01*
X35175Y-44553D01*
X35213Y-44477D01*
X35252Y-44439D01*
X35328Y-44400D01*
X35442Y-44400D01*
X35518Y-44439D01*
X35556Y-44477D01*
X35594Y-44553D01*
X35594Y-44781D01*
X35556Y-44858D01*
X35518Y-44896D01*
X35442Y-44934D01*
X35328Y-44934D01*
X36052Y-44934D02*
X35976Y-44896D01*
X35937Y-44820D01*
X35937Y-44134D01*
X36661Y-44896D02*
X36585Y-44934D01*
X36433Y-44934D01*
X36356Y-44896D01*
X36318Y-44820D01*
X36318Y-44515D01*
X36356Y-44439D01*
X36433Y-44400D01*
X36585Y-44400D01*
X36661Y-44439D01*
X36699Y-44515D01*
X36699Y-44591D01*
X36318Y-44667D01*
X37004Y-44896D02*
X37081Y-44934D01*
X37233Y-44934D01*
X37309Y-44896D01*
X37347Y-44820D01*
X37347Y-44781D01*
X37309Y-44705D01*
X37233Y-44667D01*
X37119Y-44667D01*
X37042Y-44629D01*
X37004Y-44553D01*
X37004Y-44515D01*
X37042Y-44439D01*
X37119Y-44400D01*
X37233Y-44400D01*
X37309Y-44439D01*
X37614Y-45239D02*
X37652Y-45200D01*
X37729Y-45086D01*
X37767Y-45010D01*
X37805Y-44896D01*
X37843Y-44705D01*
X37843Y-44553D01*
X37805Y-44362D01*
X37767Y-44248D01*
X37729Y-44172D01*
X37652Y-44058D01*
X37614Y-44020D01*
G54D10*
X19924Y-45666D02*
X19921Y-45695D01*
X19912Y-45723D01*
X19898Y-45749D01*
X19880Y-45771D01*
X19857Y-45790D01*
X19832Y-45804D01*
X19804Y-45812D01*
X19775Y-45815D01*
X19746Y-45813D01*
X19718Y-45805D01*
X19692Y-45791D01*
X19670Y-45773D01*
X19651Y-45750D01*
X19637Y-45725D01*
X19628Y-45697D01*
X19625Y-45668D01*
X19627Y-45639D01*
X19635Y-45611D01*
X19648Y-45585D01*
X19667Y-45562D01*
X19689Y-45543D01*
X19714Y-45529D01*
X19742Y-45520D01*
X19771Y-45517D01*
X19800Y-45519D01*
X19828Y-45527D01*
X19854Y-45540D01*
X19877Y-45558D01*
X19896Y-45580D01*
X19911Y-45605D01*
X19920Y-45633D01*
X19923Y-45662D01*
X19924Y-45666D01*
G54D12*
X20467Y-45190D02*
X20543Y-45190D01*
X20619Y-45228D01*
X20657Y-45266D01*
X20695Y-45342D01*
X20734Y-45495D01*
X20734Y-45685D01*
X20695Y-45837D01*
X20657Y-45914D01*
X20619Y-45952D01*
X20543Y-45990D01*
X20467Y-45990D01*
X20391Y-45952D01*
X20353Y-45914D01*
X20314Y-45837D01*
X20276Y-45685D01*
X20276Y-45495D01*
X20314Y-45342D01*
X20353Y-45266D01*
X20391Y-45228D01*
X20467Y-45190D01*
X21076Y-45914D02*
X21115Y-45952D01*
X21076Y-45990D01*
X21038Y-45952D01*
X21076Y-45914D01*
X21076Y-45990D01*
X21610Y-45190D02*
X21686Y-45190D01*
X21762Y-45228D01*
X21800Y-45266D01*
X21838Y-45342D01*
X21877Y-45495D01*
X21877Y-45685D01*
X21838Y-45837D01*
X21800Y-45914D01*
X21762Y-45952D01*
X21686Y-45990D01*
X21610Y-45990D01*
X21534Y-45952D01*
X21496Y-45914D01*
X21457Y-45837D01*
X21419Y-45685D01*
X21419Y-45495D01*
X21457Y-45342D01*
X21496Y-45266D01*
X21534Y-45228D01*
X21610Y-45190D01*
X22143Y-45190D02*
X22639Y-45190D01*
X22372Y-45495D01*
X22486Y-45495D01*
X22562Y-45533D01*
X22600Y-45571D01*
X22639Y-45647D01*
X22639Y-45837D01*
X22600Y-45914D01*
X22562Y-45952D01*
X22486Y-45990D01*
X22258Y-45990D01*
X22181Y-45952D01*
X22143Y-45914D01*
X23134Y-45190D02*
X23210Y-45190D01*
X23286Y-45228D01*
X23324Y-45266D01*
X23362Y-45342D01*
X23401Y-45495D01*
X23401Y-45685D01*
X23362Y-45837D01*
X23324Y-45914D01*
X23286Y-45952D01*
X23210Y-45990D01*
X23134Y-45990D01*
X23058Y-45952D01*
X23020Y-45914D01*
X22981Y-45837D01*
X22943Y-45685D01*
X22943Y-45495D01*
X22981Y-45342D01*
X23020Y-45266D01*
X23058Y-45228D01*
X23134Y-45190D01*
X23705Y-45190D02*
X23705Y-45342D01*
X24010Y-45190D02*
X24010Y-45342D01*
X25535Y-45152D02*
X24849Y-46180D01*
X26564Y-45190D02*
X26640Y-45190D01*
X26716Y-45228D01*
X26754Y-45266D01*
X26792Y-45342D01*
X26831Y-45495D01*
X26831Y-45685D01*
X26792Y-45837D01*
X26754Y-45914D01*
X26716Y-45952D01*
X26640Y-45990D01*
X26564Y-45990D01*
X26488Y-45952D01*
X26450Y-45914D01*
X26411Y-45837D01*
X26373Y-45685D01*
X26373Y-45495D01*
X26411Y-45342D01*
X26450Y-45266D01*
X26488Y-45228D01*
X26564Y-45190D01*
X27173Y-45914D02*
X27212Y-45952D01*
X27173Y-45990D01*
X27135Y-45952D01*
X27173Y-45914D01*
X27173Y-45990D01*
X27478Y-45190D02*
X28012Y-45190D01*
X27669Y-45990D01*
X28659Y-45190D02*
X28507Y-45190D01*
X28431Y-45228D01*
X28393Y-45266D01*
X28316Y-45380D01*
X28278Y-45533D01*
X28278Y-45837D01*
X28316Y-45914D01*
X28355Y-45952D01*
X28431Y-45990D01*
X28583Y-45990D01*
X28659Y-45952D01*
X28697Y-45914D01*
X28736Y-45837D01*
X28736Y-45647D01*
X28697Y-45571D01*
X28659Y-45533D01*
X28583Y-45495D01*
X28431Y-45495D01*
X28355Y-45533D01*
X28316Y-45571D01*
X28278Y-45647D01*
X29078Y-45990D02*
X29078Y-45456D01*
X29078Y-45533D02*
X29117Y-45495D01*
X29193Y-45456D01*
X29307Y-45456D01*
X29383Y-45495D01*
X29421Y-45571D01*
X29421Y-45990D01*
X29421Y-45571D02*
X29459Y-45495D01*
X29536Y-45456D01*
X29650Y-45456D01*
X29726Y-45495D01*
X29764Y-45571D01*
X29764Y-45990D01*
X30145Y-45990D02*
X30145Y-45456D01*
X30145Y-45533D02*
X30184Y-45495D01*
X30260Y-45456D01*
X30374Y-45456D01*
X30450Y-45495D01*
X30488Y-45571D01*
X30488Y-45990D01*
X30488Y-45571D02*
X30526Y-45495D01*
X30603Y-45456D01*
X30717Y-45456D01*
X30793Y-45495D01*
X30831Y-45571D01*
X30831Y-45990D01*
X32051Y-46295D02*
X32013Y-46256D01*
X31937Y-46142D01*
X31899Y-46066D01*
X31861Y-45952D01*
X31822Y-45761D01*
X31822Y-45609D01*
X31861Y-45418D01*
X31899Y-45304D01*
X31937Y-45228D01*
X32013Y-45114D01*
X32051Y-45076D01*
X32317Y-45266D02*
X32355Y-45228D01*
X32432Y-45190D01*
X32622Y-45190D01*
X32698Y-45228D01*
X32736Y-45266D01*
X32775Y-45342D01*
X32775Y-45418D01*
X32736Y-45533D01*
X32279Y-45990D01*
X32775Y-45990D01*
X33727Y-45990D02*
X33727Y-45190D01*
X34070Y-45990D02*
X34070Y-45571D01*
X34032Y-45495D01*
X33956Y-45456D01*
X33842Y-45456D01*
X33766Y-45495D01*
X33727Y-45533D01*
X34566Y-45990D02*
X34490Y-45952D01*
X34451Y-45914D01*
X34413Y-45837D01*
X34413Y-45609D01*
X34451Y-45533D01*
X34490Y-45495D01*
X34566Y-45456D01*
X34680Y-45456D01*
X34756Y-45495D01*
X34794Y-45533D01*
X34832Y-45609D01*
X34832Y-45837D01*
X34794Y-45914D01*
X34756Y-45952D01*
X34680Y-45990D01*
X34566Y-45990D01*
X35290Y-45990D02*
X35214Y-45952D01*
X35175Y-45876D01*
X35175Y-45190D01*
X35899Y-45952D02*
X35823Y-45990D01*
X35671Y-45990D01*
X35594Y-45952D01*
X35556Y-45876D01*
X35556Y-45571D01*
X35594Y-45495D01*
X35671Y-45456D01*
X35823Y-45456D01*
X35899Y-45495D01*
X35937Y-45571D01*
X35937Y-45647D01*
X35556Y-45723D01*
X36242Y-45952D02*
X36319Y-45990D01*
X36471Y-45990D01*
X36547Y-45952D01*
X36585Y-45876D01*
X36585Y-45837D01*
X36547Y-45761D01*
X36471Y-45723D01*
X36357Y-45723D01*
X36280Y-45685D01*
X36242Y-45609D01*
X36242Y-45571D01*
X36280Y-45495D01*
X36357Y-45456D01*
X36471Y-45456D01*
X36547Y-45495D01*
X36852Y-46295D02*
X36890Y-46256D01*
X36967Y-46142D01*
X37005Y-46066D01*
X37043Y-45952D01*
X37081Y-45761D01*
X37081Y-45609D01*
X37043Y-45418D01*
X37005Y-45304D01*
X36967Y-45228D01*
X36890Y-45114D01*
X36852Y-45076D01*
X19764Y-46562D02*
X19764Y-46882D01*
X19924Y-46722D02*
X19604Y-46722D01*
X20467Y-46246D02*
X20543Y-46246D01*
X20619Y-46284D01*
X20657Y-46322D01*
X20695Y-46398D01*
X20734Y-46551D01*
X20734Y-46741D01*
X20695Y-46893D01*
X20657Y-46970D01*
X20619Y-47008D01*
X20543Y-47046D01*
X20467Y-47046D01*
X20391Y-47008D01*
X20353Y-46970D01*
X20314Y-46893D01*
X20276Y-46741D01*
X20276Y-46551D01*
X20314Y-46398D01*
X20353Y-46322D01*
X20391Y-46284D01*
X20467Y-46246D01*
X21076Y-46970D02*
X21115Y-47008D01*
X21076Y-47046D01*
X21038Y-47008D01*
X21076Y-46970D01*
X21076Y-47046D01*
X21610Y-46246D02*
X21686Y-46246D01*
X21762Y-46284D01*
X21800Y-46322D01*
X21838Y-46398D01*
X21877Y-46551D01*
X21877Y-46741D01*
X21838Y-46893D01*
X21800Y-46970D01*
X21762Y-47008D01*
X21686Y-47046D01*
X21610Y-47046D01*
X21534Y-47008D01*
X21496Y-46970D01*
X21457Y-46893D01*
X21419Y-46741D01*
X21419Y-46551D01*
X21457Y-46398D01*
X21496Y-46322D01*
X21534Y-46284D01*
X21610Y-46246D01*
X22143Y-46246D02*
X22639Y-46246D01*
X22372Y-46551D01*
X22486Y-46551D01*
X22562Y-46589D01*
X22600Y-46627D01*
X22639Y-46703D01*
X22639Y-46893D01*
X22600Y-46970D01*
X22562Y-47008D01*
X22486Y-47046D01*
X22258Y-47046D01*
X22181Y-47008D01*
X22143Y-46970D01*
X22943Y-46322D02*
X22981Y-46284D01*
X23058Y-46246D01*
X23248Y-46246D01*
X23324Y-46284D01*
X23362Y-46322D01*
X23401Y-46398D01*
X23401Y-46474D01*
X23362Y-46589D01*
X22905Y-47046D01*
X23401Y-47046D01*
X23705Y-46246D02*
X23705Y-46398D01*
X24010Y-46246D02*
X24010Y-46398D01*
X25535Y-46208D02*
X24849Y-47236D01*
X26564Y-46246D02*
X26640Y-46246D01*
X26716Y-46284D01*
X26754Y-46322D01*
X26792Y-46398D01*
X26831Y-46551D01*
X26831Y-46741D01*
X26792Y-46893D01*
X26754Y-46970D01*
X26716Y-47008D01*
X26640Y-47046D01*
X26564Y-47046D01*
X26488Y-47008D01*
X26450Y-46970D01*
X26411Y-46893D01*
X26373Y-46741D01*
X26373Y-46551D01*
X26411Y-46398D01*
X26450Y-46322D01*
X26488Y-46284D01*
X26564Y-46246D01*
X27173Y-46970D02*
X27212Y-47008D01*
X27173Y-47046D01*
X27135Y-47008D01*
X27173Y-46970D01*
X27173Y-47046D01*
X27669Y-46589D02*
X27593Y-46551D01*
X27554Y-46512D01*
X27516Y-46436D01*
X27516Y-46398D01*
X27554Y-46322D01*
X27593Y-46284D01*
X27669Y-46246D01*
X27821Y-46246D01*
X27897Y-46284D01*
X27935Y-46322D01*
X27974Y-46398D01*
X27974Y-46436D01*
X27935Y-46512D01*
X27897Y-46551D01*
X27821Y-46589D01*
X27669Y-46589D01*
X27593Y-46627D01*
X27554Y-46665D01*
X27516Y-46741D01*
X27516Y-46893D01*
X27554Y-46970D01*
X27593Y-47008D01*
X27669Y-47046D01*
X27821Y-47046D01*
X27897Y-47008D01*
X27935Y-46970D01*
X27974Y-46893D01*
X27974Y-46741D01*
X27935Y-46665D01*
X27897Y-46627D01*
X27821Y-46589D01*
X28736Y-47046D02*
X28278Y-47046D01*
X28507Y-47046D02*
X28507Y-46246D01*
X28431Y-46360D01*
X28355Y-46436D01*
X28278Y-46474D01*
X29078Y-47046D02*
X29078Y-46512D01*
X29078Y-46589D02*
X29117Y-46551D01*
X29193Y-46512D01*
X29307Y-46512D01*
X29383Y-46551D01*
X29421Y-46627D01*
X29421Y-47046D01*
X29421Y-46627D02*
X29459Y-46551D01*
X29536Y-46512D01*
X29650Y-46512D01*
X29726Y-46551D01*
X29764Y-46627D01*
X29764Y-47046D01*
X30145Y-47046D02*
X30145Y-46512D01*
X30145Y-46589D02*
X30184Y-46551D01*
X30260Y-46512D01*
X30374Y-46512D01*
X30450Y-46551D01*
X30488Y-46627D01*
X30488Y-47046D01*
X30488Y-46627D02*
X30526Y-46551D01*
X30603Y-46512D01*
X30717Y-46512D01*
X30793Y-46551D01*
X30831Y-46627D01*
X30831Y-47046D01*
X32051Y-47351D02*
X32013Y-47312D01*
X31937Y-47198D01*
X31899Y-47122D01*
X31861Y-47008D01*
X31822Y-46817D01*
X31822Y-46665D01*
X31861Y-46474D01*
X31899Y-46360D01*
X31937Y-46284D01*
X32013Y-46170D01*
X32051Y-46132D01*
X32775Y-47046D02*
X32317Y-47046D01*
X32546Y-47046D02*
X32546Y-46246D01*
X32470Y-46360D01*
X32394Y-46436D01*
X32317Y-46474D01*
X33537Y-47046D02*
X33079Y-47046D01*
X33308Y-47046D02*
X33308Y-46246D01*
X33232Y-46360D01*
X33156Y-46436D01*
X33079Y-46474D01*
X34260Y-46246D02*
X33879Y-46246D01*
X33841Y-46627D01*
X33879Y-46589D01*
X33956Y-46551D01*
X34146Y-46551D01*
X34222Y-46589D01*
X34260Y-46627D01*
X34299Y-46703D01*
X34299Y-46893D01*
X34260Y-46970D01*
X34222Y-47008D01*
X34146Y-47046D01*
X33956Y-47046D01*
X33879Y-47008D01*
X33841Y-46970D01*
X35251Y-47046D02*
X35251Y-46246D01*
X35594Y-47046D02*
X35594Y-46627D01*
X35556Y-46551D01*
X35480Y-46512D01*
X35366Y-46512D01*
X35290Y-46551D01*
X35251Y-46589D01*
X36090Y-47046D02*
X36014Y-47008D01*
X35975Y-46970D01*
X35937Y-46893D01*
X35937Y-46665D01*
X35975Y-46589D01*
X36014Y-46551D01*
X36090Y-46512D01*
X36204Y-46512D01*
X36280Y-46551D01*
X36318Y-46589D01*
X36356Y-46665D01*
X36356Y-46893D01*
X36318Y-46970D01*
X36280Y-47008D01*
X36204Y-47046D01*
X36090Y-47046D01*
X36814Y-47046D02*
X36738Y-47008D01*
X36699Y-46932D01*
X36699Y-46246D01*
X37423Y-47008D02*
X37347Y-47046D01*
X37195Y-47046D01*
X37118Y-47008D01*
X37080Y-46932D01*
X37080Y-46627D01*
X37118Y-46551D01*
X37195Y-46512D01*
X37347Y-46512D01*
X37423Y-46551D01*
X37461Y-46627D01*
X37461Y-46703D01*
X37080Y-46779D01*
X37766Y-47008D02*
X37843Y-47046D01*
X37995Y-47046D01*
X38071Y-47008D01*
X38109Y-46932D01*
X38109Y-46893D01*
X38071Y-46817D01*
X37995Y-46779D01*
X37881Y-46779D01*
X37804Y-46741D01*
X37766Y-46665D01*
X37766Y-46627D01*
X37804Y-46551D01*
X37881Y-46512D01*
X37995Y-46512D01*
X38071Y-46551D01*
X38376Y-47351D02*
X38414Y-47312D01*
X38491Y-47198D01*
X38529Y-47122D01*
X38567Y-47008D01*
X38605Y-46817D01*
X38605Y-46665D01*
X38567Y-46474D01*
X38529Y-46360D01*
X38491Y-46284D01*
X38414Y-46170D01*
X38376Y-46132D01*
G54D10*
X19924Y-47778D02*
X19920Y-47816D01*
X19908Y-47854D01*
X19890Y-47888D01*
X19865Y-47918D01*
X19835Y-47943D01*
X19801Y-47962D01*
X19764Y-47973D01*
X19725Y-47977D01*
X19687Y-47974D01*
X19650Y-47963D01*
X19615Y-47945D01*
X19585Y-47920D01*
X19559Y-47890D01*
X19541Y-47856D01*
X19529Y-47819D01*
X19525Y-47780D01*
X19528Y-47742D01*
X19539Y-47705D01*
X19556Y-47670D01*
X19581Y-47640D01*
X19610Y-47614D01*
X19644Y-47595D01*
X19682Y-47583D01*
X19720Y-47579D01*
X19758Y-47582D01*
X19796Y-47592D01*
X19831Y-47610D01*
X19861Y-47634D01*
X19887Y-47663D01*
X19906Y-47697D01*
X19919Y-47734D01*
X19923Y-47773D01*
X19924Y-47778D01*
X19524Y-47578D02*
X19924Y-47978D01*
X19924Y-47578D02*
X19524Y-47978D01*
G54D12*
X20467Y-47302D02*
X20543Y-47302D01*
X20619Y-47340D01*
X20657Y-47378D01*
X20695Y-47454D01*
X20734Y-47607D01*
X20734Y-47797D01*
X20695Y-47949D01*
X20657Y-48026D01*
X20619Y-48064D01*
X20543Y-48102D01*
X20467Y-48102D01*
X20391Y-48064D01*
X20353Y-48026D01*
X20314Y-47949D01*
X20276Y-47797D01*
X20276Y-47607D01*
X20314Y-47454D01*
X20353Y-47378D01*
X20391Y-47340D01*
X20467Y-47302D01*
X21076Y-48026D02*
X21115Y-48064D01*
X21076Y-48102D01*
X21038Y-48064D01*
X21076Y-48026D01*
X21076Y-48102D01*
X21610Y-47302D02*
X21686Y-47302D01*
X21762Y-47340D01*
X21800Y-47378D01*
X21838Y-47454D01*
X21877Y-47607D01*
X21877Y-47797D01*
X21838Y-47949D01*
X21800Y-48026D01*
X21762Y-48064D01*
X21686Y-48102D01*
X21610Y-48102D01*
X21534Y-48064D01*
X21496Y-48026D01*
X21457Y-47949D01*
X21419Y-47797D01*
X21419Y-47607D01*
X21457Y-47454D01*
X21496Y-47378D01*
X21534Y-47340D01*
X21610Y-47302D01*
X22562Y-47568D02*
X22562Y-48102D01*
X22372Y-47264D02*
X22181Y-47835D01*
X22677Y-47835D01*
X23134Y-47302D02*
X23210Y-47302D01*
X23286Y-47340D01*
X23324Y-47378D01*
X23362Y-47454D01*
X23401Y-47607D01*
X23401Y-47797D01*
X23362Y-47949D01*
X23324Y-48026D01*
X23286Y-48064D01*
X23210Y-48102D01*
X23134Y-48102D01*
X23058Y-48064D01*
X23020Y-48026D01*
X22981Y-47949D01*
X22943Y-47797D01*
X22943Y-47607D01*
X22981Y-47454D01*
X23020Y-47378D01*
X23058Y-47340D01*
X23134Y-47302D01*
X23705Y-47302D02*
X23705Y-47454D01*
X24010Y-47302D02*
X24010Y-47454D01*
X25535Y-47264D02*
X24849Y-48292D01*
X26831Y-48102D02*
X26373Y-48102D01*
X26602Y-48102D02*
X26602Y-47302D01*
X26526Y-47416D01*
X26450Y-47492D01*
X26373Y-47530D01*
X27173Y-48026D02*
X27212Y-48064D01*
X27173Y-48102D01*
X27135Y-48064D01*
X27173Y-48026D01*
X27173Y-48102D01*
X27707Y-47302D02*
X27783Y-47302D01*
X27859Y-47340D01*
X27897Y-47378D01*
X27935Y-47454D01*
X27974Y-47607D01*
X27974Y-47797D01*
X27935Y-47949D01*
X27897Y-48026D01*
X27859Y-48064D01*
X27783Y-48102D01*
X27707Y-48102D01*
X27631Y-48064D01*
X27593Y-48026D01*
X27554Y-47949D01*
X27516Y-47797D01*
X27516Y-47607D01*
X27554Y-47454D01*
X27593Y-47378D01*
X27631Y-47340D01*
X27707Y-47302D01*
X28278Y-47378D02*
X28316Y-47340D01*
X28393Y-47302D01*
X28583Y-47302D01*
X28659Y-47340D01*
X28697Y-47378D01*
X28736Y-47454D01*
X28736Y-47530D01*
X28697Y-47645D01*
X28240Y-48102D01*
X28736Y-48102D01*
X29078Y-48102D02*
X29078Y-47568D01*
X29078Y-47645D02*
X29117Y-47607D01*
X29193Y-47568D01*
X29307Y-47568D01*
X29383Y-47607D01*
X29421Y-47683D01*
X29421Y-48102D01*
X29421Y-47683D02*
X29459Y-47607D01*
X29536Y-47568D01*
X29650Y-47568D01*
X29726Y-47607D01*
X29764Y-47683D01*
X29764Y-48102D01*
X30145Y-48102D02*
X30145Y-47568D01*
X30145Y-47645D02*
X30184Y-47607D01*
X30260Y-47568D01*
X30374Y-47568D01*
X30450Y-47607D01*
X30488Y-47683D01*
X30488Y-48102D01*
X30488Y-47683D02*
X30526Y-47607D01*
X30603Y-47568D01*
X30717Y-47568D01*
X30793Y-47607D01*
X30831Y-47683D01*
X30831Y-48102D01*
X32051Y-48407D02*
X32013Y-48368D01*
X31937Y-48254D01*
X31899Y-48178D01*
X31861Y-48064D01*
X31822Y-47873D01*
X31822Y-47721D01*
X31861Y-47530D01*
X31899Y-47416D01*
X31937Y-47340D01*
X32013Y-47226D01*
X32051Y-47188D01*
X32394Y-48102D02*
X32546Y-48102D01*
X32622Y-48064D01*
X32660Y-48026D01*
X32736Y-47911D01*
X32775Y-47759D01*
X32775Y-47454D01*
X32736Y-47378D01*
X32698Y-47340D01*
X32622Y-47302D01*
X32470Y-47302D01*
X32394Y-47340D01*
X32355Y-47378D01*
X32317Y-47454D01*
X32317Y-47645D01*
X32355Y-47721D01*
X32394Y-47759D01*
X32470Y-47797D01*
X32622Y-47797D01*
X32698Y-47759D01*
X32736Y-47721D01*
X32775Y-47645D01*
X33460Y-47302D02*
X33308Y-47302D01*
X33232Y-47340D01*
X33194Y-47378D01*
X33117Y-47492D01*
X33079Y-47645D01*
X33079Y-47949D01*
X33117Y-48026D01*
X33156Y-48064D01*
X33232Y-48102D01*
X33384Y-48102D01*
X33460Y-48064D01*
X33498Y-48026D01*
X33537Y-47949D01*
X33537Y-47759D01*
X33498Y-47683D01*
X33460Y-47645D01*
X33384Y-47607D01*
X33232Y-47607D01*
X33156Y-47645D01*
X33117Y-47683D01*
X33079Y-47759D01*
X34489Y-48102D02*
X34489Y-47302D01*
X34832Y-48102D02*
X34832Y-47683D01*
X34794Y-47607D01*
X34718Y-47568D01*
X34604Y-47568D01*
X34528Y-47607D01*
X34489Y-47645D01*
X35328Y-48102D02*
X35252Y-48064D01*
X35213Y-48026D01*
X35175Y-47949D01*
X35175Y-47721D01*
X35213Y-47645D01*
X35252Y-47607D01*
X35328Y-47568D01*
X35442Y-47568D01*
X35518Y-47607D01*
X35556Y-47645D01*
X35594Y-47721D01*
X35594Y-47949D01*
X35556Y-48026D01*
X35518Y-48064D01*
X35442Y-48102D01*
X35328Y-48102D01*
X36052Y-48102D02*
X35976Y-48064D01*
X35937Y-47988D01*
X35937Y-47302D01*
X36661Y-48064D02*
X36585Y-48102D01*
X36433Y-48102D01*
X36356Y-48064D01*
X36318Y-47988D01*
X36318Y-47683D01*
X36356Y-47607D01*
X36433Y-47568D01*
X36585Y-47568D01*
X36661Y-47607D01*
X36699Y-47683D01*
X36699Y-47759D01*
X36318Y-47835D01*
X37004Y-48064D02*
X37081Y-48102D01*
X37233Y-48102D01*
X37309Y-48064D01*
X37347Y-47988D01*
X37347Y-47949D01*
X37309Y-47873D01*
X37233Y-47835D01*
X37119Y-47835D01*
X37042Y-47797D01*
X37004Y-47721D01*
X37004Y-47683D01*
X37042Y-47607D01*
X37119Y-47568D01*
X37233Y-47568D01*
X37309Y-47607D01*
X37614Y-48407D02*
X37652Y-48368D01*
X37729Y-48254D01*
X37767Y-48178D01*
X37805Y-48064D01*
X37843Y-47873D01*
X37843Y-47721D01*
X37805Y-47530D01*
X37767Y-47416D01*
X37729Y-47340D01*
X37652Y-47226D01*
X37614Y-47188D01*
G54D10*
X19924Y-48834D02*
X19911Y-48960D01*
X19874Y-49081D01*
X19815Y-49193D01*
X19735Y-49292D01*
X19637Y-49372D01*
X19525Y-49433D01*
X19404Y-49470D01*
X19278Y-49483D01*
X19153Y-49472D01*
X19031Y-49436D01*
X18919Y-49377D01*
X18820Y-49298D01*
X18738Y-49201D01*
X18677Y-49090D01*
X18639Y-48969D01*
X18625Y-48843D01*
X18635Y-48717D01*
X18670Y-48595D01*
X18728Y-48482D01*
X18807Y-48383D01*
X18904Y-48301D01*
X19014Y-48239D01*
X19135Y-48200D01*
X19261Y-48185D01*
X19386Y-48194D01*
X19509Y-48228D01*
X19622Y-48286D01*
X19722Y-48364D01*
X19805Y-48460D01*
X19867Y-48570D01*
X19907Y-48690D01*
X19923Y-48816D01*
X19924Y-48834D01*
X18624Y-48834D02*
X19924Y-48834D01*
G54D12*
X20467Y-48358D02*
X20543Y-48358D01*
X20619Y-48396D01*
X20657Y-48434D01*
X20695Y-48510D01*
X20734Y-48663D01*
X20734Y-48853D01*
X20695Y-49005D01*
X20657Y-49082D01*
X20619Y-49120D01*
X20543Y-49158D01*
X20467Y-49158D01*
X20391Y-49120D01*
X20353Y-49082D01*
X20314Y-49005D01*
X20276Y-48853D01*
X20276Y-48663D01*
X20314Y-48510D01*
X20353Y-48434D01*
X20391Y-48396D01*
X20467Y-48358D01*
X21076Y-49082D02*
X21115Y-49120D01*
X21076Y-49158D01*
X21038Y-49120D01*
X21076Y-49082D01*
X21076Y-49158D01*
X21877Y-49158D02*
X21419Y-49158D01*
X21648Y-49158D02*
X21648Y-48358D01*
X21572Y-48472D01*
X21496Y-48548D01*
X21419Y-48586D01*
X22143Y-48358D02*
X22639Y-48358D01*
X22372Y-48663D01*
X22486Y-48663D01*
X22562Y-48701D01*
X22600Y-48739D01*
X22639Y-48815D01*
X22639Y-49005D01*
X22600Y-49082D01*
X22562Y-49120D01*
X22486Y-49158D01*
X22258Y-49158D01*
X22181Y-49120D01*
X22143Y-49082D01*
X23134Y-48358D02*
X23210Y-48358D01*
X23286Y-48396D01*
X23324Y-48434D01*
X23362Y-48510D01*
X23401Y-48663D01*
X23401Y-48853D01*
X23362Y-49005D01*
X23324Y-49082D01*
X23286Y-49120D01*
X23210Y-49158D01*
X23134Y-49158D01*
X23058Y-49120D01*
X23020Y-49082D01*
X22981Y-49005D01*
X22943Y-48853D01*
X22943Y-48663D01*
X22981Y-48510D01*
X23020Y-48434D01*
X23058Y-48396D01*
X23134Y-48358D01*
X23705Y-48358D02*
X23705Y-48510D01*
X24010Y-48358D02*
X24010Y-48510D01*
X25535Y-48320D02*
X24849Y-49348D01*
X26335Y-48358D02*
X26831Y-48358D01*
X26564Y-48663D01*
X26678Y-48663D01*
X26754Y-48701D01*
X26792Y-48739D01*
X26831Y-48815D01*
X26831Y-49005D01*
X26792Y-49082D01*
X26754Y-49120D01*
X26678Y-49158D01*
X26450Y-49158D01*
X26373Y-49120D01*
X26335Y-49082D01*
X27173Y-49082D02*
X27212Y-49120D01*
X27173Y-49158D01*
X27135Y-49120D01*
X27173Y-49082D01*
X27173Y-49158D01*
X27478Y-48358D02*
X27974Y-48358D01*
X27707Y-48663D01*
X27821Y-48663D01*
X27897Y-48701D01*
X27935Y-48739D01*
X27974Y-48815D01*
X27974Y-49005D01*
X27935Y-49082D01*
X27897Y-49120D01*
X27821Y-49158D01*
X27593Y-49158D01*
X27516Y-49120D01*
X27478Y-49082D01*
X28469Y-48358D02*
X28545Y-48358D01*
X28621Y-48396D01*
X28659Y-48434D01*
X28697Y-48510D01*
X28736Y-48663D01*
X28736Y-48853D01*
X28697Y-49005D01*
X28659Y-49082D01*
X28621Y-49120D01*
X28545Y-49158D01*
X28469Y-49158D01*
X28393Y-49120D01*
X28355Y-49082D01*
X28316Y-49005D01*
X28278Y-48853D01*
X28278Y-48663D01*
X28316Y-48510D01*
X28355Y-48434D01*
X28393Y-48396D01*
X28469Y-48358D01*
X29078Y-49158D02*
X29078Y-48624D01*
X29078Y-48701D02*
X29117Y-48663D01*
X29193Y-48624D01*
X29307Y-48624D01*
X29383Y-48663D01*
X29421Y-48739D01*
X29421Y-49158D01*
X29421Y-48739D02*
X29459Y-48663D01*
X29536Y-48624D01*
X29650Y-48624D01*
X29726Y-48663D01*
X29764Y-48739D01*
X29764Y-49158D01*
X30145Y-49158D02*
X30145Y-48624D01*
X30145Y-48701D02*
X30184Y-48663D01*
X30260Y-48624D01*
X30374Y-48624D01*
X30450Y-48663D01*
X30488Y-48739D01*
X30488Y-49158D01*
X30488Y-48739D02*
X30526Y-48663D01*
X30603Y-48624D01*
X30717Y-48624D01*
X30793Y-48663D01*
X30831Y-48739D01*
X30831Y-49158D01*
X32051Y-49463D02*
X32013Y-49424D01*
X31937Y-49310D01*
X31899Y-49234D01*
X31861Y-49120D01*
X31822Y-48929D01*
X31822Y-48777D01*
X31861Y-48586D01*
X31899Y-48472D01*
X31937Y-48396D01*
X32013Y-48282D01*
X32051Y-48244D01*
X32698Y-48624D02*
X32698Y-49158D01*
X32508Y-48320D02*
X32317Y-48891D01*
X32813Y-48891D01*
X33727Y-49158D02*
X33727Y-48358D01*
X34070Y-49158D02*
X34070Y-48739D01*
X34032Y-48663D01*
X33956Y-48624D01*
X33842Y-48624D01*
X33766Y-48663D01*
X33727Y-48701D01*
X34566Y-49158D02*
X34490Y-49120D01*
X34451Y-49082D01*
X34413Y-49005D01*
X34413Y-48777D01*
X34451Y-48701D01*
X34490Y-48663D01*
X34566Y-48624D01*
X34680Y-48624D01*
X34756Y-48663D01*
X34794Y-48701D01*
X34832Y-48777D01*
X34832Y-49005D01*
X34794Y-49082D01*
X34756Y-49120D01*
X34680Y-49158D01*
X34566Y-49158D01*
X35290Y-49158D02*
X35214Y-49120D01*
X35175Y-49044D01*
X35175Y-48358D01*
X35899Y-49120D02*
X35823Y-49158D01*
X35671Y-49158D01*
X35594Y-49120D01*
X35556Y-49044D01*
X35556Y-48739D01*
X35594Y-48663D01*
X35671Y-48624D01*
X35823Y-48624D01*
X35899Y-48663D01*
X35937Y-48739D01*
X35937Y-48815D01*
X35556Y-48891D01*
X36242Y-49120D02*
X36319Y-49158D01*
X36471Y-49158D01*
X36547Y-49120D01*
X36585Y-49044D01*
X36585Y-49005D01*
X36547Y-48929D01*
X36471Y-48891D01*
X36357Y-48891D01*
X36280Y-48853D01*
X36242Y-48777D01*
X36242Y-48739D01*
X36280Y-48663D01*
X36357Y-48624D01*
X36471Y-48624D01*
X36547Y-48663D01*
X36852Y-49463D02*
X36890Y-49424D01*
X36967Y-49310D01*
X37005Y-49234D01*
X37043Y-49120D01*
X37081Y-48929D01*
X37081Y-48777D01*
X37043Y-48586D01*
X37005Y-48472D01*
X36967Y-48396D01*
X36890Y-48282D01*
X36852Y-48244D01*
M02*
