G04 (created by PCBNEW-RS274X (2011-05-25)-stable) date Sun 15 Sep 2013 09:34:25 PM EDT*
G01*
G70*
G90*
%MOIN*%
G04 Gerber Fmt 3.4, Leading zero omitted, Abs format*
%FSLAX34Y34*%
G04 APERTURE LIST*
%ADD10C,0.006000*%
%ADD11C,0.007500*%
%ADD12C,0.012000*%
%ADD13C,0.015000*%
%ADD14C,0.005000*%
%ADD15C,0.012500*%
%ADD16C,0.010000*%
%ADD17C,0.010700*%
%ADD18C,0.011300*%
%ADD19C,0.008000*%
%ADD20C,0.003500*%
G04 APERTURE END LIST*
G54D10*
G54D11*
X31386Y-33393D02*
X31429Y-33412D01*
X31500Y-33412D01*
X31529Y-33393D01*
X31543Y-33374D01*
X31558Y-33336D01*
X31558Y-33298D01*
X31543Y-33260D01*
X31529Y-33240D01*
X31500Y-33221D01*
X31443Y-33202D01*
X31415Y-33183D01*
X31400Y-33164D01*
X31386Y-33126D01*
X31386Y-33088D01*
X31400Y-33050D01*
X31415Y-33031D01*
X31443Y-33012D01*
X31515Y-33012D01*
X31558Y-33031D01*
X31686Y-33412D02*
X31686Y-33012D01*
X31758Y-33012D01*
X31801Y-33031D01*
X31829Y-33069D01*
X31844Y-33107D01*
X31858Y-33183D01*
X31858Y-33240D01*
X31844Y-33317D01*
X31829Y-33355D01*
X31801Y-33393D01*
X31758Y-33412D01*
X31686Y-33412D01*
X31972Y-33298D02*
X32115Y-33298D01*
X31944Y-33412D02*
X32044Y-33012D01*
X32144Y-33412D01*
X29221Y-33412D02*
X29078Y-33412D01*
X29078Y-33012D01*
X29307Y-33393D02*
X29350Y-33412D01*
X29421Y-33412D01*
X29450Y-33393D01*
X29464Y-33374D01*
X29479Y-33336D01*
X29479Y-33298D01*
X29464Y-33260D01*
X29450Y-33240D01*
X29421Y-33221D01*
X29364Y-33202D01*
X29336Y-33183D01*
X29321Y-33164D01*
X29307Y-33126D01*
X29307Y-33088D01*
X29321Y-33050D01*
X29336Y-33031D01*
X29364Y-33012D01*
X29436Y-33012D01*
X29479Y-33031D01*
X29607Y-33412D02*
X29607Y-33012D01*
X29707Y-33298D01*
X29807Y-33012D01*
X29807Y-33412D01*
X29879Y-33450D02*
X30108Y-33450D01*
X30165Y-33393D02*
X30208Y-33412D01*
X30279Y-33412D01*
X30308Y-33393D01*
X30322Y-33374D01*
X30337Y-33336D01*
X30337Y-33298D01*
X30322Y-33260D01*
X30308Y-33240D01*
X30279Y-33221D01*
X30222Y-33202D01*
X30194Y-33183D01*
X30179Y-33164D01*
X30165Y-33126D01*
X30165Y-33088D01*
X30179Y-33050D01*
X30194Y-33031D01*
X30222Y-33012D01*
X30294Y-33012D01*
X30337Y-33031D01*
X30637Y-33374D02*
X30623Y-33393D01*
X30580Y-33412D01*
X30551Y-33412D01*
X30508Y-33393D01*
X30480Y-33355D01*
X30465Y-33317D01*
X30451Y-33240D01*
X30451Y-33183D01*
X30465Y-33107D01*
X30480Y-33069D01*
X30508Y-33031D01*
X30551Y-33012D01*
X30580Y-33012D01*
X30623Y-33031D01*
X30637Y-33050D01*
X30765Y-33412D02*
X30765Y-33012D01*
X30937Y-33412D02*
X30808Y-33183D01*
X30937Y-33012D02*
X30765Y-33240D01*
X49393Y-24143D02*
X49436Y-24162D01*
X49507Y-24162D01*
X49536Y-24143D01*
X49550Y-24124D01*
X49565Y-24086D01*
X49565Y-24048D01*
X49550Y-24010D01*
X49536Y-23990D01*
X49507Y-23971D01*
X49450Y-23952D01*
X49422Y-23933D01*
X49407Y-23914D01*
X49393Y-23876D01*
X49393Y-23838D01*
X49407Y-23800D01*
X49422Y-23781D01*
X49450Y-23762D01*
X49522Y-23762D01*
X49565Y-23781D01*
X49865Y-24124D02*
X49851Y-24143D01*
X49808Y-24162D01*
X49779Y-24162D01*
X49736Y-24143D01*
X49708Y-24105D01*
X49693Y-24067D01*
X49679Y-23990D01*
X49679Y-23933D01*
X49693Y-23857D01*
X49708Y-23819D01*
X49736Y-23781D01*
X49779Y-23762D01*
X49808Y-23762D01*
X49851Y-23781D01*
X49865Y-23800D01*
X50136Y-24162D02*
X49993Y-24162D01*
X49993Y-23762D01*
X48514Y-24162D02*
X48514Y-23762D01*
X48586Y-23762D01*
X48629Y-23781D01*
X48657Y-23819D01*
X48672Y-23857D01*
X48686Y-23933D01*
X48686Y-23990D01*
X48672Y-24067D01*
X48657Y-24105D01*
X48629Y-24143D01*
X48586Y-24162D01*
X48514Y-24162D01*
X48872Y-23762D02*
X48929Y-23762D01*
X48957Y-23781D01*
X48986Y-23819D01*
X49000Y-23895D01*
X49000Y-24029D01*
X48986Y-24105D01*
X48957Y-24143D01*
X48929Y-24162D01*
X48872Y-24162D01*
X48843Y-24143D01*
X48814Y-24105D01*
X48800Y-24029D01*
X48800Y-23895D01*
X48814Y-23819D01*
X48843Y-23781D01*
X48872Y-23762D01*
X47600Y-24162D02*
X47600Y-23762D01*
X47672Y-23762D01*
X47715Y-23781D01*
X47743Y-23819D01*
X47758Y-23857D01*
X47772Y-23933D01*
X47772Y-23990D01*
X47758Y-24067D01*
X47743Y-24105D01*
X47715Y-24143D01*
X47672Y-24162D01*
X47600Y-24162D01*
X47900Y-24162D02*
X47900Y-23762D01*
X46700Y-24124D02*
X46686Y-24143D01*
X46643Y-24162D01*
X46614Y-24162D01*
X46571Y-24143D01*
X46543Y-24105D01*
X46528Y-24067D01*
X46514Y-23990D01*
X46514Y-23933D01*
X46528Y-23857D01*
X46543Y-23819D01*
X46571Y-23781D01*
X46614Y-23762D01*
X46643Y-23762D01*
X46686Y-23781D01*
X46700Y-23800D01*
X46814Y-24143D02*
X46857Y-24162D01*
X46928Y-24162D01*
X46957Y-24143D01*
X46971Y-24124D01*
X46986Y-24086D01*
X46986Y-24048D01*
X46971Y-24010D01*
X46957Y-23990D01*
X46928Y-23971D01*
X46871Y-23952D01*
X46843Y-23933D01*
X46828Y-23914D01*
X46814Y-23876D01*
X46814Y-23838D01*
X46828Y-23800D01*
X46843Y-23781D01*
X46871Y-23762D01*
X46943Y-23762D01*
X46986Y-23781D01*
X43386Y-24143D02*
X43429Y-24162D01*
X43500Y-24162D01*
X43529Y-24143D01*
X43543Y-24124D01*
X43558Y-24086D01*
X43558Y-24048D01*
X43543Y-24010D01*
X43529Y-23990D01*
X43500Y-23971D01*
X43443Y-23952D01*
X43415Y-23933D01*
X43400Y-23914D01*
X43386Y-23876D01*
X43386Y-23838D01*
X43400Y-23800D01*
X43415Y-23781D01*
X43443Y-23762D01*
X43515Y-23762D01*
X43558Y-23781D01*
X43686Y-24162D02*
X43686Y-23762D01*
X43758Y-23762D01*
X43801Y-23781D01*
X43829Y-23819D01*
X43844Y-23857D01*
X43858Y-23933D01*
X43858Y-23990D01*
X43844Y-24067D01*
X43829Y-24105D01*
X43801Y-24143D01*
X43758Y-24162D01*
X43686Y-24162D01*
X43972Y-24048D02*
X44115Y-24048D01*
X43944Y-24162D02*
X44044Y-23762D01*
X44144Y-24162D01*
X42393Y-24143D02*
X42436Y-24162D01*
X42507Y-24162D01*
X42536Y-24143D01*
X42550Y-24124D01*
X42565Y-24086D01*
X42565Y-24048D01*
X42550Y-24010D01*
X42536Y-23990D01*
X42507Y-23971D01*
X42450Y-23952D01*
X42422Y-23933D01*
X42407Y-23914D01*
X42393Y-23876D01*
X42393Y-23838D01*
X42407Y-23800D01*
X42422Y-23781D01*
X42450Y-23762D01*
X42522Y-23762D01*
X42565Y-23781D01*
X42865Y-24124D02*
X42851Y-24143D01*
X42808Y-24162D01*
X42779Y-24162D01*
X42736Y-24143D01*
X42708Y-24105D01*
X42693Y-24067D01*
X42679Y-23990D01*
X42679Y-23933D01*
X42693Y-23857D01*
X42708Y-23819D01*
X42736Y-23781D01*
X42779Y-23762D01*
X42808Y-23762D01*
X42851Y-23781D01*
X42865Y-23800D01*
X43136Y-24162D02*
X42993Y-24162D01*
X42993Y-23762D01*
X45543Y-23762D02*
X45714Y-23762D01*
X45628Y-24162D02*
X45628Y-23762D01*
X45786Y-24162D02*
X45943Y-23895D01*
X45786Y-23895D02*
X45943Y-24162D01*
X44722Y-24162D02*
X44622Y-23971D01*
X44550Y-24162D02*
X44550Y-23762D01*
X44665Y-23762D01*
X44693Y-23781D01*
X44708Y-23800D01*
X44722Y-23838D01*
X44722Y-23895D01*
X44708Y-23933D01*
X44693Y-23952D01*
X44665Y-23971D01*
X44550Y-23971D01*
X44822Y-24162D02*
X44979Y-23895D01*
X44822Y-23895D02*
X44979Y-24162D01*
G54D12*
X46515Y-22774D02*
X46886Y-22774D01*
X46686Y-23079D01*
X46772Y-23079D01*
X46829Y-23117D01*
X46858Y-23155D01*
X46886Y-23231D01*
X46886Y-23421D01*
X46858Y-23498D01*
X46829Y-23536D01*
X46772Y-23574D01*
X46600Y-23574D01*
X46543Y-23536D01*
X46515Y-23498D01*
X47171Y-23574D02*
X47286Y-23574D01*
X47343Y-23536D01*
X47371Y-23498D01*
X47429Y-23383D01*
X47457Y-23231D01*
X47457Y-22926D01*
X47429Y-22850D01*
X47400Y-22812D01*
X47343Y-22774D01*
X47229Y-22774D01*
X47171Y-22812D01*
X47143Y-22850D01*
X47114Y-22926D01*
X47114Y-23117D01*
X47143Y-23193D01*
X47171Y-23231D01*
X47229Y-23269D01*
X47343Y-23269D01*
X47400Y-23231D01*
X47429Y-23193D01*
X47457Y-23117D01*
X41543Y-22850D02*
X41572Y-22812D01*
X41629Y-22774D01*
X41772Y-22774D01*
X41829Y-22812D01*
X41858Y-22850D01*
X41886Y-22926D01*
X41886Y-23002D01*
X41858Y-23117D01*
X41515Y-23574D01*
X41886Y-23574D01*
X42171Y-23574D02*
X42286Y-23574D01*
X42343Y-23536D01*
X42371Y-23498D01*
X42429Y-23383D01*
X42457Y-23231D01*
X42457Y-22926D01*
X42429Y-22850D01*
X42400Y-22812D01*
X42343Y-22774D01*
X42229Y-22774D01*
X42171Y-22812D01*
X42143Y-22850D01*
X42114Y-22926D01*
X42114Y-23117D01*
X42143Y-23193D01*
X42171Y-23231D01*
X42229Y-23269D01*
X42343Y-23269D01*
X42400Y-23231D01*
X42429Y-23193D01*
X42457Y-23117D01*
X36886Y-24074D02*
X36543Y-24074D01*
X36715Y-24074D02*
X36715Y-23274D01*
X36658Y-23388D01*
X36600Y-23464D01*
X36543Y-23502D01*
X37171Y-24074D02*
X37286Y-24074D01*
X37343Y-24036D01*
X37371Y-23998D01*
X37429Y-23883D01*
X37457Y-23731D01*
X37457Y-23426D01*
X37429Y-23350D01*
X37400Y-23312D01*
X37343Y-23274D01*
X37229Y-23274D01*
X37171Y-23312D01*
X37143Y-23350D01*
X37114Y-23426D01*
X37114Y-23617D01*
X37143Y-23693D01*
X37171Y-23731D01*
X37229Y-23769D01*
X37343Y-23769D01*
X37400Y-23731D01*
X37429Y-23693D01*
X37457Y-23617D01*
X31886Y-23324D02*
X32001Y-23324D01*
X32058Y-23286D01*
X32086Y-23248D01*
X32144Y-23133D01*
X32172Y-22981D01*
X32172Y-22676D01*
X32144Y-22600D01*
X32115Y-22562D01*
X32058Y-22524D01*
X31944Y-22524D01*
X31886Y-22562D01*
X31858Y-22600D01*
X31829Y-22676D01*
X31829Y-22867D01*
X31858Y-22943D01*
X31886Y-22981D01*
X31944Y-23019D01*
X32058Y-23019D01*
X32115Y-22981D01*
X32144Y-22943D01*
X32172Y-22867D01*
G54D11*
X50886Y-39643D02*
X50929Y-39662D01*
X51000Y-39662D01*
X51029Y-39643D01*
X51043Y-39624D01*
X51058Y-39586D01*
X51058Y-39548D01*
X51043Y-39510D01*
X51029Y-39490D01*
X51000Y-39471D01*
X50943Y-39452D01*
X50915Y-39433D01*
X50900Y-39414D01*
X50886Y-39376D01*
X50886Y-39338D01*
X50900Y-39300D01*
X50915Y-39281D01*
X50943Y-39262D01*
X51015Y-39262D01*
X51058Y-39281D01*
X51186Y-39662D02*
X51186Y-39262D01*
X51258Y-39262D01*
X51301Y-39281D01*
X51329Y-39319D01*
X51344Y-39357D01*
X51358Y-39433D01*
X51358Y-39490D01*
X51344Y-39567D01*
X51329Y-39605D01*
X51301Y-39643D01*
X51258Y-39662D01*
X51186Y-39662D01*
X51472Y-39548D02*
X51615Y-39548D01*
X51444Y-39662D02*
X51544Y-39262D01*
X51644Y-39662D01*
X50864Y-40893D02*
X50907Y-40912D01*
X50978Y-40912D01*
X51007Y-40893D01*
X51021Y-40874D01*
X51036Y-40836D01*
X51036Y-40798D01*
X51021Y-40760D01*
X51007Y-40740D01*
X50978Y-40721D01*
X50921Y-40702D01*
X50893Y-40683D01*
X50878Y-40664D01*
X50864Y-40626D01*
X50864Y-40588D01*
X50878Y-40550D01*
X50893Y-40531D01*
X50921Y-40512D01*
X50993Y-40512D01*
X51036Y-40531D01*
X51336Y-40874D02*
X51322Y-40893D01*
X51279Y-40912D01*
X51250Y-40912D01*
X51207Y-40893D01*
X51179Y-40855D01*
X51164Y-40817D01*
X51150Y-40740D01*
X51150Y-40683D01*
X51164Y-40607D01*
X51179Y-40569D01*
X51207Y-40531D01*
X51250Y-40512D01*
X51279Y-40512D01*
X51322Y-40531D01*
X51336Y-40550D01*
X51464Y-40912D02*
X51464Y-40512D01*
X51636Y-40912D02*
X51507Y-40683D01*
X51636Y-40512D02*
X51464Y-40740D01*
G54D12*
X46829Y-38540D02*
X46829Y-39074D01*
X46686Y-38236D02*
X46543Y-38807D01*
X46915Y-38807D01*
X47257Y-38274D02*
X47314Y-38274D01*
X47371Y-38312D01*
X47400Y-38350D01*
X47429Y-38426D01*
X47457Y-38579D01*
X47457Y-38769D01*
X47429Y-38921D01*
X47400Y-38998D01*
X47371Y-39036D01*
X47314Y-39074D01*
X47257Y-39074D01*
X47200Y-39036D01*
X47171Y-38998D01*
X47143Y-38921D01*
X47114Y-38769D01*
X47114Y-38579D01*
X47143Y-38426D01*
X47171Y-38350D01*
X47200Y-38312D01*
X47257Y-38274D01*
X41515Y-38274D02*
X41886Y-38274D01*
X41686Y-38579D01*
X41772Y-38579D01*
X41829Y-38617D01*
X41858Y-38655D01*
X41886Y-38731D01*
X41886Y-38921D01*
X41858Y-38998D01*
X41829Y-39036D01*
X41772Y-39074D01*
X41600Y-39074D01*
X41543Y-39036D01*
X41515Y-38998D01*
X42257Y-38274D02*
X42314Y-38274D01*
X42371Y-38312D01*
X42400Y-38350D01*
X42429Y-38426D01*
X42457Y-38579D01*
X42457Y-38769D01*
X42429Y-38921D01*
X42400Y-38998D01*
X42371Y-39036D01*
X42314Y-39074D01*
X42257Y-39074D01*
X42200Y-39036D01*
X42171Y-38998D01*
X42143Y-38921D01*
X42114Y-38769D01*
X42114Y-38579D01*
X42143Y-38426D01*
X42171Y-38350D01*
X42200Y-38312D01*
X42257Y-38274D01*
X36543Y-38350D02*
X36572Y-38312D01*
X36629Y-38274D01*
X36772Y-38274D01*
X36829Y-38312D01*
X36858Y-38350D01*
X36886Y-38426D01*
X36886Y-38502D01*
X36858Y-38617D01*
X36515Y-39074D01*
X36886Y-39074D01*
X37257Y-38274D02*
X37314Y-38274D01*
X37371Y-38312D01*
X37400Y-38350D01*
X37429Y-38426D01*
X37457Y-38579D01*
X37457Y-38769D01*
X37429Y-38921D01*
X37400Y-38998D01*
X37371Y-39036D01*
X37314Y-39074D01*
X37257Y-39074D01*
X37200Y-39036D01*
X37171Y-38998D01*
X37143Y-38921D01*
X37114Y-38769D01*
X37114Y-38579D01*
X37143Y-38426D01*
X37171Y-38350D01*
X37200Y-38312D01*
X37257Y-38274D01*
X31886Y-39074D02*
X31543Y-39074D01*
X31715Y-39074D02*
X31715Y-38274D01*
X31658Y-38388D01*
X31600Y-38464D01*
X31543Y-38502D01*
X32257Y-38274D02*
X32314Y-38274D01*
X32371Y-38312D01*
X32400Y-38350D01*
X32429Y-38426D01*
X32457Y-38579D01*
X32457Y-38769D01*
X32429Y-38921D01*
X32400Y-38998D01*
X32371Y-39036D01*
X32314Y-39074D01*
X32257Y-39074D01*
X32200Y-39036D01*
X32171Y-38998D01*
X32143Y-38921D01*
X32114Y-38769D01*
X32114Y-38579D01*
X32143Y-38426D01*
X32171Y-38350D01*
X32200Y-38312D01*
X32257Y-38274D01*
G54D11*
X47307Y-21298D02*
X47450Y-21298D01*
X47279Y-21412D02*
X47379Y-21012D01*
X47479Y-21412D01*
X47578Y-21412D02*
X47578Y-21012D01*
X47721Y-21412D02*
X47721Y-21012D01*
X47893Y-21412D01*
X47893Y-21012D01*
X48193Y-21412D02*
X48021Y-21412D01*
X48107Y-21412D02*
X48107Y-21012D01*
X48078Y-21069D01*
X48050Y-21107D01*
X48021Y-21126D01*
G54D13*
X47353Y-20750D02*
X47346Y-20818D01*
X47326Y-20884D01*
X47294Y-20945D01*
X47250Y-20998D01*
X47197Y-21042D01*
X47136Y-21075D01*
X47070Y-21095D01*
X47002Y-21102D01*
X46934Y-21096D01*
X46868Y-21077D01*
X46807Y-21045D01*
X46754Y-21002D01*
X46709Y-20949D01*
X46676Y-20889D01*
X46655Y-20823D01*
X46648Y-20754D01*
X46653Y-20687D01*
X46672Y-20621D01*
X46704Y-20559D01*
X46747Y-20505D01*
X46799Y-20461D01*
X46859Y-20427D01*
X46925Y-20406D01*
X46993Y-20398D01*
X47061Y-20403D01*
X47127Y-20421D01*
X47189Y-20452D01*
X47243Y-20495D01*
X47288Y-20547D01*
X47322Y-20607D01*
X47344Y-20672D01*
X47352Y-20741D01*
X47353Y-20750D01*
X36353Y-20750D02*
X36346Y-20818D01*
X36326Y-20884D01*
X36294Y-20945D01*
X36250Y-20998D01*
X36197Y-21042D01*
X36136Y-21075D01*
X36070Y-21095D01*
X36002Y-21102D01*
X35934Y-21096D01*
X35868Y-21077D01*
X35807Y-21045D01*
X35754Y-21002D01*
X35709Y-20949D01*
X35676Y-20889D01*
X35655Y-20823D01*
X35648Y-20754D01*
X35653Y-20687D01*
X35672Y-20621D01*
X35704Y-20559D01*
X35747Y-20505D01*
X35799Y-20461D01*
X35859Y-20427D01*
X35925Y-20406D01*
X35993Y-20398D01*
X36061Y-20403D01*
X36127Y-20421D01*
X36189Y-20452D01*
X36243Y-20495D01*
X36288Y-20547D01*
X36322Y-20607D01*
X36344Y-20672D01*
X36352Y-20741D01*
X36353Y-20750D01*
X37353Y-20750D02*
X37346Y-20818D01*
X37326Y-20884D01*
X37294Y-20945D01*
X37250Y-20998D01*
X37197Y-21042D01*
X37136Y-21075D01*
X37070Y-21095D01*
X37002Y-21102D01*
X36934Y-21096D01*
X36868Y-21077D01*
X36807Y-21045D01*
X36754Y-21002D01*
X36709Y-20949D01*
X36676Y-20889D01*
X36655Y-20823D01*
X36648Y-20754D01*
X36653Y-20687D01*
X36672Y-20621D01*
X36704Y-20559D01*
X36747Y-20505D01*
X36799Y-20461D01*
X36859Y-20427D01*
X36925Y-20406D01*
X36993Y-20398D01*
X37061Y-20403D01*
X37127Y-20421D01*
X37189Y-20452D01*
X37243Y-20495D01*
X37288Y-20547D01*
X37322Y-20607D01*
X37344Y-20672D01*
X37352Y-20741D01*
X37353Y-20750D01*
X38353Y-21750D02*
X38346Y-21818D01*
X38326Y-21884D01*
X38294Y-21945D01*
X38250Y-21998D01*
X38197Y-22042D01*
X38136Y-22075D01*
X38070Y-22095D01*
X38002Y-22102D01*
X37934Y-22096D01*
X37868Y-22077D01*
X37807Y-22045D01*
X37754Y-22002D01*
X37709Y-21949D01*
X37676Y-21889D01*
X37655Y-21823D01*
X37648Y-21754D01*
X37653Y-21687D01*
X37672Y-21621D01*
X37704Y-21559D01*
X37747Y-21505D01*
X37799Y-21461D01*
X37859Y-21427D01*
X37925Y-21406D01*
X37993Y-21398D01*
X38061Y-21403D01*
X38127Y-21421D01*
X38189Y-21452D01*
X38243Y-21495D01*
X38288Y-21547D01*
X38322Y-21607D01*
X38344Y-21672D01*
X38352Y-21741D01*
X38353Y-21750D01*
X38353Y-20750D02*
X38346Y-20818D01*
X38326Y-20884D01*
X38294Y-20945D01*
X38250Y-20998D01*
X38197Y-21042D01*
X38136Y-21075D01*
X38070Y-21095D01*
X38002Y-21102D01*
X37934Y-21096D01*
X37868Y-21077D01*
X37807Y-21045D01*
X37754Y-21002D01*
X37709Y-20949D01*
X37676Y-20889D01*
X37655Y-20823D01*
X37648Y-20754D01*
X37653Y-20687D01*
X37672Y-20621D01*
X37704Y-20559D01*
X37747Y-20505D01*
X37799Y-20461D01*
X37859Y-20427D01*
X37925Y-20406D01*
X37993Y-20398D01*
X38061Y-20403D01*
X38127Y-20421D01*
X38189Y-20452D01*
X38243Y-20495D01*
X38288Y-20547D01*
X38322Y-20607D01*
X38344Y-20672D01*
X38352Y-20741D01*
X38353Y-20750D01*
X37353Y-21750D02*
X37346Y-21818D01*
X37326Y-21884D01*
X37294Y-21945D01*
X37250Y-21998D01*
X37197Y-22042D01*
X37136Y-22075D01*
X37070Y-22095D01*
X37002Y-22102D01*
X36934Y-22096D01*
X36868Y-22077D01*
X36807Y-22045D01*
X36754Y-22002D01*
X36709Y-21949D01*
X36676Y-21889D01*
X36655Y-21823D01*
X36648Y-21754D01*
X36653Y-21687D01*
X36672Y-21621D01*
X36704Y-21559D01*
X36747Y-21505D01*
X36799Y-21461D01*
X36859Y-21427D01*
X36925Y-21406D01*
X36993Y-21398D01*
X37061Y-21403D01*
X37127Y-21421D01*
X37189Y-21452D01*
X37243Y-21495D01*
X37288Y-21547D01*
X37322Y-21607D01*
X37344Y-21672D01*
X37352Y-21741D01*
X37353Y-21750D01*
X36353Y-21750D02*
X36346Y-21818D01*
X36326Y-21884D01*
X36294Y-21945D01*
X36250Y-21998D01*
X36197Y-22042D01*
X36136Y-22075D01*
X36070Y-22095D01*
X36002Y-22102D01*
X35934Y-22096D01*
X35868Y-22077D01*
X35807Y-22045D01*
X35754Y-22002D01*
X35709Y-21949D01*
X35676Y-21889D01*
X35655Y-21823D01*
X35648Y-21754D01*
X35653Y-21687D01*
X35672Y-21621D01*
X35704Y-21559D01*
X35747Y-21505D01*
X35799Y-21461D01*
X35859Y-21427D01*
X35925Y-21406D01*
X35993Y-21398D01*
X36061Y-21403D01*
X36127Y-21421D01*
X36189Y-21452D01*
X36243Y-21495D01*
X36288Y-21547D01*
X36322Y-21607D01*
X36344Y-21672D01*
X36352Y-21741D01*
X36353Y-21750D01*
X34353Y-21750D02*
X34346Y-21818D01*
X34326Y-21884D01*
X34294Y-21945D01*
X34250Y-21998D01*
X34197Y-22042D01*
X34136Y-22075D01*
X34070Y-22095D01*
X34002Y-22102D01*
X33934Y-22096D01*
X33868Y-22077D01*
X33807Y-22045D01*
X33754Y-22002D01*
X33709Y-21949D01*
X33676Y-21889D01*
X33655Y-21823D01*
X33648Y-21754D01*
X33653Y-21687D01*
X33672Y-21621D01*
X33704Y-21559D01*
X33747Y-21505D01*
X33799Y-21461D01*
X33859Y-21427D01*
X33925Y-21406D01*
X33993Y-21398D01*
X34061Y-21403D01*
X34127Y-21421D01*
X34189Y-21452D01*
X34243Y-21495D01*
X34288Y-21547D01*
X34322Y-21607D01*
X34344Y-21672D01*
X34352Y-21741D01*
X34353Y-21750D01*
X33353Y-21750D02*
X33346Y-21818D01*
X33326Y-21884D01*
X33294Y-21945D01*
X33250Y-21998D01*
X33197Y-22042D01*
X33136Y-22075D01*
X33070Y-22095D01*
X33002Y-22102D01*
X32934Y-22096D01*
X32868Y-22077D01*
X32807Y-22045D01*
X32754Y-22002D01*
X32709Y-21949D01*
X32676Y-21889D01*
X32655Y-21823D01*
X32648Y-21754D01*
X32653Y-21687D01*
X32672Y-21621D01*
X32704Y-21559D01*
X32747Y-21505D01*
X32799Y-21461D01*
X32859Y-21427D01*
X32925Y-21406D01*
X32993Y-21398D01*
X33061Y-21403D01*
X33127Y-21421D01*
X33189Y-21452D01*
X33243Y-21495D01*
X33288Y-21547D01*
X33322Y-21607D01*
X33344Y-21672D01*
X33352Y-21741D01*
X33353Y-21750D01*
X37353Y-41000D02*
X37346Y-41068D01*
X37326Y-41134D01*
X37294Y-41195D01*
X37250Y-41248D01*
X37197Y-41292D01*
X37136Y-41325D01*
X37070Y-41345D01*
X37002Y-41352D01*
X36934Y-41346D01*
X36868Y-41327D01*
X36807Y-41295D01*
X36754Y-41252D01*
X36709Y-41199D01*
X36676Y-41139D01*
X36655Y-41073D01*
X36648Y-41004D01*
X36653Y-40937D01*
X36672Y-40871D01*
X36704Y-40809D01*
X36747Y-40755D01*
X36799Y-40711D01*
X36859Y-40677D01*
X36925Y-40656D01*
X36993Y-40648D01*
X37061Y-40653D01*
X37127Y-40671D01*
X37189Y-40702D01*
X37243Y-40745D01*
X37288Y-40797D01*
X37322Y-40857D01*
X37344Y-40922D01*
X37352Y-40991D01*
X37353Y-41000D01*
X36353Y-41000D02*
X36346Y-41068D01*
X36326Y-41134D01*
X36294Y-41195D01*
X36250Y-41248D01*
X36197Y-41292D01*
X36136Y-41325D01*
X36070Y-41345D01*
X36002Y-41352D01*
X35934Y-41346D01*
X35868Y-41327D01*
X35807Y-41295D01*
X35754Y-41252D01*
X35709Y-41199D01*
X35676Y-41139D01*
X35655Y-41073D01*
X35648Y-41004D01*
X35653Y-40937D01*
X35672Y-40871D01*
X35704Y-40809D01*
X35747Y-40755D01*
X35799Y-40711D01*
X35859Y-40677D01*
X35925Y-40656D01*
X35993Y-40648D01*
X36061Y-40653D01*
X36127Y-40671D01*
X36189Y-40702D01*
X36243Y-40745D01*
X36288Y-40797D01*
X36322Y-40857D01*
X36344Y-40922D01*
X36352Y-40991D01*
X36353Y-41000D01*
X36353Y-40000D02*
X36346Y-40068D01*
X36326Y-40134D01*
X36294Y-40195D01*
X36250Y-40248D01*
X36197Y-40292D01*
X36136Y-40325D01*
X36070Y-40345D01*
X36002Y-40352D01*
X35934Y-40346D01*
X35868Y-40327D01*
X35807Y-40295D01*
X35754Y-40252D01*
X35709Y-40199D01*
X35676Y-40139D01*
X35655Y-40073D01*
X35648Y-40004D01*
X35653Y-39937D01*
X35672Y-39871D01*
X35704Y-39809D01*
X35747Y-39755D01*
X35799Y-39711D01*
X35859Y-39677D01*
X35925Y-39656D01*
X35993Y-39648D01*
X36061Y-39653D01*
X36127Y-39671D01*
X36189Y-39702D01*
X36243Y-39745D01*
X36288Y-39797D01*
X36322Y-39857D01*
X36344Y-39922D01*
X36352Y-39991D01*
X36353Y-40000D01*
X35353Y-41000D02*
X35346Y-41068D01*
X35326Y-41134D01*
X35294Y-41195D01*
X35250Y-41248D01*
X35197Y-41292D01*
X35136Y-41325D01*
X35070Y-41345D01*
X35002Y-41352D01*
X34934Y-41346D01*
X34868Y-41327D01*
X34807Y-41295D01*
X34754Y-41252D01*
X34709Y-41199D01*
X34676Y-41139D01*
X34655Y-41073D01*
X34648Y-41004D01*
X34653Y-40937D01*
X34672Y-40871D01*
X34704Y-40809D01*
X34747Y-40755D01*
X34799Y-40711D01*
X34859Y-40677D01*
X34925Y-40656D01*
X34993Y-40648D01*
X35061Y-40653D01*
X35127Y-40671D01*
X35189Y-40702D01*
X35243Y-40745D01*
X35288Y-40797D01*
X35322Y-40857D01*
X35344Y-40922D01*
X35352Y-40991D01*
X35353Y-41000D01*
X35353Y-40000D02*
X35346Y-40068D01*
X35326Y-40134D01*
X35294Y-40195D01*
X35250Y-40248D01*
X35197Y-40292D01*
X35136Y-40325D01*
X35070Y-40345D01*
X35002Y-40352D01*
X34934Y-40346D01*
X34868Y-40327D01*
X34807Y-40295D01*
X34754Y-40252D01*
X34709Y-40199D01*
X34676Y-40139D01*
X34655Y-40073D01*
X34648Y-40004D01*
X34653Y-39937D01*
X34672Y-39871D01*
X34704Y-39809D01*
X34747Y-39755D01*
X34799Y-39711D01*
X34859Y-39677D01*
X34925Y-39656D01*
X34993Y-39648D01*
X35061Y-39653D01*
X35127Y-39671D01*
X35189Y-39702D01*
X35243Y-39745D01*
X35288Y-39797D01*
X35322Y-39857D01*
X35344Y-39922D01*
X35352Y-39991D01*
X35353Y-40000D01*
X34353Y-41000D02*
X34346Y-41068D01*
X34326Y-41134D01*
X34294Y-41195D01*
X34250Y-41248D01*
X34197Y-41292D01*
X34136Y-41325D01*
X34070Y-41345D01*
X34002Y-41352D01*
X33934Y-41346D01*
X33868Y-41327D01*
X33807Y-41295D01*
X33754Y-41252D01*
X33709Y-41199D01*
X33676Y-41139D01*
X33655Y-41073D01*
X33648Y-41004D01*
X33653Y-40937D01*
X33672Y-40871D01*
X33704Y-40809D01*
X33747Y-40755D01*
X33799Y-40711D01*
X33859Y-40677D01*
X33925Y-40656D01*
X33993Y-40648D01*
X34061Y-40653D01*
X34127Y-40671D01*
X34189Y-40702D01*
X34243Y-40745D01*
X34288Y-40797D01*
X34322Y-40857D01*
X34344Y-40922D01*
X34352Y-40991D01*
X34353Y-41000D01*
X37250Y-41000D02*
X37245Y-41048D01*
X37231Y-41095D01*
X37208Y-41138D01*
X37177Y-41176D01*
X37139Y-41207D01*
X37096Y-41230D01*
X37050Y-41244D01*
X37001Y-41249D01*
X36954Y-41245D01*
X36907Y-41231D01*
X36864Y-41209D01*
X36826Y-41178D01*
X36794Y-41141D01*
X36771Y-41098D01*
X36756Y-41051D01*
X36751Y-41003D01*
X36755Y-40955D01*
X36768Y-40908D01*
X36790Y-40865D01*
X36821Y-40827D01*
X36858Y-40795D01*
X36900Y-40771D01*
X36947Y-40756D01*
X36995Y-40751D01*
X37043Y-40754D01*
X37090Y-40767D01*
X37133Y-40789D01*
X37172Y-40819D01*
X37204Y-40856D01*
X37228Y-40899D01*
X37243Y-40945D01*
X37249Y-40994D01*
X37250Y-41000D01*
X36250Y-41000D02*
X36245Y-41048D01*
X36231Y-41095D01*
X36208Y-41138D01*
X36177Y-41176D01*
X36139Y-41207D01*
X36096Y-41230D01*
X36050Y-41244D01*
X36001Y-41249D01*
X35954Y-41245D01*
X35907Y-41231D01*
X35864Y-41209D01*
X35826Y-41178D01*
X35794Y-41141D01*
X35771Y-41098D01*
X35756Y-41051D01*
X35751Y-41003D01*
X35755Y-40955D01*
X35768Y-40908D01*
X35790Y-40865D01*
X35821Y-40827D01*
X35858Y-40795D01*
X35900Y-40771D01*
X35947Y-40756D01*
X35995Y-40751D01*
X36043Y-40754D01*
X36090Y-40767D01*
X36133Y-40789D01*
X36172Y-40819D01*
X36204Y-40856D01*
X36228Y-40899D01*
X36243Y-40945D01*
X36249Y-40994D01*
X36250Y-41000D01*
X36250Y-40000D02*
X36245Y-40048D01*
X36231Y-40095D01*
X36208Y-40138D01*
X36177Y-40176D01*
X36139Y-40207D01*
X36096Y-40230D01*
X36050Y-40244D01*
X36001Y-40249D01*
X35954Y-40245D01*
X35907Y-40231D01*
X35864Y-40209D01*
X35826Y-40178D01*
X35794Y-40141D01*
X35771Y-40098D01*
X35756Y-40051D01*
X35751Y-40003D01*
X35755Y-39955D01*
X35768Y-39908D01*
X35790Y-39865D01*
X35821Y-39827D01*
X35858Y-39795D01*
X35900Y-39771D01*
X35947Y-39756D01*
X35995Y-39751D01*
X36043Y-39754D01*
X36090Y-39767D01*
X36133Y-39789D01*
X36172Y-39819D01*
X36204Y-39856D01*
X36228Y-39899D01*
X36243Y-39945D01*
X36249Y-39994D01*
X36250Y-40000D01*
X35250Y-41000D02*
X35245Y-41048D01*
X35231Y-41095D01*
X35208Y-41138D01*
X35177Y-41176D01*
X35139Y-41207D01*
X35096Y-41230D01*
X35050Y-41244D01*
X35001Y-41249D01*
X34954Y-41245D01*
X34907Y-41231D01*
X34864Y-41209D01*
X34826Y-41178D01*
X34794Y-41141D01*
X34771Y-41098D01*
X34756Y-41051D01*
X34751Y-41003D01*
X34755Y-40955D01*
X34768Y-40908D01*
X34790Y-40865D01*
X34821Y-40827D01*
X34858Y-40795D01*
X34900Y-40771D01*
X34947Y-40756D01*
X34995Y-40751D01*
X35043Y-40754D01*
X35090Y-40767D01*
X35133Y-40789D01*
X35172Y-40819D01*
X35204Y-40856D01*
X35228Y-40899D01*
X35243Y-40945D01*
X35249Y-40994D01*
X35250Y-41000D01*
X35250Y-40000D02*
X35245Y-40048D01*
X35231Y-40095D01*
X35208Y-40138D01*
X35177Y-40176D01*
X35139Y-40207D01*
X35096Y-40230D01*
X35050Y-40244D01*
X35001Y-40249D01*
X34954Y-40245D01*
X34907Y-40231D01*
X34864Y-40209D01*
X34826Y-40178D01*
X34794Y-40141D01*
X34771Y-40098D01*
X34756Y-40051D01*
X34751Y-40003D01*
X34755Y-39955D01*
X34768Y-39908D01*
X34790Y-39865D01*
X34821Y-39827D01*
X34858Y-39795D01*
X34900Y-39771D01*
X34947Y-39756D01*
X34995Y-39751D01*
X35043Y-39754D01*
X35090Y-39767D01*
X35133Y-39789D01*
X35172Y-39819D01*
X35204Y-39856D01*
X35228Y-39899D01*
X35243Y-39945D01*
X35249Y-39994D01*
X35250Y-40000D01*
X34250Y-41000D02*
X34245Y-41048D01*
X34231Y-41095D01*
X34208Y-41138D01*
X34177Y-41176D01*
X34139Y-41207D01*
X34096Y-41230D01*
X34050Y-41244D01*
X34001Y-41249D01*
X33954Y-41245D01*
X33907Y-41231D01*
X33864Y-41209D01*
X33826Y-41178D01*
X33794Y-41141D01*
X33771Y-41098D01*
X33756Y-41051D01*
X33751Y-41003D01*
X33755Y-40955D01*
X33768Y-40908D01*
X33790Y-40865D01*
X33821Y-40827D01*
X33858Y-40795D01*
X33900Y-40771D01*
X33947Y-40756D01*
X33995Y-40751D01*
X34043Y-40754D01*
X34090Y-40767D01*
X34133Y-40789D01*
X34172Y-40819D01*
X34204Y-40856D01*
X34228Y-40899D01*
X34243Y-40945D01*
X34249Y-40994D01*
X34250Y-41000D01*
X34353Y-40000D02*
X34346Y-40068D01*
X34326Y-40134D01*
X34294Y-40195D01*
X34250Y-40248D01*
X34197Y-40292D01*
X34136Y-40325D01*
X34070Y-40345D01*
X34002Y-40352D01*
X33934Y-40346D01*
X33868Y-40327D01*
X33807Y-40295D01*
X33754Y-40252D01*
X33709Y-40199D01*
X33676Y-40139D01*
X33655Y-40073D01*
X33648Y-40004D01*
X33653Y-39937D01*
X33672Y-39871D01*
X33704Y-39809D01*
X33747Y-39755D01*
X33799Y-39711D01*
X33859Y-39677D01*
X33925Y-39656D01*
X33993Y-39648D01*
X34061Y-39653D01*
X34127Y-39671D01*
X34189Y-39702D01*
X34243Y-39745D01*
X34288Y-39797D01*
X34322Y-39857D01*
X34344Y-39922D01*
X34352Y-39991D01*
X34353Y-40000D01*
X33353Y-41000D02*
X33346Y-41068D01*
X33326Y-41134D01*
X33294Y-41195D01*
X33250Y-41248D01*
X33197Y-41292D01*
X33136Y-41325D01*
X33070Y-41345D01*
X33002Y-41352D01*
X32934Y-41346D01*
X32868Y-41327D01*
X32807Y-41295D01*
X32754Y-41252D01*
X32709Y-41199D01*
X32676Y-41139D01*
X32655Y-41073D01*
X32648Y-41004D01*
X32653Y-40937D01*
X32672Y-40871D01*
X32704Y-40809D01*
X32747Y-40755D01*
X32799Y-40711D01*
X32859Y-40677D01*
X32925Y-40656D01*
X32993Y-40648D01*
X33061Y-40653D01*
X33127Y-40671D01*
X33189Y-40702D01*
X33243Y-40745D01*
X33288Y-40797D01*
X33322Y-40857D01*
X33344Y-40922D01*
X33352Y-40991D01*
X33353Y-41000D01*
X33353Y-40000D02*
X33346Y-40068D01*
X33326Y-40134D01*
X33294Y-40195D01*
X33250Y-40248D01*
X33197Y-40292D01*
X33136Y-40325D01*
X33070Y-40345D01*
X33002Y-40352D01*
X32934Y-40346D01*
X32868Y-40327D01*
X32807Y-40295D01*
X32754Y-40252D01*
X32709Y-40199D01*
X32676Y-40139D01*
X32655Y-40073D01*
X32648Y-40004D01*
X32653Y-39937D01*
X32672Y-39871D01*
X32704Y-39809D01*
X32747Y-39755D01*
X32799Y-39711D01*
X32859Y-39677D01*
X32925Y-39656D01*
X32993Y-39648D01*
X33061Y-39653D01*
X33127Y-39671D01*
X33189Y-39702D01*
X33243Y-39745D01*
X33288Y-39797D01*
X33322Y-39857D01*
X33344Y-39922D01*
X33352Y-39991D01*
X33353Y-40000D01*
X32353Y-41000D02*
X32346Y-41068D01*
X32326Y-41134D01*
X32294Y-41195D01*
X32250Y-41248D01*
X32197Y-41292D01*
X32136Y-41325D01*
X32070Y-41345D01*
X32002Y-41352D01*
X31934Y-41346D01*
X31868Y-41327D01*
X31807Y-41295D01*
X31754Y-41252D01*
X31709Y-41199D01*
X31676Y-41139D01*
X31655Y-41073D01*
X31648Y-41004D01*
X31653Y-40937D01*
X31672Y-40871D01*
X31704Y-40809D01*
X31747Y-40755D01*
X31799Y-40711D01*
X31859Y-40677D01*
X31925Y-40656D01*
X31993Y-40648D01*
X32061Y-40653D01*
X32127Y-40671D01*
X32189Y-40702D01*
X32243Y-40745D01*
X32288Y-40797D01*
X32322Y-40857D01*
X32344Y-40922D01*
X32352Y-40991D01*
X32353Y-41000D01*
X32353Y-40000D02*
X32346Y-40068D01*
X32326Y-40134D01*
X32294Y-40195D01*
X32250Y-40248D01*
X32197Y-40292D01*
X32136Y-40325D01*
X32070Y-40345D01*
X32002Y-40352D01*
X31934Y-40346D01*
X31868Y-40327D01*
X31807Y-40295D01*
X31754Y-40252D01*
X31709Y-40199D01*
X31676Y-40139D01*
X31655Y-40073D01*
X31648Y-40004D01*
X31653Y-39937D01*
X31672Y-39871D01*
X31704Y-39809D01*
X31747Y-39755D01*
X31799Y-39711D01*
X31859Y-39677D01*
X31925Y-39656D01*
X31993Y-39648D01*
X32061Y-39653D01*
X32127Y-39671D01*
X32189Y-39702D01*
X32243Y-39745D01*
X32288Y-39797D01*
X32322Y-39857D01*
X32344Y-39922D01*
X32352Y-39991D01*
X32353Y-40000D01*
X31353Y-41000D02*
X31346Y-41068D01*
X31326Y-41134D01*
X31294Y-41195D01*
X31250Y-41248D01*
X31197Y-41292D01*
X31136Y-41325D01*
X31070Y-41345D01*
X31002Y-41352D01*
X30934Y-41346D01*
X30868Y-41327D01*
X30807Y-41295D01*
X30754Y-41252D01*
X30709Y-41199D01*
X30676Y-41139D01*
X30655Y-41073D01*
X30648Y-41004D01*
X30653Y-40937D01*
X30672Y-40871D01*
X30704Y-40809D01*
X30747Y-40755D01*
X30799Y-40711D01*
X30859Y-40677D01*
X30925Y-40656D01*
X30993Y-40648D01*
X31061Y-40653D01*
X31127Y-40671D01*
X31189Y-40702D01*
X31243Y-40745D01*
X31288Y-40797D01*
X31322Y-40857D01*
X31344Y-40922D01*
X31352Y-40991D01*
X31353Y-41000D01*
X31353Y-40000D02*
X31346Y-40068D01*
X31326Y-40134D01*
X31294Y-40195D01*
X31250Y-40248D01*
X31197Y-40292D01*
X31136Y-40325D01*
X31070Y-40345D01*
X31002Y-40352D01*
X30934Y-40346D01*
X30868Y-40327D01*
X30807Y-40295D01*
X30754Y-40252D01*
X30709Y-40199D01*
X30676Y-40139D01*
X30655Y-40073D01*
X30648Y-40004D01*
X30653Y-39937D01*
X30672Y-39871D01*
X30704Y-39809D01*
X30747Y-39755D01*
X30799Y-39711D01*
X30859Y-39677D01*
X30925Y-39656D01*
X30993Y-39648D01*
X31061Y-39653D01*
X31127Y-39671D01*
X31189Y-39702D01*
X31243Y-39745D01*
X31288Y-39797D01*
X31322Y-39857D01*
X31344Y-39922D01*
X31352Y-39991D01*
X31353Y-40000D01*
G54D14*
X36401Y-21392D02*
X36401Y-21042D01*
X36448Y-21042D01*
X36477Y-21058D01*
X36496Y-21092D01*
X36505Y-21125D01*
X36515Y-21192D01*
X36515Y-21242D01*
X36505Y-21308D01*
X36496Y-21342D01*
X36477Y-21375D01*
X36448Y-21392D01*
X36401Y-21392D01*
X36601Y-21392D02*
X36601Y-21042D01*
G54D11*
X35950Y-22874D02*
X35936Y-22893D01*
X35893Y-22912D01*
X35864Y-22912D01*
X35821Y-22893D01*
X35793Y-22855D01*
X35778Y-22817D01*
X35764Y-22740D01*
X35764Y-22683D01*
X35778Y-22607D01*
X35793Y-22569D01*
X35821Y-22531D01*
X35864Y-22512D01*
X35893Y-22512D01*
X35936Y-22531D01*
X35950Y-22550D01*
X36064Y-22893D02*
X36107Y-22912D01*
X36178Y-22912D01*
X36207Y-22893D01*
X36221Y-22874D01*
X36236Y-22836D01*
X36236Y-22798D01*
X36221Y-22760D01*
X36207Y-22740D01*
X36178Y-22721D01*
X36121Y-22702D01*
X36093Y-22683D01*
X36078Y-22664D01*
X36064Y-22626D01*
X36064Y-22588D01*
X36078Y-22550D01*
X36093Y-22531D01*
X36121Y-22512D01*
X36193Y-22512D01*
X36236Y-22531D01*
X37764Y-22912D02*
X37764Y-22512D01*
X37836Y-22512D01*
X37879Y-22531D01*
X37907Y-22569D01*
X37922Y-22607D01*
X37936Y-22683D01*
X37936Y-22740D01*
X37922Y-22817D01*
X37907Y-22855D01*
X37879Y-22893D01*
X37836Y-22912D01*
X37764Y-22912D01*
X38122Y-22512D02*
X38179Y-22512D01*
X38207Y-22531D01*
X38236Y-22569D01*
X38250Y-22645D01*
X38250Y-22779D01*
X38236Y-22855D01*
X38207Y-22893D01*
X38179Y-22912D01*
X38122Y-22912D01*
X38093Y-22893D01*
X38064Y-22855D01*
X38050Y-22779D01*
X38050Y-22645D01*
X38064Y-22569D01*
X38093Y-22531D01*
X38122Y-22512D01*
G54D14*
X38162Y-21375D02*
X38191Y-21392D01*
X38238Y-21392D01*
X38257Y-21375D01*
X38267Y-21358D01*
X38276Y-21325D01*
X38276Y-21292D01*
X38267Y-21258D01*
X38257Y-21242D01*
X38238Y-21225D01*
X38200Y-21208D01*
X38181Y-21192D01*
X38172Y-21175D01*
X38162Y-21142D01*
X38162Y-21108D01*
X38172Y-21075D01*
X38181Y-21058D01*
X38200Y-21042D01*
X38248Y-21042D01*
X38276Y-21058D01*
X38476Y-21358D02*
X38466Y-21375D01*
X38438Y-21392D01*
X38419Y-21392D01*
X38390Y-21375D01*
X38371Y-21342D01*
X38362Y-21308D01*
X38352Y-21242D01*
X38352Y-21192D01*
X38362Y-21125D01*
X38371Y-21092D01*
X38390Y-21058D01*
X38419Y-21042D01*
X38438Y-21042D01*
X38466Y-21058D01*
X38476Y-21075D01*
X38657Y-21392D02*
X38562Y-21392D01*
X38562Y-21042D01*
X38724Y-21392D02*
X38724Y-21042D01*
X38838Y-21392D02*
X38752Y-21192D01*
X38838Y-21042D02*
X38724Y-21242D01*
G54D11*
X36707Y-22912D02*
X36707Y-22512D01*
X36836Y-22550D02*
X36850Y-22531D01*
X36879Y-22512D01*
X36950Y-22512D01*
X36979Y-22531D01*
X36993Y-22550D01*
X37008Y-22588D01*
X37008Y-22626D01*
X36993Y-22683D01*
X36822Y-22912D01*
X37008Y-22912D01*
X37308Y-22874D02*
X37294Y-22893D01*
X37251Y-22912D01*
X37222Y-22912D01*
X37179Y-22893D01*
X37151Y-22855D01*
X37136Y-22817D01*
X37122Y-22740D01*
X37122Y-22683D01*
X37136Y-22607D01*
X37151Y-22569D01*
X37179Y-22531D01*
X37222Y-22512D01*
X37251Y-22512D01*
X37294Y-22531D01*
X37308Y-22550D01*
X33950Y-22912D02*
X33850Y-22721D01*
X33778Y-22912D02*
X33778Y-22512D01*
X33893Y-22512D01*
X33921Y-22531D01*
X33936Y-22550D01*
X33950Y-22588D01*
X33950Y-22645D01*
X33936Y-22683D01*
X33921Y-22702D01*
X33893Y-22721D01*
X33778Y-22721D01*
X34050Y-22512D02*
X34250Y-22912D01*
X34250Y-22512D02*
X34050Y-22912D01*
X32772Y-22512D02*
X32943Y-22512D01*
X32857Y-22912D02*
X32857Y-22512D01*
X33015Y-22512D02*
X33215Y-22912D01*
X33215Y-22512D02*
X33015Y-22912D01*
G54D12*
X20750Y-41000D02*
X20750Y-41000D01*
X21750Y-41000D02*
X20750Y-41000D01*
X20750Y-41000D02*
X20750Y-41000D01*
X20750Y-41000D02*
X20750Y-37000D01*
X20750Y-37000D02*
X21750Y-37000D01*
X21750Y-37000D02*
X21750Y-41000D01*
X21750Y-40000D02*
X20750Y-40000D01*
G54D15*
X53500Y-32500D02*
X53500Y-30000D01*
X51500Y-32500D02*
X51500Y-30000D01*
X52500Y-29000D02*
X52413Y-29004D01*
X52327Y-29016D01*
X52242Y-29035D01*
X52158Y-29061D01*
X52078Y-29094D01*
X52001Y-29134D01*
X51927Y-29181D01*
X51858Y-29234D01*
X51793Y-29293D01*
X51734Y-29358D01*
X51681Y-29427D01*
X51634Y-29501D01*
X51594Y-29578D01*
X51561Y-29658D01*
X51535Y-29742D01*
X51516Y-29827D01*
X51504Y-29913D01*
X51500Y-30000D01*
X53500Y-30000D02*
X53496Y-29913D01*
X53484Y-29827D01*
X53465Y-29742D01*
X53439Y-29658D01*
X53406Y-29578D01*
X53366Y-29501D01*
X53319Y-29427D01*
X53266Y-29358D01*
X53207Y-29293D01*
X53142Y-29234D01*
X53073Y-29181D01*
X53000Y-29134D01*
X52922Y-29094D01*
X52842Y-29061D01*
X52758Y-29035D01*
X52673Y-29016D01*
X52587Y-29004D01*
X52500Y-29000D01*
X51500Y-32500D02*
X51504Y-32587D01*
X51516Y-32673D01*
X51535Y-32758D01*
X51561Y-32842D01*
X51594Y-32922D01*
X51634Y-32999D01*
X51681Y-33073D01*
X51734Y-33142D01*
X51793Y-33207D01*
X51858Y-33266D01*
X51927Y-33319D01*
X52001Y-33366D01*
X52078Y-33406D01*
X52158Y-33439D01*
X52242Y-33465D01*
X52327Y-33484D01*
X52413Y-33496D01*
X52500Y-33500D01*
X52500Y-33500D02*
X52587Y-33496D01*
X52673Y-33484D01*
X52758Y-33465D01*
X52842Y-33439D01*
X52922Y-33406D01*
X53000Y-33366D01*
X53073Y-33319D01*
X53142Y-33266D01*
X53207Y-33207D01*
X53266Y-33142D01*
X53319Y-33073D01*
X53366Y-32999D01*
X53406Y-32922D01*
X53439Y-32842D01*
X53465Y-32758D01*
X53484Y-32673D01*
X53496Y-32587D01*
X53500Y-32500D01*
G54D13*
X29750Y-27250D02*
X30250Y-27250D01*
X30250Y-27250D02*
X30250Y-28250D01*
X30250Y-28250D02*
X29750Y-28250D01*
X29750Y-25250D02*
X50750Y-25250D01*
X50750Y-25250D02*
X50750Y-30250D01*
X50750Y-30250D02*
X29750Y-30250D01*
X29750Y-30250D02*
X29750Y-25250D01*
G54D14*
X29000Y-23500D02*
X28250Y-23500D01*
X28250Y-23500D02*
X28250Y-26500D01*
X28250Y-26500D02*
X29250Y-26500D01*
X29250Y-26500D02*
X29250Y-23500D01*
X29250Y-23500D02*
X29000Y-23500D01*
X28750Y-23250D02*
X28750Y-23500D01*
X28750Y-26500D02*
X28750Y-26750D01*
X29000Y-23500D02*
X29250Y-23750D01*
G54D13*
X27500Y-39500D02*
X30500Y-39500D01*
X30500Y-39500D02*
X50500Y-39500D01*
X50500Y-39500D02*
X50500Y-41500D01*
X50500Y-41500D02*
X27500Y-41500D01*
G54D12*
X50500Y-41500D02*
X30500Y-41500D01*
X50500Y-39500D02*
X30500Y-39500D01*
X27500Y-39500D02*
X27500Y-41500D01*
G54D13*
X27500Y-20250D02*
X30500Y-20250D01*
X30500Y-20250D02*
X50500Y-20250D01*
X50500Y-20250D02*
X50500Y-22250D01*
X50500Y-22250D02*
X27500Y-22250D01*
G54D12*
X50500Y-22250D02*
X30500Y-22250D01*
X50500Y-20250D02*
X30500Y-20250D01*
X27500Y-20250D02*
X27500Y-22250D01*
G54D16*
X27250Y-24750D02*
X26750Y-24750D01*
X26750Y-24750D02*
X26750Y-23750D01*
X26750Y-23750D02*
X27250Y-23750D01*
X27250Y-25250D02*
X23250Y-25250D01*
X23250Y-25250D02*
X23250Y-23250D01*
X23250Y-23250D02*
X27250Y-23250D01*
X27250Y-23250D02*
X27250Y-25250D01*
G54D12*
X50250Y-34250D02*
X42250Y-34250D01*
X42250Y-34250D02*
X42250Y-33250D01*
X42250Y-33250D02*
X50250Y-33250D01*
X50250Y-33250D02*
X50250Y-34250D01*
X49250Y-33250D02*
X49250Y-34250D01*
G54D14*
X23250Y-37250D02*
X22500Y-37250D01*
X22500Y-37250D02*
X22500Y-40250D01*
X22500Y-40250D02*
X23500Y-40250D01*
X23500Y-40250D02*
X23500Y-37250D01*
X23500Y-37250D02*
X23250Y-37250D01*
X23000Y-37000D02*
X23000Y-37250D01*
X23000Y-40250D02*
X23000Y-40500D01*
X23250Y-37250D02*
X23500Y-37500D01*
G54D16*
X20750Y-35720D02*
X21750Y-35720D01*
G54D10*
X21634Y-34640D02*
X21592Y-34608D01*
X21548Y-34580D01*
X21501Y-34556D01*
X21453Y-34536D01*
X21403Y-34520D01*
X21352Y-34509D01*
X21300Y-34503D01*
X21250Y-34500D01*
X21250Y-34501D02*
X21198Y-34504D01*
X21146Y-34511D01*
X21095Y-34522D01*
X21046Y-34538D01*
X20997Y-34558D01*
X20951Y-34582D01*
X20907Y-34610D01*
X20865Y-34642D01*
X20853Y-34653D01*
X21250Y-35699D02*
X21302Y-35696D01*
X21354Y-35689D01*
X21405Y-35678D01*
X21454Y-35662D01*
X21503Y-35642D01*
X21549Y-35618D01*
X21593Y-35590D01*
X21635Y-35558D01*
X21639Y-35554D01*
X20866Y-35560D02*
X20908Y-35592D01*
X20952Y-35620D01*
X20999Y-35644D01*
X21047Y-35664D01*
X21097Y-35680D01*
X21148Y-35691D01*
X21200Y-35697D01*
X21250Y-35700D01*
X21599Y-35587D02*
X21640Y-35555D01*
X21678Y-35519D01*
X21713Y-35480D01*
X21745Y-35438D01*
X21772Y-35394D01*
X21796Y-35347D01*
X21815Y-35299D01*
X21831Y-35249D01*
X21841Y-35197D01*
X21848Y-35146D01*
X21850Y-35100D01*
X21850Y-35100D02*
X21847Y-35048D01*
X21840Y-34996D01*
X21829Y-34945D01*
X21813Y-34895D01*
X21793Y-34847D01*
X21769Y-34801D01*
X21741Y-34756D01*
X21709Y-34715D01*
X21674Y-34676D01*
X21635Y-34641D01*
X21610Y-34621D01*
X20651Y-35100D02*
X20654Y-35152D01*
X20661Y-35204D01*
X20672Y-35255D01*
X20688Y-35304D01*
X20708Y-35353D01*
X20732Y-35399D01*
X20760Y-35443D01*
X20792Y-35485D01*
X20827Y-35523D01*
X20865Y-35558D01*
X20883Y-35572D01*
X20882Y-34627D02*
X20842Y-34661D01*
X20805Y-34698D01*
X20772Y-34739D01*
X20742Y-34782D01*
X20716Y-34827D01*
X20695Y-34875D01*
X20677Y-34924D01*
X20664Y-34975D01*
X20655Y-35026D01*
X20651Y-35079D01*
X20650Y-35100D01*
X21500Y-35100D02*
X21499Y-35079D01*
X21496Y-35057D01*
X21491Y-35036D01*
X21484Y-35015D01*
X21476Y-34995D01*
X21466Y-34976D01*
X21454Y-34957D01*
X21441Y-34940D01*
X21426Y-34924D01*
X21410Y-34909D01*
X21393Y-34896D01*
X21375Y-34884D01*
X21355Y-34874D01*
X21335Y-34866D01*
X21314Y-34859D01*
X21293Y-34854D01*
X21271Y-34851D01*
X21250Y-34850D01*
X21650Y-35100D02*
X21648Y-35066D01*
X21643Y-35031D01*
X21636Y-34997D01*
X21625Y-34964D01*
X21612Y-34931D01*
X21596Y-34901D01*
X21577Y-34871D01*
X21556Y-34843D01*
X21532Y-34818D01*
X21507Y-34794D01*
X21479Y-34773D01*
X21450Y-34754D01*
X21419Y-34738D01*
X21386Y-34725D01*
X21353Y-34714D01*
X21319Y-34707D01*
X21284Y-34702D01*
X21250Y-34700D01*
X21000Y-35100D02*
X21001Y-35121D01*
X21004Y-35143D01*
X21009Y-35164D01*
X21016Y-35185D01*
X21024Y-35205D01*
X21034Y-35224D01*
X21046Y-35243D01*
X21059Y-35260D01*
X21074Y-35276D01*
X21090Y-35291D01*
X21107Y-35304D01*
X21126Y-35316D01*
X21145Y-35326D01*
X21165Y-35334D01*
X21186Y-35341D01*
X21207Y-35346D01*
X21229Y-35349D01*
X21250Y-35350D01*
X20850Y-35100D02*
X20852Y-35134D01*
X20857Y-35169D01*
X20864Y-35203D01*
X20875Y-35236D01*
X20888Y-35269D01*
X20904Y-35299D01*
X20923Y-35329D01*
X20944Y-35357D01*
X20968Y-35382D01*
X20993Y-35406D01*
X21021Y-35427D01*
X21051Y-35446D01*
X21081Y-35462D01*
X21114Y-35475D01*
X21147Y-35486D01*
X21181Y-35493D01*
X21216Y-35498D01*
X21250Y-35500D01*
G54D16*
X21763Y-35713D02*
X21814Y-35666D01*
X21861Y-35615D01*
X21904Y-35560D01*
X21942Y-35501D01*
X21974Y-35439D01*
X22001Y-35374D01*
X22022Y-35308D01*
X22037Y-35240D01*
X22046Y-35171D01*
X22049Y-35101D01*
X22050Y-35100D01*
X22049Y-35100D02*
X22045Y-35031D01*
X22036Y-34962D01*
X22021Y-34894D01*
X22000Y-34827D01*
X21974Y-34763D01*
X21941Y-34701D01*
X21904Y-34642D01*
X21862Y-34587D01*
X21814Y-34536D01*
X21763Y-34488D01*
X21708Y-34446D01*
X21649Y-34409D01*
X21626Y-34396D01*
X20453Y-35101D02*
X20456Y-35170D01*
X20465Y-35239D01*
X20480Y-35307D01*
X20501Y-35374D01*
X20528Y-35438D01*
X20560Y-35500D01*
X20598Y-35558D01*
X20640Y-35614D01*
X20687Y-35665D01*
X20735Y-35709D01*
X20853Y-34406D02*
X20794Y-34444D01*
X20738Y-34486D01*
X20687Y-34533D01*
X20639Y-34584D01*
X20597Y-34639D01*
X20559Y-34698D01*
X20527Y-34760D01*
X20500Y-34824D01*
X20478Y-34891D01*
X20463Y-34959D01*
X20454Y-35028D01*
X20451Y-35098D01*
X20450Y-35100D01*
X21629Y-34396D02*
X21566Y-34366D01*
X21501Y-34341D01*
X21434Y-34322D01*
X21365Y-34309D01*
X21296Y-34302D01*
X21250Y-34300D01*
X21250Y-34301D02*
X21181Y-34305D01*
X21112Y-34314D01*
X21044Y-34329D01*
X20977Y-34350D01*
X20913Y-34376D01*
X20851Y-34409D01*
X20832Y-34420D01*
G54D12*
X52250Y-27250D02*
X53750Y-25750D01*
X53750Y-25750D02*
X53750Y-25250D01*
X53750Y-25250D02*
X53250Y-24750D01*
X53250Y-24750D02*
X52250Y-24750D01*
X52250Y-24750D02*
X51250Y-25750D01*
X51250Y-25750D02*
X51250Y-26750D01*
X51250Y-26750D02*
X51750Y-27250D01*
X51750Y-27250D02*
X52250Y-27250D01*
G54D13*
X50250Y-32750D02*
X30250Y-32750D01*
X30250Y-31750D02*
X50250Y-31750D01*
G54D12*
X30250Y-32750D02*
X30250Y-31750D01*
X50250Y-31750D02*
X50250Y-32750D01*
X31250Y-31750D02*
X31250Y-32750D01*
G54D13*
X50250Y-23750D02*
X30250Y-23750D01*
X30250Y-22750D02*
X50250Y-22750D01*
G54D12*
X30250Y-23750D02*
X30250Y-22750D01*
X50250Y-22750D02*
X50250Y-23750D01*
X31250Y-22750D02*
X31250Y-23750D01*
G54D13*
X26650Y-40250D02*
X26632Y-40424D01*
X26582Y-40592D01*
X26499Y-40748D01*
X26388Y-40884D01*
X26253Y-40996D01*
X26098Y-41079D01*
X25930Y-41131D01*
X25756Y-41149D01*
X25582Y-41134D01*
X25413Y-41084D01*
X25258Y-41003D01*
X25121Y-40893D01*
X25008Y-40758D01*
X24923Y-40604D01*
X24870Y-40437D01*
X24851Y-40262D01*
X24865Y-40088D01*
X24914Y-39919D01*
X24994Y-39763D01*
X25103Y-39625D01*
X25237Y-39511D01*
X25390Y-39426D01*
X25557Y-39371D01*
X25732Y-39351D01*
X25906Y-39364D01*
X26075Y-39411D01*
X26232Y-39491D01*
X26370Y-39599D01*
X26485Y-39732D01*
X26572Y-39884D01*
X26627Y-40051D01*
X26649Y-40225D01*
X26650Y-40250D01*
X52650Y-39000D02*
X52632Y-39174D01*
X52582Y-39342D01*
X52499Y-39498D01*
X52388Y-39634D01*
X52253Y-39746D01*
X52098Y-39829D01*
X51930Y-39881D01*
X51756Y-39899D01*
X51582Y-39884D01*
X51413Y-39834D01*
X51258Y-39753D01*
X51121Y-39643D01*
X51008Y-39508D01*
X50923Y-39354D01*
X50870Y-39187D01*
X50851Y-39012D01*
X50865Y-38838D01*
X50914Y-38669D01*
X50994Y-38513D01*
X51103Y-38375D01*
X51237Y-38261D01*
X51390Y-38176D01*
X51557Y-38121D01*
X51732Y-38101D01*
X51906Y-38114D01*
X52075Y-38161D01*
X52232Y-38241D01*
X52370Y-38349D01*
X52485Y-38482D01*
X52572Y-38634D01*
X52627Y-38801D01*
X52649Y-38975D01*
X52650Y-39000D01*
X52650Y-22500D02*
X52632Y-22674D01*
X52582Y-22842D01*
X52499Y-22998D01*
X52388Y-23134D01*
X52253Y-23246D01*
X52098Y-23329D01*
X51930Y-23381D01*
X51756Y-23399D01*
X51582Y-23384D01*
X51413Y-23334D01*
X51258Y-23253D01*
X51121Y-23143D01*
X51008Y-23008D01*
X50923Y-22854D01*
X50870Y-22687D01*
X50851Y-22512D01*
X50865Y-22338D01*
X50914Y-22169D01*
X50994Y-22013D01*
X51103Y-21875D01*
X51237Y-21761D01*
X51390Y-21676D01*
X51557Y-21621D01*
X51732Y-21601D01*
X51906Y-21614D01*
X52075Y-21661D01*
X52232Y-21741D01*
X52370Y-21849D01*
X52485Y-21982D01*
X52572Y-22134D01*
X52627Y-22301D01*
X52649Y-22475D01*
X52650Y-22500D01*
X26650Y-21250D02*
X26632Y-21424D01*
X26582Y-21592D01*
X26499Y-21748D01*
X26388Y-21884D01*
X26253Y-21996D01*
X26098Y-22079D01*
X25930Y-22131D01*
X25756Y-22149D01*
X25582Y-22134D01*
X25413Y-22084D01*
X25258Y-22003D01*
X25121Y-21893D01*
X25008Y-21758D01*
X24923Y-21604D01*
X24870Y-21437D01*
X24851Y-21262D01*
X24865Y-21088D01*
X24914Y-20919D01*
X24994Y-20763D01*
X25103Y-20625D01*
X25237Y-20511D01*
X25390Y-20426D01*
X25557Y-20371D01*
X25732Y-20351D01*
X25906Y-20364D01*
X26075Y-20411D01*
X26232Y-20491D01*
X26370Y-20599D01*
X26485Y-20732D01*
X26572Y-20884D01*
X26627Y-21051D01*
X26649Y-21225D01*
X26650Y-21250D01*
G54D17*
X20526Y-39316D02*
X19843Y-39316D01*
X19843Y-39153D01*
X19875Y-39112D01*
X19908Y-39092D01*
X19973Y-39072D01*
X20071Y-39072D01*
X20136Y-39092D01*
X20168Y-39112D01*
X20201Y-39153D01*
X20201Y-39316D01*
X20526Y-38664D02*
X20526Y-38908D01*
X20526Y-38786D02*
X19843Y-38786D01*
X19941Y-38827D01*
X20006Y-38868D01*
X20038Y-38908D01*
G54D12*
X50643Y-31735D02*
X51243Y-31335D01*
X50643Y-31335D02*
X51243Y-31735D01*
X51243Y-30793D02*
X51243Y-31136D01*
X51243Y-30964D02*
X50643Y-30964D01*
X50729Y-31021D01*
X50786Y-31079D01*
X50814Y-31136D01*
G54D18*
X32407Y-25833D02*
X32407Y-26400D01*
X32429Y-26467D01*
X32450Y-26500D01*
X32493Y-26533D01*
X32579Y-26533D01*
X32621Y-26500D01*
X32643Y-26467D01*
X32664Y-26400D01*
X32664Y-25833D01*
X33114Y-26533D02*
X32857Y-26533D01*
X32985Y-26533D02*
X32985Y-25833D01*
X32942Y-25933D01*
X32900Y-26000D01*
X32857Y-26033D01*
G54D12*
X38433Y-29033D02*
X38433Y-28333D01*
X38699Y-28333D01*
X38766Y-28367D01*
X38799Y-28400D01*
X38833Y-28467D01*
X38833Y-28567D01*
X38799Y-28633D01*
X38766Y-28667D01*
X38699Y-28700D01*
X38433Y-28700D01*
X39233Y-28633D02*
X39166Y-28600D01*
X39133Y-28567D01*
X39099Y-28500D01*
X39099Y-28467D01*
X39133Y-28400D01*
X39166Y-28367D01*
X39233Y-28333D01*
X39366Y-28333D01*
X39433Y-28367D01*
X39466Y-28400D01*
X39499Y-28467D01*
X39499Y-28500D01*
X39466Y-28567D01*
X39433Y-28600D01*
X39366Y-28633D01*
X39233Y-28633D01*
X39166Y-28667D01*
X39133Y-28700D01*
X39099Y-28767D01*
X39099Y-28900D01*
X39133Y-28967D01*
X39166Y-29000D01*
X39233Y-29033D01*
X39366Y-29033D01*
X39433Y-29000D01*
X39466Y-28967D01*
X39499Y-28900D01*
X39499Y-28767D01*
X39466Y-28700D01*
X39433Y-28667D01*
X39366Y-28633D01*
X39733Y-28333D02*
X40200Y-29033D01*
X40200Y-28333D02*
X39733Y-29033D01*
X40400Y-28333D02*
X40833Y-28333D01*
X40600Y-28600D01*
X40700Y-28600D01*
X40767Y-28633D01*
X40800Y-28667D01*
X40833Y-28733D01*
X40833Y-28900D01*
X40800Y-28967D01*
X40767Y-29000D01*
X40700Y-29033D01*
X40500Y-29033D01*
X40433Y-29000D01*
X40400Y-28967D01*
X41100Y-28400D02*
X41134Y-28367D01*
X41200Y-28333D01*
X41367Y-28333D01*
X41434Y-28367D01*
X41467Y-28400D01*
X41500Y-28467D01*
X41500Y-28533D01*
X41467Y-28633D01*
X41067Y-29033D01*
X41500Y-29033D01*
X41767Y-28833D02*
X42101Y-28833D01*
X41701Y-29033D02*
X41934Y-28333D01*
X42167Y-29033D01*
G54D10*
X27952Y-25066D02*
X27714Y-25200D01*
X27952Y-25295D02*
X27452Y-25295D01*
X27452Y-25142D01*
X27476Y-25104D01*
X27500Y-25085D01*
X27548Y-25066D01*
X27619Y-25066D01*
X27667Y-25085D01*
X27690Y-25104D01*
X27714Y-25142D01*
X27714Y-25295D01*
X27952Y-24685D02*
X27952Y-24914D01*
X27952Y-24800D02*
X27452Y-24800D01*
X27524Y-24838D01*
X27571Y-24876D01*
X27595Y-24914D01*
G54D16*
X26705Y-40662D02*
X26705Y-40262D01*
X26858Y-40262D01*
X26896Y-40281D01*
X26915Y-40300D01*
X26934Y-40338D01*
X26934Y-40395D01*
X26915Y-40433D01*
X26896Y-40452D01*
X26858Y-40471D01*
X26705Y-40471D01*
X27162Y-40433D02*
X27124Y-40414D01*
X27105Y-40395D01*
X27086Y-40357D01*
X27086Y-40338D01*
X27105Y-40300D01*
X27124Y-40281D01*
X27162Y-40262D01*
X27239Y-40262D01*
X27277Y-40281D01*
X27296Y-40300D01*
X27315Y-40338D01*
X27315Y-40357D01*
X27296Y-40395D01*
X27277Y-40414D01*
X27239Y-40433D01*
X27162Y-40433D01*
X27124Y-40452D01*
X27105Y-40471D01*
X27086Y-40510D01*
X27086Y-40586D01*
X27105Y-40624D01*
X27124Y-40643D01*
X27162Y-40662D01*
X27239Y-40662D01*
X27277Y-40643D01*
X27296Y-40624D01*
X27315Y-40586D01*
X27315Y-40510D01*
X27296Y-40471D01*
X27277Y-40452D01*
X27239Y-40433D01*
X28705Y-22912D02*
X28705Y-22512D01*
X28858Y-22512D01*
X28896Y-22531D01*
X28915Y-22550D01*
X28934Y-22588D01*
X28934Y-22645D01*
X28915Y-22683D01*
X28896Y-22702D01*
X28858Y-22721D01*
X28705Y-22721D01*
X29124Y-22912D02*
X29200Y-22912D01*
X29239Y-22893D01*
X29258Y-22874D01*
X29296Y-22817D01*
X29315Y-22740D01*
X29315Y-22588D01*
X29296Y-22550D01*
X29277Y-22531D01*
X29239Y-22512D01*
X29162Y-22512D01*
X29124Y-22531D01*
X29105Y-22550D01*
X29086Y-22588D01*
X29086Y-22683D01*
X29105Y-22721D01*
X29124Y-22740D01*
X29162Y-22760D01*
X29239Y-22760D01*
X29277Y-22740D01*
X29296Y-22721D01*
X29315Y-22683D01*
G54D19*
X27452Y-24593D02*
X27857Y-24593D01*
X27905Y-24571D01*
X27929Y-24550D01*
X27952Y-24507D01*
X27952Y-24421D01*
X27929Y-24379D01*
X27905Y-24357D01*
X27857Y-24336D01*
X27452Y-24336D01*
X27500Y-24143D02*
X27476Y-24122D01*
X27452Y-24079D01*
X27452Y-23972D01*
X27476Y-23929D01*
X27500Y-23908D01*
X27548Y-23886D01*
X27595Y-23886D01*
X27667Y-23908D01*
X27952Y-24165D01*
X27952Y-23886D01*
X24174Y-24000D02*
X24193Y-23976D01*
X24231Y-23952D01*
X24327Y-23952D01*
X24365Y-23976D01*
X24384Y-24000D01*
X24403Y-24048D01*
X24403Y-24095D01*
X24384Y-24167D01*
X24155Y-24452D01*
X24403Y-24452D01*
X24746Y-24119D02*
X24746Y-24452D01*
X24650Y-23929D02*
X24555Y-24286D01*
X24803Y-24286D01*
X25184Y-24405D02*
X25165Y-24429D01*
X25108Y-24452D01*
X25070Y-24452D01*
X25012Y-24429D01*
X24974Y-24381D01*
X24955Y-24333D01*
X24936Y-24238D01*
X24936Y-24167D01*
X24955Y-24071D01*
X24974Y-24024D01*
X25012Y-23976D01*
X25070Y-23952D01*
X25108Y-23952D01*
X25165Y-23976D01*
X25184Y-24000D01*
X25546Y-23952D02*
X25355Y-23952D01*
X25336Y-24190D01*
X25355Y-24167D01*
X25393Y-24143D01*
X25489Y-24143D01*
X25527Y-24167D01*
X25546Y-24190D01*
X25565Y-24238D01*
X25565Y-24357D01*
X25546Y-24405D01*
X25527Y-24429D01*
X25489Y-24452D01*
X25393Y-24452D01*
X25355Y-24429D01*
X25336Y-24405D01*
X25946Y-24452D02*
X25717Y-24452D01*
X25831Y-24452D02*
X25831Y-23952D01*
X25793Y-24024D01*
X25755Y-24071D01*
X25717Y-24095D01*
X26098Y-24000D02*
X26117Y-23976D01*
X26155Y-23952D01*
X26251Y-23952D01*
X26289Y-23976D01*
X26308Y-24000D01*
X26327Y-24048D01*
X26327Y-24095D01*
X26308Y-24167D01*
X26079Y-24452D01*
X26327Y-24452D01*
G54D17*
X46674Y-34344D02*
X46674Y-34895D01*
X46694Y-34960D01*
X46715Y-34993D01*
X46755Y-35025D01*
X46837Y-35025D01*
X46878Y-34993D01*
X46898Y-34960D01*
X46918Y-34895D01*
X46918Y-34344D01*
X47081Y-34344D02*
X47346Y-34344D01*
X47203Y-34604D01*
X47265Y-34604D01*
X47305Y-34636D01*
X47326Y-34668D01*
X47346Y-34733D01*
X47346Y-34895D01*
X47326Y-34960D01*
X47305Y-34993D01*
X47265Y-35025D01*
X47142Y-35025D01*
X47102Y-34993D01*
X47081Y-34960D01*
G54D16*
X43384Y-34993D02*
X43193Y-34993D01*
X43193Y-34393D01*
X43498Y-34964D02*
X43555Y-34993D01*
X43651Y-34993D01*
X43689Y-34964D01*
X43708Y-34936D01*
X43727Y-34879D01*
X43727Y-34821D01*
X43708Y-34764D01*
X43689Y-34736D01*
X43651Y-34707D01*
X43574Y-34679D01*
X43536Y-34650D01*
X43517Y-34621D01*
X43498Y-34564D01*
X43498Y-34507D01*
X43517Y-34450D01*
X43536Y-34421D01*
X43574Y-34393D01*
X43670Y-34393D01*
X43727Y-34421D01*
X43898Y-34993D02*
X43898Y-34393D01*
X44032Y-34821D01*
X44165Y-34393D01*
X44165Y-34993D01*
X44317Y-34393D02*
X44565Y-34393D01*
X44431Y-34621D01*
X44489Y-34621D01*
X44527Y-34650D01*
X44546Y-34679D01*
X44565Y-34736D01*
X44565Y-34879D01*
X44546Y-34936D01*
X44527Y-34964D01*
X44489Y-34993D01*
X44374Y-34993D01*
X44336Y-34964D01*
X44317Y-34936D01*
X44812Y-34393D02*
X44851Y-34393D01*
X44889Y-34421D01*
X44908Y-34450D01*
X44927Y-34507D01*
X44946Y-34621D01*
X44946Y-34764D01*
X44927Y-34879D01*
X44908Y-34936D01*
X44889Y-34964D01*
X44851Y-34993D01*
X44812Y-34993D01*
X44774Y-34964D01*
X44755Y-34936D01*
X44736Y-34879D01*
X44717Y-34764D01*
X44717Y-34621D01*
X44736Y-34507D01*
X44755Y-34450D01*
X44774Y-34421D01*
X44812Y-34393D01*
X45079Y-34393D02*
X45327Y-34393D01*
X45193Y-34621D01*
X45251Y-34621D01*
X45289Y-34650D01*
X45308Y-34679D01*
X45327Y-34736D01*
X45327Y-34879D01*
X45308Y-34936D01*
X45289Y-34964D01*
X45251Y-34993D01*
X45136Y-34993D01*
X45098Y-34964D01*
X45079Y-34936D01*
G54D10*
X22452Y-38816D02*
X22214Y-38950D01*
X22452Y-39045D02*
X21952Y-39045D01*
X21952Y-38892D01*
X21976Y-38854D01*
X22000Y-38835D01*
X22048Y-38816D01*
X22119Y-38816D01*
X22167Y-38835D01*
X22190Y-38854D01*
X22214Y-38892D01*
X22214Y-39045D01*
X22000Y-38664D02*
X21976Y-38645D01*
X21952Y-38607D01*
X21952Y-38511D01*
X21976Y-38473D01*
X22000Y-38454D01*
X22048Y-38435D01*
X22095Y-38435D01*
X22167Y-38454D01*
X22452Y-38683D01*
X22452Y-38435D01*
G54D20*
X22471Y-35922D02*
X22171Y-35922D01*
X22171Y-35850D01*
X22186Y-35807D01*
X22214Y-35779D01*
X22243Y-35764D01*
X22300Y-35750D01*
X22343Y-35750D01*
X22400Y-35764D01*
X22429Y-35779D01*
X22457Y-35807D01*
X22471Y-35850D01*
X22471Y-35922D01*
X22471Y-35464D02*
X22471Y-35636D01*
X22471Y-35550D02*
X22171Y-35550D01*
X22214Y-35579D01*
X22243Y-35607D01*
X22257Y-35636D01*
X20371Y-35193D02*
X20371Y-35336D01*
X20071Y-35336D01*
X20214Y-35093D02*
X20214Y-34993D01*
X20371Y-34950D02*
X20371Y-35093D01*
X20071Y-35093D01*
X20071Y-34950D01*
X20371Y-34822D02*
X20071Y-34822D01*
X20071Y-34750D01*
X20086Y-34707D01*
X20114Y-34679D01*
X20143Y-34664D01*
X20200Y-34650D01*
X20243Y-34650D01*
X20300Y-34664D01*
X20329Y-34679D01*
X20357Y-34707D01*
X20371Y-34750D01*
X20371Y-34822D01*
G54D19*
X51945Y-27512D02*
X51945Y-27836D01*
X51964Y-27874D01*
X51983Y-27893D01*
X52021Y-27912D01*
X52098Y-27912D01*
X52136Y-27893D01*
X52155Y-27874D01*
X52174Y-27836D01*
X52174Y-27512D01*
X52536Y-27645D02*
X52536Y-27912D01*
X52440Y-27493D02*
X52345Y-27779D01*
X52593Y-27779D01*
X51826Y-24262D02*
X52055Y-24262D01*
X51940Y-24662D02*
X51940Y-24262D01*
X52188Y-24662D02*
X52188Y-24262D01*
X52322Y-24548D01*
X52455Y-24262D01*
X52455Y-24662D01*
X52645Y-24662D02*
X52645Y-24262D01*
X52798Y-24262D01*
X52836Y-24281D01*
X52855Y-24300D01*
X52874Y-24338D01*
X52874Y-24395D01*
X52855Y-24433D01*
X52836Y-24452D01*
X52798Y-24471D01*
X52645Y-24471D01*
X53007Y-24262D02*
X53255Y-24262D01*
X53121Y-24414D01*
X53179Y-24414D01*
X53217Y-24433D01*
X53236Y-24452D01*
X53255Y-24490D01*
X53255Y-24586D01*
X53236Y-24624D01*
X53217Y-24643D01*
X53179Y-24662D01*
X53064Y-24662D01*
X53026Y-24643D01*
X53007Y-24624D01*
X53598Y-24262D02*
X53521Y-24262D01*
X53483Y-24281D01*
X53464Y-24300D01*
X53426Y-24357D01*
X53407Y-24433D01*
X53407Y-24586D01*
X53426Y-24624D01*
X53445Y-24643D01*
X53483Y-24662D01*
X53560Y-24662D01*
X53598Y-24643D01*
X53617Y-24624D01*
X53636Y-24586D01*
X53636Y-24490D01*
X53617Y-24452D01*
X53598Y-24433D01*
X53560Y-24414D01*
X53483Y-24414D01*
X53445Y-24433D01*
X53426Y-24452D01*
X53407Y-24490D01*
G54D17*
X29184Y-32525D02*
X29184Y-31844D01*
X29347Y-31844D01*
X29388Y-31877D01*
X29408Y-31909D01*
X29428Y-31974D01*
X29428Y-32071D01*
X29408Y-32136D01*
X29388Y-32168D01*
X29347Y-32201D01*
X29184Y-32201D01*
X29592Y-31909D02*
X29612Y-31877D01*
X29653Y-31844D01*
X29755Y-31844D01*
X29795Y-31877D01*
X29816Y-31909D01*
X29836Y-31974D01*
X29836Y-32039D01*
X29816Y-32136D01*
X29571Y-32525D01*
X29836Y-32525D01*
X29434Y-24525D02*
X29434Y-23844D01*
X29597Y-23844D01*
X29638Y-23877D01*
X29658Y-23909D01*
X29678Y-23974D01*
X29678Y-24071D01*
X29658Y-24136D01*
X29638Y-24168D01*
X29597Y-24201D01*
X29434Y-24201D01*
X29821Y-23844D02*
X30086Y-23844D01*
X29943Y-24104D01*
X30005Y-24104D01*
X30045Y-24136D01*
X30066Y-24168D01*
X30086Y-24233D01*
X30086Y-24395D01*
X30066Y-24460D01*
X30045Y-24493D01*
X30005Y-24525D01*
X29882Y-24525D01*
X29842Y-24493D01*
X29821Y-24460D01*
M02*
