G04 (created by PCBNEW-RS274X (2011-05-25)-stable) date Sun 15 Sep 2013 09:34:25 PM EDT*
G01*
G70*
G90*
%MOIN*%
G04 Gerber Fmt 3.4, Leading zero omitted, Abs format*
%FSLAX34Y34*%
G04 APERTURE LIST*
%ADD10C,0.006000*%
%ADD11R,0.075000X0.075000*%
%ADD12C,0.075000*%
%ADD13C,0.076000*%
%ADD14R,0.082000X0.110000*%
%ADD15O,0.082000X0.110000*%
%ADD16R,0.080000X0.080000*%
%ADD17C,0.080000*%
%ADD18C,0.180000*%
G04 APERTURE END LIST*
G54D10*
G54D11*
X21250Y-40500D03*
G54D12*
X21250Y-39500D03*
X21250Y-38500D03*
X21250Y-37500D03*
G54D13*
X52500Y-32250D03*
X52500Y-30250D03*
G54D14*
X30750Y-30750D03*
G54D15*
X31750Y-30750D03*
X32750Y-30750D03*
X33750Y-30750D03*
X34750Y-30750D03*
X35750Y-30750D03*
X36750Y-30750D03*
X37750Y-30750D03*
X38750Y-30750D03*
X39750Y-30750D03*
X40750Y-30750D03*
X41750Y-30750D03*
X42750Y-30750D03*
X43750Y-30750D03*
X44750Y-30750D03*
X45750Y-30750D03*
X46750Y-30750D03*
X47750Y-30750D03*
X48750Y-30750D03*
X49750Y-30750D03*
X49750Y-24750D03*
X48750Y-24750D03*
X47750Y-24750D03*
X46750Y-24750D03*
X45750Y-24750D03*
X44750Y-24750D03*
X43750Y-24750D03*
X42750Y-24750D03*
X41750Y-24750D03*
X40750Y-24750D03*
X39750Y-24750D03*
X38750Y-24750D03*
X37750Y-24750D03*
X36750Y-24750D03*
X35750Y-24750D03*
X34750Y-24750D03*
X33750Y-24750D03*
X32750Y-24750D03*
X31750Y-24750D03*
X30750Y-24750D03*
G54D12*
X28750Y-23250D03*
X28750Y-26750D03*
G54D16*
X28000Y-41000D03*
G54D17*
X28000Y-40000D03*
X33000Y-41000D03*
X29000Y-40000D03*
X34000Y-41000D03*
X30000Y-40000D03*
X35000Y-41000D03*
X31000Y-40000D03*
X36000Y-41000D03*
X32000Y-40000D03*
X37000Y-41000D03*
X33000Y-40000D03*
X38000Y-41000D03*
X34000Y-40000D03*
X39000Y-41000D03*
X35000Y-40000D03*
X40000Y-41000D03*
X36000Y-40000D03*
X41000Y-41000D03*
X37000Y-40000D03*
X42000Y-41000D03*
X38000Y-40000D03*
X43000Y-41000D03*
X39000Y-40000D03*
X40000Y-40000D03*
X44000Y-41000D03*
X41000Y-40000D03*
X43000Y-40000D03*
X44000Y-40000D03*
X45000Y-40000D03*
X46000Y-40000D03*
X45000Y-41000D03*
X46000Y-41000D03*
X29000Y-41000D03*
X30000Y-41000D03*
X31000Y-41000D03*
X32000Y-41000D03*
X47000Y-41000D03*
X47000Y-40000D03*
X42000Y-40000D03*
X48000Y-41000D03*
X48000Y-40000D03*
X49000Y-41000D03*
X49000Y-40000D03*
X50000Y-41000D03*
X50000Y-40000D03*
G54D16*
X28000Y-21750D03*
G54D17*
X28000Y-20750D03*
X33000Y-21750D03*
X29000Y-20750D03*
X34000Y-21750D03*
X30000Y-20750D03*
X35000Y-21750D03*
X31000Y-20750D03*
X36000Y-21750D03*
X32000Y-20750D03*
X37000Y-21750D03*
X33000Y-20750D03*
X38000Y-21750D03*
X34000Y-20750D03*
X39000Y-21750D03*
X35000Y-20750D03*
X40000Y-21750D03*
X36000Y-20750D03*
X41000Y-21750D03*
X37000Y-20750D03*
X42000Y-21750D03*
X38000Y-20750D03*
X43000Y-21750D03*
X39000Y-20750D03*
X40000Y-20750D03*
X44000Y-21750D03*
X41000Y-20750D03*
X43000Y-20750D03*
X44000Y-20750D03*
X45000Y-20750D03*
X46000Y-20750D03*
X45000Y-21750D03*
X46000Y-21750D03*
X29000Y-21750D03*
X30000Y-21750D03*
X31000Y-21750D03*
X32000Y-21750D03*
X47000Y-21750D03*
X47000Y-20750D03*
X42000Y-20750D03*
X48000Y-21750D03*
X48000Y-20750D03*
X49000Y-21750D03*
X49000Y-20750D03*
X50000Y-21750D03*
X50000Y-20750D03*
G54D11*
X26750Y-22750D03*
G54D12*
X25750Y-22750D03*
X24750Y-22750D03*
X23750Y-22750D03*
X23750Y-25750D03*
X24750Y-25750D03*
X25750Y-25750D03*
X26750Y-25750D03*
G54D11*
X49750Y-33750D03*
G54D12*
X48750Y-33750D03*
X47750Y-33750D03*
X46750Y-33750D03*
X45750Y-33750D03*
X44750Y-33750D03*
X43750Y-33750D03*
X42750Y-33750D03*
X23000Y-37000D03*
X23000Y-40500D03*
G54D11*
X53250Y-25750D03*
G54D12*
X52250Y-25750D03*
X52250Y-26750D03*
G54D11*
X30750Y-32250D03*
G54D12*
X31750Y-32250D03*
X32750Y-32250D03*
X33750Y-32250D03*
X34750Y-32250D03*
X35750Y-32250D03*
X36750Y-32250D03*
X37750Y-32250D03*
X38750Y-32250D03*
X39750Y-32250D03*
X40750Y-32250D03*
X41750Y-32250D03*
X42750Y-32250D03*
X43750Y-32250D03*
X44750Y-32250D03*
X45750Y-32250D03*
X46750Y-32250D03*
X47750Y-32250D03*
X48750Y-32250D03*
X49750Y-32250D03*
G54D11*
X30750Y-23250D03*
G54D12*
X31750Y-23250D03*
X32750Y-23250D03*
X33750Y-23250D03*
X34750Y-23250D03*
X35750Y-23250D03*
X36750Y-23250D03*
X37750Y-23250D03*
X38750Y-23250D03*
X39750Y-23250D03*
X40750Y-23250D03*
X41750Y-23250D03*
X42750Y-23250D03*
X43750Y-23250D03*
X44750Y-23250D03*
X45750Y-23250D03*
X46750Y-23250D03*
X47750Y-23250D03*
X48750Y-23250D03*
X49750Y-23250D03*
G54D18*
X25750Y-40250D03*
X51750Y-39000D03*
X51750Y-22500D03*
X25750Y-21250D03*
M02*
