G04 (created by PCBNEW-RS274X (2011-05-25)-stable) date Wed 02 Oct 2013 11:00:19 PM EDT*
G01*
G70*
G90*
%MOIN*%
G04 Gerber Fmt 3.4, Leading zero omitted, Abs format*
%FSLAX34Y34*%
G04 APERTURE LIST*
%ADD10C,0.006000*%
%ADD11C,0.012000*%
G04 APERTURE END LIST*
G54D10*
G54D11*
X47113Y-37074D02*
X47113Y-36274D01*
X46885Y-36274D01*
X46827Y-36312D01*
X46799Y-36350D01*
X46770Y-36426D01*
X46770Y-36540D01*
X46799Y-36617D01*
X46827Y-36655D01*
X46885Y-36693D01*
X47113Y-36693D01*
X46513Y-37074D02*
X46513Y-36540D01*
X46513Y-36693D02*
X46485Y-36617D01*
X46456Y-36579D01*
X46399Y-36540D01*
X46342Y-36540D01*
X46056Y-37074D02*
X46114Y-37036D01*
X46142Y-36998D01*
X46171Y-36921D01*
X46171Y-36693D01*
X46142Y-36617D01*
X46114Y-36579D01*
X46056Y-36540D01*
X45971Y-36540D01*
X45914Y-36579D01*
X45885Y-36617D01*
X45856Y-36693D01*
X45856Y-36921D01*
X45885Y-36998D01*
X45914Y-37036D01*
X45971Y-37074D01*
X46056Y-37074D01*
X45599Y-36540D02*
X45599Y-37340D01*
X45599Y-36579D02*
X45542Y-36540D01*
X45428Y-36540D01*
X45371Y-36579D01*
X45342Y-36617D01*
X45313Y-36693D01*
X45313Y-36921D01*
X45342Y-36998D01*
X45371Y-37036D01*
X45428Y-37074D01*
X45542Y-37074D01*
X45599Y-37036D01*
X44713Y-36998D02*
X44742Y-37036D01*
X44828Y-37074D01*
X44885Y-37074D01*
X44970Y-37036D01*
X45028Y-36960D01*
X45056Y-36883D01*
X45085Y-36731D01*
X45085Y-36617D01*
X45056Y-36464D01*
X45028Y-36388D01*
X44970Y-36312D01*
X44885Y-36274D01*
X44828Y-36274D01*
X44742Y-36312D01*
X44713Y-36350D01*
X44199Y-37074D02*
X44199Y-36655D01*
X44228Y-36579D01*
X44285Y-36540D01*
X44399Y-36540D01*
X44456Y-36579D01*
X44199Y-37036D02*
X44256Y-37074D01*
X44399Y-37074D01*
X44456Y-37036D01*
X44485Y-36960D01*
X44485Y-36883D01*
X44456Y-36807D01*
X44399Y-36769D01*
X44256Y-36769D01*
X44199Y-36731D01*
X43913Y-36540D02*
X43913Y-37340D01*
X43913Y-36579D02*
X43856Y-36540D01*
X43742Y-36540D01*
X43685Y-36579D01*
X43656Y-36617D01*
X43627Y-36693D01*
X43627Y-36921D01*
X43656Y-36998D01*
X43685Y-37036D01*
X43742Y-37074D01*
X43856Y-37074D01*
X43913Y-37036D01*
X43142Y-37036D02*
X43199Y-37074D01*
X43313Y-37074D01*
X43370Y-37036D01*
X43399Y-36960D01*
X43399Y-36655D01*
X43370Y-36579D01*
X43313Y-36540D01*
X43199Y-36540D01*
X43142Y-36579D01*
X43113Y-36655D01*
X43113Y-36731D01*
X43399Y-36807D01*
X42456Y-36540D02*
X42313Y-37074D01*
X42171Y-36540D01*
X41371Y-36274D02*
X41314Y-36274D01*
X41257Y-36312D01*
X41228Y-36350D01*
X41199Y-36426D01*
X41171Y-36579D01*
X41171Y-36769D01*
X41199Y-36921D01*
X41228Y-36998D01*
X41257Y-37036D01*
X41314Y-37074D01*
X41371Y-37074D01*
X41428Y-37036D01*
X41457Y-36998D01*
X41485Y-36921D01*
X41514Y-36769D01*
X41514Y-36579D01*
X41485Y-36426D01*
X41457Y-36350D01*
X41428Y-36312D01*
X41371Y-36274D01*
X40914Y-36998D02*
X40886Y-37036D01*
X40914Y-37074D01*
X40943Y-37036D01*
X40914Y-36998D01*
X40914Y-37074D01*
X40657Y-36350D02*
X40628Y-36312D01*
X40571Y-36274D01*
X40428Y-36274D01*
X40371Y-36312D01*
X40342Y-36350D01*
X40314Y-36426D01*
X40314Y-36502D01*
X40342Y-36617D01*
X40685Y-37074D01*
X40314Y-37074D01*
X49015Y-38314D02*
X49015Y-37514D01*
X48787Y-37514D01*
X48729Y-37552D01*
X48701Y-37590D01*
X48672Y-37666D01*
X48672Y-37780D01*
X48701Y-37857D01*
X48729Y-37895D01*
X48787Y-37933D01*
X49015Y-37933D01*
X48444Y-38276D02*
X48358Y-38314D01*
X48215Y-38314D01*
X48158Y-38276D01*
X48129Y-38238D01*
X48101Y-38161D01*
X48101Y-38085D01*
X48129Y-38009D01*
X48158Y-37971D01*
X48215Y-37933D01*
X48329Y-37895D01*
X48387Y-37857D01*
X48415Y-37819D01*
X48444Y-37742D01*
X48444Y-37666D01*
X48415Y-37590D01*
X48387Y-37552D01*
X48329Y-37514D01*
X48187Y-37514D01*
X48101Y-37552D01*
X47844Y-38314D02*
X47844Y-37514D01*
X47215Y-38238D02*
X47244Y-38276D01*
X47330Y-38314D01*
X47387Y-38314D01*
X47472Y-38276D01*
X47530Y-38200D01*
X47558Y-38123D01*
X47587Y-37971D01*
X47587Y-37857D01*
X47558Y-37704D01*
X47530Y-37628D01*
X47472Y-37552D01*
X47387Y-37514D01*
X47330Y-37514D01*
X47244Y-37552D01*
X47215Y-37590D01*
X46958Y-37895D02*
X46758Y-37895D01*
X46672Y-38314D02*
X46958Y-38314D01*
X46958Y-37514D01*
X46672Y-37514D01*
X46015Y-37780D02*
X45901Y-38314D01*
X45787Y-37933D01*
X45672Y-38314D01*
X45558Y-37780D01*
X45386Y-37780D02*
X45272Y-38314D01*
X45158Y-37933D01*
X45043Y-38314D01*
X44929Y-37780D01*
X44757Y-37780D02*
X44643Y-38314D01*
X44529Y-37933D01*
X44414Y-38314D01*
X44300Y-37780D01*
X44071Y-38238D02*
X44043Y-38276D01*
X44071Y-38314D01*
X44100Y-38276D01*
X44071Y-38238D01*
X44071Y-38314D01*
X43785Y-37780D02*
X43785Y-38580D01*
X43785Y-37819D02*
X43728Y-37780D01*
X43614Y-37780D01*
X43557Y-37819D01*
X43528Y-37857D01*
X43499Y-37933D01*
X43499Y-38161D01*
X43528Y-38238D01*
X43557Y-38276D01*
X43614Y-38314D01*
X43728Y-38314D01*
X43785Y-38276D01*
X43271Y-38276D02*
X43214Y-38314D01*
X43099Y-38314D01*
X43042Y-38276D01*
X43014Y-38200D01*
X43014Y-38161D01*
X43042Y-38085D01*
X43099Y-38047D01*
X43185Y-38047D01*
X43242Y-38009D01*
X43271Y-37933D01*
X43271Y-37895D01*
X43242Y-37819D01*
X43185Y-37780D01*
X43099Y-37780D01*
X43042Y-37819D01*
X42756Y-38314D02*
X42756Y-37780D01*
X42756Y-37514D02*
X42785Y-37552D01*
X42756Y-37590D01*
X42728Y-37552D01*
X42756Y-37514D01*
X42756Y-37590D01*
X42213Y-38276D02*
X42270Y-38314D01*
X42384Y-38314D01*
X42442Y-38276D01*
X42470Y-38238D01*
X42499Y-38161D01*
X42499Y-37933D01*
X42470Y-37857D01*
X42442Y-37819D01*
X42384Y-37780D01*
X42270Y-37780D01*
X42213Y-37819D01*
X41728Y-38276D02*
X41785Y-38314D01*
X41899Y-38314D01*
X41956Y-38276D01*
X41985Y-38200D01*
X41985Y-37895D01*
X41956Y-37819D01*
X41899Y-37780D01*
X41785Y-37780D01*
X41728Y-37819D01*
X41699Y-37895D01*
X41699Y-37971D01*
X41985Y-38047D01*
X41442Y-38238D02*
X41414Y-38276D01*
X41442Y-38314D01*
X41471Y-38276D01*
X41442Y-38238D01*
X41442Y-38314D01*
X41156Y-37780D02*
X41156Y-38580D01*
X41156Y-37819D02*
X41099Y-37780D01*
X40985Y-37780D01*
X40928Y-37819D01*
X40899Y-37857D01*
X40870Y-37933D01*
X40870Y-38161D01*
X40899Y-38238D01*
X40928Y-38276D01*
X40985Y-38314D01*
X41099Y-38314D01*
X41156Y-38276D01*
X40642Y-38276D02*
X40585Y-38314D01*
X40470Y-38314D01*
X40413Y-38276D01*
X40385Y-38200D01*
X40385Y-38161D01*
X40413Y-38085D01*
X40470Y-38047D01*
X40556Y-38047D01*
X40613Y-38009D01*
X40642Y-37933D01*
X40642Y-37895D01*
X40613Y-37819D01*
X40556Y-37780D01*
X40470Y-37780D01*
X40413Y-37819D01*
X39870Y-37780D02*
X39870Y-38314D01*
X40127Y-37780D02*
X40127Y-38200D01*
X40099Y-38276D01*
X40041Y-38314D01*
X39956Y-38314D01*
X39899Y-38276D01*
X39870Y-38238D01*
X39584Y-38238D02*
X39556Y-38276D01*
X39584Y-38314D01*
X39613Y-38276D01*
X39584Y-38238D01*
X39584Y-38314D01*
X39070Y-38276D02*
X39127Y-38314D01*
X39241Y-38314D01*
X39298Y-38276D01*
X39327Y-38200D01*
X39327Y-37895D01*
X39298Y-37819D01*
X39241Y-37780D01*
X39127Y-37780D01*
X39070Y-37819D01*
X39041Y-37895D01*
X39041Y-37971D01*
X39327Y-38047D01*
X38527Y-38314D02*
X38527Y-37514D01*
X38527Y-38276D02*
X38584Y-38314D01*
X38698Y-38314D01*
X38756Y-38276D01*
X38784Y-38238D01*
X38813Y-38161D01*
X38813Y-37933D01*
X38784Y-37857D01*
X38756Y-37819D01*
X38698Y-37780D01*
X38584Y-37780D01*
X38527Y-37819D01*
X37984Y-37780D02*
X37984Y-38314D01*
X38241Y-37780D02*
X38241Y-38200D01*
X38213Y-38276D01*
X38155Y-38314D01*
X38070Y-38314D01*
X38013Y-38276D01*
X37984Y-38238D01*
M02*
