G04 (created by PCBNEW-RS274X (2011-05-25)-stable) date Wed 02 Oct 2013 11:00:19 PM EDT*
G01*
G70*
G90*
%MOIN*%
G04 Gerber Fmt 3.4, Leading zero omitted, Abs format*
%FSLAX34Y34*%
G04 APERTURE LIST*
%ADD10C,0.006000*%
%ADD11R,0.055000X0.055000*%
%ADD12C,0.055000*%
%ADD13C,0.056000*%
%ADD14R,0.062000X0.090000*%
%ADD15O,0.062000X0.090000*%
%ADD16R,0.060000X0.060000*%
%ADD17C,0.060000*%
%ADD18C,0.066000*%
%ADD19C,0.160000*%
%ADD20C,0.035000*%
%ADD21C,0.008000*%
G04 APERTURE END LIST*
G54D10*
G54D11*
X52450Y-35450D03*
G54D12*
X52450Y-34450D03*
X52450Y-33450D03*
X52450Y-32450D03*
G54D13*
X40750Y-36400D03*
X38750Y-36400D03*
G54D14*
X49750Y-26950D03*
G54D15*
X48750Y-26950D03*
X47750Y-26950D03*
X46750Y-26950D03*
X45750Y-26950D03*
X44750Y-26950D03*
X43750Y-26950D03*
X42750Y-26950D03*
X41750Y-26950D03*
X40750Y-26950D03*
X39750Y-26950D03*
X38750Y-26950D03*
X37750Y-26950D03*
X36750Y-26950D03*
X35750Y-26950D03*
X34750Y-26950D03*
X33750Y-26950D03*
X32750Y-26950D03*
X31750Y-26950D03*
X30750Y-26950D03*
X30750Y-32950D03*
X31750Y-32950D03*
X32750Y-32950D03*
X33750Y-32950D03*
X34750Y-32950D03*
X35750Y-32950D03*
X36750Y-32950D03*
X37750Y-32950D03*
X38750Y-32950D03*
X39750Y-32950D03*
X40750Y-32950D03*
X41750Y-32950D03*
X42750Y-32950D03*
X43750Y-32950D03*
X44750Y-32950D03*
X45750Y-32950D03*
X46750Y-32950D03*
X47750Y-32950D03*
X48750Y-32950D03*
X49750Y-32950D03*
G54D12*
X31400Y-35350D03*
X31400Y-38850D03*
G54D16*
X28000Y-21750D03*
G54D17*
X28000Y-20750D03*
X33000Y-21750D03*
X29000Y-20750D03*
X34000Y-21750D03*
X30000Y-20750D03*
X35000Y-21750D03*
X31000Y-20750D03*
X36000Y-21750D03*
X32000Y-20750D03*
X37000Y-21750D03*
X33000Y-20750D03*
X38000Y-21750D03*
X34000Y-20750D03*
X39000Y-21750D03*
X35000Y-20750D03*
X40000Y-21750D03*
X36000Y-20750D03*
X41000Y-21750D03*
X37000Y-20750D03*
X42000Y-21750D03*
X38000Y-20750D03*
X43000Y-21750D03*
X39000Y-20750D03*
X40000Y-20750D03*
X44000Y-21750D03*
X41000Y-20750D03*
X43000Y-20750D03*
X44000Y-20750D03*
X45000Y-20750D03*
X46000Y-20750D03*
X45000Y-21750D03*
X46000Y-21750D03*
X29000Y-21750D03*
X30000Y-21750D03*
X31000Y-21750D03*
X32000Y-21750D03*
X47000Y-21750D03*
X47000Y-20750D03*
X42000Y-20750D03*
X48000Y-21750D03*
X48000Y-20750D03*
X49000Y-21750D03*
X49000Y-20750D03*
X50000Y-21750D03*
X50000Y-20750D03*
G54D16*
X28000Y-40750D03*
G54D17*
X28000Y-39750D03*
X33000Y-40750D03*
X29000Y-39750D03*
X34000Y-40750D03*
X30000Y-39750D03*
X35000Y-40750D03*
X31000Y-39750D03*
X36000Y-40750D03*
X32000Y-39750D03*
X37000Y-40750D03*
X33000Y-39750D03*
X38000Y-40750D03*
X34000Y-39750D03*
X39000Y-40750D03*
X35000Y-39750D03*
X40000Y-40750D03*
X36000Y-39750D03*
X41000Y-40750D03*
X37000Y-39750D03*
X42000Y-40750D03*
X38000Y-39750D03*
X43000Y-40750D03*
X39000Y-39750D03*
X40000Y-39750D03*
X44000Y-40750D03*
X41000Y-39750D03*
X43000Y-39750D03*
X44000Y-39750D03*
X45000Y-39750D03*
X46000Y-39750D03*
X45000Y-40750D03*
X46000Y-40750D03*
X29000Y-40750D03*
X30000Y-40750D03*
X31000Y-40750D03*
X32000Y-40750D03*
X47000Y-40750D03*
X47000Y-39750D03*
X42000Y-39750D03*
X48000Y-40750D03*
X48000Y-39750D03*
X49000Y-40750D03*
X49000Y-39750D03*
X50000Y-40750D03*
X50000Y-39750D03*
G54D11*
X33150Y-38700D03*
G54D12*
X34150Y-38700D03*
X35150Y-38700D03*
X36150Y-38700D03*
X36150Y-35700D03*
X35150Y-35700D03*
X34150Y-35700D03*
X33150Y-35700D03*
G54D11*
X49750Y-36050D03*
G54D12*
X48750Y-36050D03*
X47750Y-36050D03*
X46750Y-36050D03*
X45750Y-36050D03*
X44750Y-36050D03*
X43750Y-36050D03*
X42750Y-36050D03*
X21250Y-36600D03*
X21250Y-40100D03*
G54D18*
X21250Y-34500D03*
X21250Y-35500D03*
G54D10*
G36*
X23832Y-34250D02*
X23443Y-34639D01*
X23054Y-34250D01*
X23443Y-33861D01*
X23832Y-34250D01*
X23832Y-34250D01*
G37*
G54D12*
X24150Y-34957D03*
X24857Y-34250D03*
G54D11*
X49750Y-25450D03*
G54D12*
X48750Y-25450D03*
X47750Y-25450D03*
X46750Y-25450D03*
X45750Y-25450D03*
X44750Y-25450D03*
X43750Y-25450D03*
X42750Y-25450D03*
X41750Y-25450D03*
X40750Y-25450D03*
X39750Y-25450D03*
X38750Y-25450D03*
X37750Y-25450D03*
X36750Y-25450D03*
X35750Y-25450D03*
X34750Y-25450D03*
X33750Y-25450D03*
X32750Y-25450D03*
X31750Y-25450D03*
X30750Y-25450D03*
G54D11*
X49750Y-34450D03*
G54D12*
X48750Y-34450D03*
X47750Y-34450D03*
X46750Y-34450D03*
X45750Y-34450D03*
X44750Y-34450D03*
X43750Y-34450D03*
X42750Y-34450D03*
X41750Y-34450D03*
X40750Y-34450D03*
X39750Y-34450D03*
X38750Y-34450D03*
X37750Y-34450D03*
X36750Y-34450D03*
X35750Y-34450D03*
X34750Y-34450D03*
X33750Y-34450D03*
X32750Y-34450D03*
X31750Y-34450D03*
X30750Y-34450D03*
G54D19*
X25750Y-40250D03*
X51750Y-39000D03*
X51750Y-22500D03*
X25750Y-21250D03*
G54D12*
X23450Y-40050D03*
X23450Y-36550D03*
X24550Y-36550D03*
X24550Y-40050D03*
G54D16*
X52500Y-24350D03*
G54D17*
X52500Y-25350D03*
X52500Y-26350D03*
X52500Y-27350D03*
X52500Y-28350D03*
X52500Y-29350D03*
G54D20*
X40000Y-28200D03*
X40650Y-27850D03*
X44000Y-31200D03*
X32300Y-37600D03*
X45500Y-36900D03*
X44500Y-36900D03*
X49550Y-29700D03*
X49850Y-29000D03*
X51150Y-28150D03*
X45650Y-32050D03*
X47850Y-30350D03*
X48850Y-30350D03*
X51150Y-29700D03*
X51650Y-26200D03*
X47700Y-29000D03*
X51150Y-27700D03*
X46700Y-29000D03*
X28050Y-33500D03*
X28900Y-38850D03*
X32700Y-22650D03*
X34050Y-22750D03*
X34250Y-23950D03*
X33600Y-22750D03*
X35350Y-24550D03*
X33250Y-24450D03*
X32950Y-23750D03*
X34200Y-24400D03*
X33950Y-23300D03*
X33150Y-22750D03*
X33800Y-36550D03*
X34900Y-37650D03*
X33500Y-37450D03*
X35800Y-37850D03*
X32650Y-40250D03*
X30650Y-35350D03*
X31300Y-36000D03*
X31550Y-37300D03*
X35400Y-37600D03*
X33800Y-37850D03*
G54D21*
X41750Y-32950D02*
X45350Y-29350D01*
X45350Y-29350D02*
X52500Y-29350D01*
X38750Y-26950D02*
X40000Y-28200D01*
X41750Y-34450D02*
X41350Y-34050D01*
X41350Y-34050D02*
X34600Y-34050D01*
X34600Y-34050D02*
X34550Y-34100D01*
X34550Y-34100D02*
X34500Y-34100D01*
X34500Y-34100D02*
X34400Y-34200D01*
X34400Y-34200D02*
X34400Y-34250D01*
X34400Y-34250D02*
X34350Y-34300D01*
X34350Y-34300D02*
X34350Y-34500D01*
X34350Y-34500D02*
X33150Y-35700D01*
X29000Y-39750D02*
X28450Y-39200D01*
X28450Y-39200D02*
X25150Y-39200D01*
X25150Y-39200D02*
X24700Y-39650D01*
X24700Y-39650D02*
X24400Y-39650D01*
X24400Y-39650D02*
X24350Y-39700D01*
X24350Y-39700D02*
X24300Y-39700D01*
X24300Y-39700D02*
X23950Y-40050D01*
X23950Y-40050D02*
X23450Y-40050D01*
X31400Y-35350D02*
X31750Y-35700D01*
X31750Y-35700D02*
X33150Y-35700D01*
X39750Y-26950D02*
X40650Y-27850D01*
X44000Y-31200D02*
X45200Y-32400D01*
X45200Y-32400D02*
X45200Y-33400D01*
X45200Y-33400D02*
X45850Y-34050D01*
X45850Y-34050D02*
X50150Y-34050D01*
X50150Y-34050D02*
X50550Y-34450D01*
X50550Y-34450D02*
X52450Y-34450D01*
X47750Y-26950D02*
X45500Y-29200D01*
X45500Y-29200D02*
X45250Y-29200D01*
X45250Y-29200D02*
X42050Y-32400D01*
X42050Y-32400D02*
X30300Y-32400D01*
X30300Y-32400D02*
X28050Y-34650D01*
X28050Y-34650D02*
X24750Y-34650D01*
X24750Y-34650D02*
X24700Y-34600D01*
X24700Y-34600D02*
X24600Y-34600D01*
X24600Y-34600D02*
X24550Y-34550D01*
X24550Y-34550D02*
X24050Y-34550D01*
X24050Y-34550D02*
X24000Y-34600D01*
X24000Y-34600D02*
X23950Y-34600D01*
X23950Y-34600D02*
X23900Y-34650D01*
X23900Y-34650D02*
X23850Y-34650D01*
X23850Y-34650D02*
X23700Y-34800D01*
X23700Y-34800D02*
X23400Y-34800D01*
X23400Y-34800D02*
X23100Y-34500D01*
X23100Y-34500D02*
X21250Y-34500D01*
X24150Y-34957D02*
X24150Y-34950D01*
X24150Y-34950D02*
X28250Y-39050D01*
X28250Y-39050D02*
X28550Y-39050D01*
X28550Y-39050D02*
X28850Y-39350D01*
X28850Y-39350D02*
X33200Y-39350D01*
X33200Y-39350D02*
X33400Y-39550D01*
X33400Y-39550D02*
X33400Y-39750D01*
X33400Y-39750D02*
X33800Y-40150D01*
X33800Y-40150D02*
X46200Y-40150D01*
X46200Y-40150D02*
X46600Y-39750D01*
X46600Y-39750D02*
X47000Y-39750D01*
X49750Y-32950D02*
X50250Y-33450D01*
X50250Y-33450D02*
X52450Y-33450D01*
X48750Y-32950D02*
X49300Y-32400D01*
X49300Y-32400D02*
X50200Y-32400D01*
X50200Y-32400D02*
X50250Y-32450D01*
X50250Y-32450D02*
X52450Y-32450D01*
X32300Y-37600D02*
X33800Y-36100D01*
X33800Y-36100D02*
X34300Y-36100D01*
X34300Y-36100D02*
X34350Y-36050D01*
X34350Y-36050D02*
X34400Y-36050D01*
X34400Y-36050D02*
X34500Y-35950D01*
X34500Y-35950D02*
X34500Y-35900D01*
X34500Y-35900D02*
X34550Y-35850D01*
X34550Y-35850D02*
X34550Y-35700D01*
X34550Y-35700D02*
X34950Y-35300D01*
X34950Y-35300D02*
X35300Y-35300D01*
X35300Y-35300D02*
X35350Y-35350D01*
X35350Y-35350D02*
X35400Y-35350D01*
X35400Y-35350D02*
X35600Y-35550D01*
X35600Y-35550D02*
X35650Y-35550D01*
X35650Y-35550D02*
X35800Y-35700D01*
X35800Y-35700D02*
X36150Y-35700D01*
X45500Y-36900D02*
X45050Y-36450D01*
X45050Y-36450D02*
X42600Y-36450D01*
X42600Y-36450D02*
X42550Y-36400D01*
X42550Y-36400D02*
X42500Y-36400D01*
X42500Y-36400D02*
X41900Y-35800D01*
X41900Y-35800D02*
X39850Y-35800D01*
X39850Y-35800D02*
X39750Y-35700D01*
X39750Y-35700D02*
X36150Y-35700D01*
X44500Y-36900D02*
X44400Y-36800D01*
X44400Y-36800D02*
X38600Y-36800D01*
X38600Y-36800D02*
X38550Y-36750D01*
X38550Y-36750D02*
X38500Y-36750D01*
X38500Y-36750D02*
X37850Y-36100D01*
X37850Y-36100D02*
X36000Y-36100D01*
X36000Y-36100D02*
X35950Y-36050D01*
X35950Y-36050D02*
X35900Y-36050D01*
X35900Y-36050D02*
X35550Y-35700D01*
X35550Y-35700D02*
X35150Y-35700D01*
X45750Y-32950D02*
X49000Y-29700D01*
X49000Y-29700D02*
X49550Y-29700D01*
X49850Y-29000D02*
X50700Y-28150D01*
X50700Y-28150D02*
X51150Y-28150D01*
X45650Y-32050D02*
X47350Y-30350D01*
X47350Y-30350D02*
X47850Y-30350D01*
X48850Y-30350D02*
X49200Y-30000D01*
X49200Y-30000D02*
X49650Y-30000D01*
X49650Y-30000D02*
X49700Y-29950D01*
X49700Y-29950D02*
X49750Y-29950D01*
X49750Y-29950D02*
X50000Y-29700D01*
X50000Y-29700D02*
X51150Y-29700D01*
X51650Y-26200D02*
X52500Y-25350D01*
X47700Y-29000D02*
X49000Y-27700D01*
X49000Y-27700D02*
X51150Y-27700D01*
X46700Y-29000D02*
X48200Y-27500D01*
X48200Y-27500D02*
X50200Y-27500D01*
X50200Y-27500D02*
X50350Y-27350D01*
X50350Y-27350D02*
X52500Y-27350D01*
X28050Y-33500D02*
X27300Y-34250D01*
X27300Y-34250D02*
X24857Y-34250D01*
X38750Y-34450D02*
X39950Y-35650D01*
X39950Y-35650D02*
X43900Y-35650D01*
X43900Y-35650D02*
X43950Y-35700D01*
X43950Y-35700D02*
X44000Y-35700D01*
X44000Y-35700D02*
X44350Y-36050D01*
X44350Y-36050D02*
X44750Y-36050D01*
X52450Y-35450D02*
X52250Y-35650D01*
X52250Y-35650D02*
X45600Y-35650D01*
X45600Y-35650D02*
X45550Y-35700D01*
X45550Y-35700D02*
X45500Y-35700D01*
X45500Y-35700D02*
X45150Y-36050D01*
X45150Y-36050D02*
X44750Y-36050D01*
X34150Y-35700D02*
X35000Y-34850D01*
X35000Y-34850D02*
X37900Y-34850D01*
X37900Y-34850D02*
X37950Y-34800D01*
X37950Y-34800D02*
X38000Y-34800D01*
X38000Y-34800D02*
X38350Y-34450D01*
X38350Y-34450D02*
X38750Y-34450D01*
X28900Y-38850D02*
X29300Y-38450D01*
X29300Y-38450D02*
X31550Y-38450D01*
X31550Y-38450D02*
X31600Y-38500D01*
X31600Y-38500D02*
X31650Y-38500D01*
X31650Y-38500D02*
X31850Y-38700D01*
X31850Y-38700D02*
X33150Y-38700D01*
X24550Y-40050D02*
X25250Y-39350D01*
X25250Y-39350D02*
X26050Y-39350D01*
X26050Y-39350D02*
X26100Y-39400D01*
X26100Y-39400D02*
X26150Y-39400D01*
X26150Y-39400D02*
X26200Y-39450D01*
X26200Y-39450D02*
X26250Y-39450D01*
X26250Y-39450D02*
X26350Y-39550D01*
X26350Y-39550D02*
X26400Y-39550D01*
X26400Y-39550D02*
X26600Y-39750D01*
X26600Y-39750D02*
X28000Y-39750D01*
X24550Y-40050D02*
X24150Y-40450D01*
X24150Y-40450D02*
X23300Y-40450D01*
X23300Y-40450D02*
X23250Y-40400D01*
X23250Y-40400D02*
X23200Y-40400D01*
X23200Y-40400D02*
X22900Y-40100D01*
X22900Y-40100D02*
X21250Y-40100D01*
X40750Y-25450D02*
X41750Y-25450D01*
X34150Y-38700D02*
X33150Y-38700D01*
X35150Y-38700D02*
X34150Y-38700D01*
X41750Y-26950D02*
X40750Y-26950D01*
X35150Y-38700D02*
X36150Y-38700D01*
X32700Y-22650D02*
X33400Y-21950D01*
X33400Y-21950D02*
X33400Y-21750D01*
X33400Y-21750D02*
X33800Y-21350D01*
X33800Y-21350D02*
X36200Y-21350D01*
X36200Y-21350D02*
X36600Y-21750D01*
X36600Y-21750D02*
X37000Y-21750D01*
X36750Y-25450D02*
X34050Y-22750D01*
X35750Y-25450D02*
X34250Y-23950D01*
X33600Y-22750D02*
X34200Y-22150D01*
X34200Y-22150D02*
X35200Y-22150D01*
X35200Y-22150D02*
X35600Y-21750D01*
X35600Y-21750D02*
X36000Y-21750D01*
X42750Y-25450D02*
X39450Y-22150D01*
X39450Y-22150D02*
X38800Y-22150D01*
X38800Y-22150D02*
X38600Y-21950D01*
X38600Y-21950D02*
X38600Y-21750D01*
X38600Y-21750D02*
X38050Y-21200D01*
X38050Y-21200D02*
X33700Y-21200D01*
X33700Y-21200D02*
X33150Y-21750D01*
X33150Y-21750D02*
X33000Y-21750D01*
X31750Y-25450D02*
X33550Y-23650D01*
X33550Y-23650D02*
X34350Y-23650D01*
X34350Y-23650D02*
X34400Y-23700D01*
X34400Y-23700D02*
X34450Y-23700D01*
X34450Y-23700D02*
X35300Y-24550D01*
X35300Y-24550D02*
X35350Y-24550D01*
X46750Y-25450D02*
X46200Y-26000D01*
X46200Y-26000D02*
X35500Y-26000D01*
X35500Y-26000D02*
X35450Y-25950D01*
X35450Y-25950D02*
X35400Y-25950D01*
X35400Y-25950D02*
X35300Y-25850D01*
X35300Y-25850D02*
X34600Y-25850D01*
X34600Y-25850D02*
X34550Y-25800D01*
X34550Y-25800D02*
X34500Y-25800D01*
X34500Y-25800D02*
X34400Y-25700D01*
X34400Y-25700D02*
X34400Y-25650D01*
X34400Y-25650D02*
X34350Y-25600D01*
X34350Y-25600D02*
X34350Y-25450D01*
X34350Y-25450D02*
X33350Y-24450D01*
X33350Y-24450D02*
X33250Y-24450D01*
X32950Y-23750D02*
X32950Y-23700D01*
X32950Y-23700D02*
X31000Y-21750D01*
X45750Y-25450D02*
X42450Y-22150D01*
X42450Y-22150D02*
X41800Y-22150D01*
X41800Y-22150D02*
X41600Y-21950D01*
X41600Y-21950D02*
X41600Y-21750D01*
X41600Y-21750D02*
X41000Y-21150D01*
X41000Y-21150D02*
X40800Y-21150D01*
X40800Y-21150D02*
X40600Y-20950D01*
X40600Y-20950D02*
X40600Y-20750D01*
X40600Y-20750D02*
X40050Y-20200D01*
X40050Y-20200D02*
X32700Y-20200D01*
X32700Y-20200D02*
X32550Y-20350D01*
X32550Y-20350D02*
X31800Y-20350D01*
X31800Y-20350D02*
X31400Y-20750D01*
X31400Y-20750D02*
X31000Y-20750D01*
X43750Y-25450D02*
X40450Y-22150D01*
X40450Y-22150D02*
X39800Y-22150D01*
X39800Y-22150D02*
X39600Y-21950D01*
X39600Y-21950D02*
X39600Y-21750D01*
X39600Y-21750D02*
X39000Y-21150D01*
X39000Y-21150D02*
X38800Y-21150D01*
X38800Y-21150D02*
X38600Y-20950D01*
X38600Y-20950D02*
X38600Y-20750D01*
X38600Y-20750D02*
X38200Y-20350D01*
X38200Y-20350D02*
X32800Y-20350D01*
X32800Y-20350D02*
X32400Y-20750D01*
X32400Y-20750D02*
X32000Y-20750D01*
X44750Y-25450D02*
X44350Y-25850D01*
X44350Y-25850D02*
X35600Y-25850D01*
X35600Y-25850D02*
X35550Y-25800D01*
X35550Y-25800D02*
X35500Y-25800D01*
X35500Y-25800D02*
X35400Y-25700D01*
X35400Y-25700D02*
X35400Y-25650D01*
X35400Y-25650D02*
X35350Y-25600D01*
X35350Y-25600D02*
X35350Y-25450D01*
X35350Y-25450D02*
X34300Y-24400D01*
X34300Y-24400D02*
X34200Y-24400D01*
X33950Y-23300D02*
X33700Y-23050D01*
X33700Y-23050D02*
X33500Y-23050D01*
X33500Y-23050D02*
X33450Y-23000D01*
X33450Y-23000D02*
X33400Y-23000D01*
X33400Y-23000D02*
X33150Y-22750D01*
X23450Y-36550D02*
X24550Y-36550D01*
X33800Y-36550D02*
X34900Y-37650D01*
X33500Y-37450D02*
X33500Y-38000D01*
X33500Y-38000D02*
X33650Y-38150D01*
X33650Y-38150D02*
X33900Y-38150D01*
X33900Y-38150D02*
X33950Y-38100D01*
X33950Y-38100D02*
X35150Y-38100D01*
X35150Y-38100D02*
X35350Y-37900D01*
X35350Y-37900D02*
X35500Y-37900D01*
X35500Y-37900D02*
X35550Y-37850D01*
X35550Y-37850D02*
X35800Y-37850D01*
X32650Y-40250D02*
X32750Y-40350D01*
X32750Y-40350D02*
X37200Y-40350D01*
X37200Y-40350D02*
X37600Y-40750D01*
X37600Y-40750D02*
X38000Y-40750D01*
X30650Y-35350D02*
X31300Y-36000D01*
X31550Y-37300D02*
X32550Y-38300D01*
X32550Y-38300D02*
X36300Y-38300D01*
X36300Y-38300D02*
X36350Y-38350D01*
X36350Y-38350D02*
X36400Y-38350D01*
X36400Y-38350D02*
X37800Y-39750D01*
X37800Y-39750D02*
X38000Y-39750D01*
X35400Y-37600D02*
X35050Y-37950D01*
X35050Y-37950D02*
X34800Y-37950D01*
X34800Y-37950D02*
X34750Y-37900D01*
X34750Y-37900D02*
X34700Y-37900D01*
X34700Y-37900D02*
X34650Y-37850D01*
X34650Y-37850D02*
X33800Y-37850D01*
M02*
