M48
;DRILL file {PCBnew (2011-05-25)-stable} date Wed 02 Oct 2013 10:58:40 PM EDT
;FORMAT={2:4/ absolute / inch / suppress leading zeros}
FMAT,2
INCH,TZ
T1C0.025
T2C0.030
T3C0.032
T4C0.040
T5C0.130
%
G90
G05
M72
T1
X28050Y-33500
X28900Y-38850
X30650Y-35350
X31300Y-36000
X31550Y-37300
X32300Y-37600
X32650Y-40250
X32700Y-22650
X32950Y-23750
X33150Y-22750
X33250Y-24450
X33500Y-37450
X33600Y-22750
X33800Y-36550
X33800Y-37850
X33950Y-23300
X34050Y-22750
X34200Y-24400
X34250Y-23950
X34900Y-37650
X35350Y-24550
X35400Y-37600
X35800Y-37850
X40000Y-28200
X40650Y-27850
X44000Y-31200
X44500Y-36900
X45500Y-36900
X45650Y-32050
X46700Y-29000
X47700Y-29000
X47850Y-30350
X48850Y-30350
X49550Y-29700
X49850Y-29000
X51150Y-27700
X51150Y-28150
X51150Y-29700
X51650Y-26200
T2
X38750Y-36400
X40750Y-36400
T3
X21250Y-34500
X21250Y-35500
X21250Y-36600
X21250Y-40100
X23443Y-34250
X23450Y-36550
X23450Y-40050
X24150Y-34957
X24550Y-36550
X24550Y-40050
X24857Y-34250
X28000Y-21750
X28000Y-40750
X30750Y-25450
X30750Y-26950
X30750Y-32950
X30750Y-34450
X31400Y-35350
X31400Y-38850
X31750Y-25450
X31750Y-26950
X31750Y-32950
X31750Y-34450
X32750Y-25450
X32750Y-26950
X32750Y-32950
X32750Y-34450
X33150Y-35700
X33150Y-38700
X33750Y-25450
X33750Y-26950
X33750Y-32950
X33750Y-34450
X34150Y-35700
X34150Y-38700
X34750Y-25450
X34750Y-26950
X34750Y-32950
X34750Y-34450
X35150Y-35700
X35150Y-38700
X35750Y-25450
X35750Y-26950
X35750Y-32950
X35750Y-34450
X36150Y-35700
X36150Y-38700
X36750Y-25450
X36750Y-26950
X36750Y-32950
X36750Y-34450
X37750Y-25450
X37750Y-26950
X37750Y-32950
X37750Y-34450
X38750Y-25450
X38750Y-26950
X38750Y-32950
X38750Y-34450
X39750Y-25450
X39750Y-26950
X39750Y-32950
X39750Y-34450
X40750Y-25450
X40750Y-26950
X40750Y-32950
X40750Y-34450
X41750Y-25450
X41750Y-26950
X41750Y-32950
X41750Y-34450
X42750Y-25450
X42750Y-26950
X42750Y-32950
X42750Y-34450
X42750Y-36050
X43750Y-25450
X43750Y-26950
X43750Y-32950
X43750Y-34450
X43750Y-36050
X44750Y-25450
X44750Y-26950
X44750Y-32950
X44750Y-34450
X44750Y-36050
X45750Y-25450
X45750Y-26950
X45750Y-32950
X45750Y-34450
X45750Y-36050
X46750Y-25450
X46750Y-26950
X46750Y-32950
X46750Y-34450
X46750Y-36050
X47750Y-25450
X47750Y-26950
X47750Y-32950
X47750Y-34450
X47750Y-36050
X48750Y-25450
X48750Y-26950
X48750Y-32950
X48750Y-34450
X48750Y-36050
X49750Y-25450
X49750Y-26950
X49750Y-32950
X49750Y-34450
X49750Y-36050
X52450Y-32450
X52450Y-33450
X52450Y-34450
X52450Y-35450
T4
X28000Y-20750
X28000Y-39750
X29000Y-20750
X29000Y-21750
X29000Y-39750
X29000Y-40750
X30000Y-20750
X30000Y-21750
X30000Y-39750
X30000Y-40750
X31000Y-20750
X31000Y-21750
X31000Y-39750
X31000Y-40750
X32000Y-20750
X32000Y-21750
X32000Y-39750
X32000Y-40750
X33000Y-20750
X33000Y-21750
X33000Y-39750
X33000Y-40750
X34000Y-20750
X34000Y-21750
X34000Y-39750
X34000Y-40750
X35000Y-20750
X35000Y-21750
X35000Y-39750
X35000Y-40750
X36000Y-20750
X36000Y-21750
X36000Y-39750
X36000Y-40750
X37000Y-20750
X37000Y-21750
X37000Y-39750
X37000Y-40750
X38000Y-20750
X38000Y-21750
X38000Y-39750
X38000Y-40750
X39000Y-20750
X39000Y-21750
X39000Y-39750
X39000Y-40750
X40000Y-20750
X40000Y-21750
X40000Y-39750
X40000Y-40750
X41000Y-20750
X41000Y-21750
X41000Y-39750
X41000Y-40750
X42000Y-20750
X42000Y-21750
X42000Y-39750
X42000Y-40750
X43000Y-20750
X43000Y-21750
X43000Y-39750
X43000Y-40750
X44000Y-20750
X44000Y-21750
X44000Y-39750
X44000Y-40750
X45000Y-20750
X45000Y-21750
X45000Y-39750
X45000Y-40750
X46000Y-20750
X46000Y-21750
X46000Y-39750
X46000Y-40750
X47000Y-20750
X47000Y-21750
X47000Y-39750
X47000Y-40750
X48000Y-20750
X48000Y-21750
X48000Y-39750
X48000Y-40750
X49000Y-20750
X49000Y-21750
X49000Y-39750
X49000Y-40750
X50000Y-20750
X50000Y-21750
X50000Y-39750
X50000Y-40750
X52500Y-24350
X52500Y-25350
X52500Y-26350
X52500Y-27350
X52500Y-28350
X52500Y-29350
T5
X25750Y-21250
X25750Y-40250
X51750Y-22500
X51750Y-39000
T0
M30
