M48
;DRILL file {PCBnew (2011-05-25)-stable} date Sun 15 Sep 2013 09:41:36 PM EDT
;FORMAT={2:4/ absolute / inch / keep zeros}
FMAT,2
INCH,TZ
T1C0.025
T2C0.030
T3C0.032
T4C0.040
T5C0.130
%
G90
G05
M72
T1
X024250Y-024250
X024250Y-040250
X025000Y-024500
X025000Y-033750
X026250Y-038250
X026500Y-035250
X030500Y-026000
X031250Y-029000
X032250Y-038750
X033500Y-038500
X034750Y-026000
X036000Y-026000
X036250Y-038750
X037000Y-026750
X037250Y-034750
X037750Y-038000
X039000Y-026000
X039000Y-026750
X039000Y-027750
X039000Y-036250
X039500Y-033500
X039750Y-038750
X040250Y-033750
X040250Y-034750
X042500Y-035000
X042750Y-026000
X042750Y-026750
X044500Y-035000
X045000Y-036500
X045500Y-035000
X046500Y-035000
X047500Y-035000
X049500Y-029250
T2
X052500Y-030250
X052500Y-032250
T3
X021250Y-034500
X021250Y-035500
X021250Y-037500
X021250Y-038500
X021250Y-039500
X021250Y-040500
X023000Y-037000
X023000Y-040500
X023750Y-022750
X023750Y-025750
X024750Y-022750
X024750Y-025750
X025750Y-022750
X025750Y-025750
X026750Y-022750
X026750Y-025750
X028000Y-021750
X028000Y-041000
X028750Y-023250
X028750Y-026750
X030750Y-023250
X030750Y-024750
X030750Y-030750
X030750Y-032250
X031750Y-023250
X031750Y-024750
X031750Y-030750
X031750Y-032250
X032750Y-023250
X032750Y-024750
X032750Y-030750
X032750Y-032250
X033750Y-023250
X033750Y-024750
X033750Y-030750
X033750Y-032250
X034750Y-023250
X034750Y-024750
X034750Y-030750
X034750Y-032250
X035750Y-023250
X035750Y-024750
X035750Y-030750
X035750Y-032250
X036750Y-023250
X036750Y-024750
X036750Y-030750
X036750Y-032250
X037750Y-023250
X037750Y-024750
X037750Y-030750
X037750Y-032250
X038750Y-023250
X038750Y-024750
X038750Y-030750
X038750Y-032250
X039750Y-023250
X039750Y-024750
X039750Y-030750
X039750Y-032250
X040750Y-023250
X040750Y-024750
X040750Y-030750
X040750Y-032250
X041750Y-023250
X041750Y-024750
X041750Y-030750
X041750Y-032250
X042750Y-023250
X042750Y-024750
X042750Y-030750
X042750Y-032250
X042750Y-033750
X043750Y-023250
X043750Y-024750
X043750Y-030750
X043750Y-032250
X043750Y-033750
X044750Y-023250
X044750Y-024750
X044750Y-030750
X044750Y-032250
X044750Y-033750
X045750Y-023250
X045750Y-024750
X045750Y-030750
X045750Y-032250
X045750Y-033750
X046750Y-023250
X046750Y-024750
X046750Y-030750
X046750Y-032250
X046750Y-033750
X047750Y-023250
X047750Y-024750
X047750Y-030750
X047750Y-032250
X047750Y-033750
X048750Y-023250
X048750Y-024750
X048750Y-030750
X048750Y-032250
X048750Y-033750
X049750Y-023250
X049750Y-024750
X049750Y-030750
X049750Y-032250
X049750Y-033750
X052250Y-025750
X052250Y-026750
X053250Y-025750
T4
X028000Y-020750
X028000Y-040000
X029000Y-020750
X029000Y-021750
X029000Y-040000
X029000Y-041000
X030000Y-020750
X030000Y-021750
X030000Y-040000
X030000Y-041000
X031000Y-020750
X031000Y-021750
X031000Y-040000
X031000Y-041000
X032000Y-020750
X032000Y-021750
X032000Y-040000
X032000Y-041000
X033000Y-020750
X033000Y-021750
X033000Y-040000
X033000Y-041000
X034000Y-020750
X034000Y-021750
X034000Y-040000
X034000Y-041000
X035000Y-020750
X035000Y-021750
X035000Y-040000
X035000Y-041000
X036000Y-020750
X036000Y-021750
X036000Y-040000
X036000Y-041000
X037000Y-020750
X037000Y-021750
X037000Y-040000
X037000Y-041000
X038000Y-020750
X038000Y-021750
X038000Y-040000
X038000Y-041000
X039000Y-020750
X039000Y-021750
X039000Y-040000
X039000Y-041000
X040000Y-020750
X040000Y-021750
X040000Y-040000
X040000Y-041000
X041000Y-020750
X041000Y-021750
X041000Y-040000
X041000Y-041000
X042000Y-020750
X042000Y-021750
X042000Y-040000
X042000Y-041000
X043000Y-020750
X043000Y-021750
X043000Y-040000
X043000Y-041000
X044000Y-020750
X044000Y-021750
X044000Y-040000
X044000Y-041000
X045000Y-020750
X045000Y-021750
X045000Y-040000
X045000Y-041000
X046000Y-020750
X046000Y-021750
X046000Y-040000
X046000Y-041000
X047000Y-020750
X047000Y-021750
X047000Y-040000
X047000Y-041000
X048000Y-020750
X048000Y-021750
X048000Y-040000
X048000Y-041000
X049000Y-020750
X049000Y-021750
X049000Y-040000
X049000Y-041000
X050000Y-020750
X050000Y-021750
X050000Y-040000
X050000Y-041000
T5
X025750Y-021250
X025750Y-040250
X051750Y-022500
X051750Y-039000
T0
M30
