G04 (created by PCBNEW-RS274X (2011-05-25)-stable) date Sun 15 Sep 2013 09:34:25 PM EDT*
G01*
G70*
G90*
%MOIN*%
G04 Gerber Fmt 3.4, Leading zero omitted, Abs format*
%FSLAX34Y34*%
G04 APERTURE LIST*
%ADD10C,0.006000*%
%ADD11R,0.055000X0.055000*%
%ADD12C,0.055000*%
%ADD13C,0.056000*%
%ADD14R,0.062000X0.090000*%
%ADD15O,0.062000X0.090000*%
%ADD16R,0.060000X0.060000*%
%ADD17C,0.060000*%
%ADD18C,0.066000*%
%ADD19C,0.160000*%
%ADD20C,0.035000*%
%ADD21C,0.008000*%
G04 APERTURE END LIST*
G54D10*
G54D11*
X21250Y-40500D03*
G54D12*
X21250Y-39500D03*
X21250Y-38500D03*
X21250Y-37500D03*
G54D13*
X52500Y-32250D03*
X52500Y-30250D03*
G54D14*
X30750Y-30750D03*
G54D15*
X31750Y-30750D03*
X32750Y-30750D03*
X33750Y-30750D03*
X34750Y-30750D03*
X35750Y-30750D03*
X36750Y-30750D03*
X37750Y-30750D03*
X38750Y-30750D03*
X39750Y-30750D03*
X40750Y-30750D03*
X41750Y-30750D03*
X42750Y-30750D03*
X43750Y-30750D03*
X44750Y-30750D03*
X45750Y-30750D03*
X46750Y-30750D03*
X47750Y-30750D03*
X48750Y-30750D03*
X49750Y-30750D03*
X49750Y-24750D03*
X48750Y-24750D03*
X47750Y-24750D03*
X46750Y-24750D03*
X45750Y-24750D03*
X44750Y-24750D03*
X43750Y-24750D03*
X42750Y-24750D03*
X41750Y-24750D03*
X40750Y-24750D03*
X39750Y-24750D03*
X38750Y-24750D03*
X37750Y-24750D03*
X36750Y-24750D03*
X35750Y-24750D03*
X34750Y-24750D03*
X33750Y-24750D03*
X32750Y-24750D03*
X31750Y-24750D03*
X30750Y-24750D03*
G54D12*
X28750Y-23250D03*
X28750Y-26750D03*
G54D16*
X28000Y-41000D03*
G54D17*
X28000Y-40000D03*
X33000Y-41000D03*
X29000Y-40000D03*
X34000Y-41000D03*
X30000Y-40000D03*
X35000Y-41000D03*
X31000Y-40000D03*
X36000Y-41000D03*
X32000Y-40000D03*
X37000Y-41000D03*
X33000Y-40000D03*
X38000Y-41000D03*
X34000Y-40000D03*
X39000Y-41000D03*
X35000Y-40000D03*
X40000Y-41000D03*
X36000Y-40000D03*
X41000Y-41000D03*
X37000Y-40000D03*
X42000Y-41000D03*
X38000Y-40000D03*
X43000Y-41000D03*
X39000Y-40000D03*
X40000Y-40000D03*
X44000Y-41000D03*
X41000Y-40000D03*
X43000Y-40000D03*
X44000Y-40000D03*
X45000Y-40000D03*
X46000Y-40000D03*
X45000Y-41000D03*
X46000Y-41000D03*
X29000Y-41000D03*
X30000Y-41000D03*
X31000Y-41000D03*
X32000Y-41000D03*
X47000Y-41000D03*
X47000Y-40000D03*
X42000Y-40000D03*
X48000Y-41000D03*
X48000Y-40000D03*
X49000Y-41000D03*
X49000Y-40000D03*
X50000Y-41000D03*
X50000Y-40000D03*
G54D16*
X28000Y-21750D03*
G54D17*
X28000Y-20750D03*
X33000Y-21750D03*
X29000Y-20750D03*
X34000Y-21750D03*
X30000Y-20750D03*
X35000Y-21750D03*
X31000Y-20750D03*
X36000Y-21750D03*
X32000Y-20750D03*
X37000Y-21750D03*
X33000Y-20750D03*
X38000Y-21750D03*
X34000Y-20750D03*
X39000Y-21750D03*
X35000Y-20750D03*
X40000Y-21750D03*
X36000Y-20750D03*
X41000Y-21750D03*
X37000Y-20750D03*
X42000Y-21750D03*
X38000Y-20750D03*
X43000Y-21750D03*
X39000Y-20750D03*
X40000Y-20750D03*
X44000Y-21750D03*
X41000Y-20750D03*
X43000Y-20750D03*
X44000Y-20750D03*
X45000Y-20750D03*
X46000Y-20750D03*
X45000Y-21750D03*
X46000Y-21750D03*
X29000Y-21750D03*
X30000Y-21750D03*
X31000Y-21750D03*
X32000Y-21750D03*
X47000Y-21750D03*
X47000Y-20750D03*
X42000Y-20750D03*
X48000Y-21750D03*
X48000Y-20750D03*
X49000Y-21750D03*
X49000Y-20750D03*
X50000Y-21750D03*
X50000Y-20750D03*
G54D11*
X26750Y-22750D03*
G54D12*
X25750Y-22750D03*
X24750Y-22750D03*
X23750Y-22750D03*
X23750Y-25750D03*
X24750Y-25750D03*
X25750Y-25750D03*
X26750Y-25750D03*
G54D11*
X49750Y-33750D03*
G54D12*
X48750Y-33750D03*
X47750Y-33750D03*
X46750Y-33750D03*
X45750Y-33750D03*
X44750Y-33750D03*
X43750Y-33750D03*
X42750Y-33750D03*
X23000Y-37000D03*
X23000Y-40500D03*
G54D18*
X21250Y-34500D03*
X21250Y-35500D03*
G54D11*
X53250Y-25750D03*
G54D12*
X52250Y-25750D03*
X52250Y-26750D03*
G54D11*
X30750Y-32250D03*
G54D12*
X31750Y-32250D03*
X32750Y-32250D03*
X33750Y-32250D03*
X34750Y-32250D03*
X35750Y-32250D03*
X36750Y-32250D03*
X37750Y-32250D03*
X38750Y-32250D03*
X39750Y-32250D03*
X40750Y-32250D03*
X41750Y-32250D03*
X42750Y-32250D03*
X43750Y-32250D03*
X44750Y-32250D03*
X45750Y-32250D03*
X46750Y-32250D03*
X47750Y-32250D03*
X48750Y-32250D03*
X49750Y-32250D03*
G54D11*
X30750Y-23250D03*
G54D12*
X31750Y-23250D03*
X32750Y-23250D03*
X33750Y-23250D03*
X34750Y-23250D03*
X35750Y-23250D03*
X36750Y-23250D03*
X37750Y-23250D03*
X38750Y-23250D03*
X39750Y-23250D03*
X40750Y-23250D03*
X41750Y-23250D03*
X42750Y-23250D03*
X43750Y-23250D03*
X44750Y-23250D03*
X45750Y-23250D03*
X46750Y-23250D03*
X47750Y-23250D03*
X48750Y-23250D03*
X49750Y-23250D03*
G54D19*
X25750Y-40250D03*
X51750Y-39000D03*
X51750Y-22500D03*
X25750Y-21250D03*
G54D20*
X39000Y-26750D03*
X39500Y-33500D03*
X26500Y-35250D03*
X34750Y-26000D03*
X37000Y-26750D03*
X49500Y-29250D03*
X39000Y-27750D03*
X31250Y-29000D03*
X25000Y-33750D03*
X25000Y-24500D03*
X30500Y-26000D03*
X24250Y-24250D03*
X42750Y-26750D03*
X47500Y-35000D03*
X45000Y-36500D03*
X39000Y-36250D03*
X40250Y-34750D03*
X37250Y-34750D03*
X26250Y-38250D03*
X24250Y-40250D03*
X42500Y-35000D03*
X45500Y-35000D03*
X39750Y-38750D03*
X40250Y-33750D03*
X44500Y-35000D03*
X36250Y-38750D03*
X46500Y-35000D03*
X37750Y-38000D03*
X32250Y-38750D03*
X33500Y-38500D03*
X42750Y-26000D03*
X39000Y-26000D03*
X36000Y-26000D03*
G54D21*
X38750Y-24750D02*
X38750Y-25000D01*
X38750Y-25000D02*
X38250Y-25500D01*
X38250Y-25500D02*
X35750Y-25500D01*
X35750Y-25500D02*
X35500Y-25750D01*
X35500Y-25750D02*
X35500Y-26250D01*
X35500Y-26250D02*
X39250Y-30000D01*
X39250Y-30000D02*
X41250Y-30000D01*
X41250Y-30000D02*
X41250Y-30250D01*
X41250Y-30250D02*
X41750Y-30750D01*
X39000Y-26750D02*
X39500Y-27250D01*
X39500Y-27250D02*
X52750Y-27250D01*
X52750Y-27250D02*
X52750Y-26250D01*
X52750Y-26250D02*
X53250Y-25750D01*
X28750Y-23250D02*
X29250Y-22750D01*
X29250Y-22750D02*
X38250Y-22750D01*
X38250Y-22750D02*
X38750Y-23250D01*
X39500Y-33500D02*
X35000Y-38000D01*
X35000Y-38000D02*
X33250Y-38000D01*
X33250Y-38000D02*
X33000Y-38250D01*
X33000Y-38250D02*
X32000Y-38250D01*
X32000Y-38250D02*
X31250Y-39000D01*
X31250Y-39000D02*
X24000Y-39000D01*
X24000Y-39000D02*
X23500Y-39500D01*
X23500Y-39500D02*
X21250Y-39500D01*
X32750Y-32250D02*
X30500Y-34500D01*
X30500Y-34500D02*
X21250Y-34500D01*
X26500Y-35250D02*
X23250Y-38500D01*
X23250Y-38500D02*
X21250Y-38500D01*
X39750Y-24750D02*
X39750Y-24500D01*
X39750Y-24500D02*
X39250Y-24000D01*
X39250Y-24000D02*
X35250Y-24000D01*
X35250Y-24000D02*
X35250Y-25500D01*
X35250Y-25500D02*
X34750Y-26000D01*
X37000Y-26750D02*
X37500Y-27250D01*
X37500Y-27250D02*
X39250Y-27250D01*
X39250Y-27250D02*
X39250Y-27500D01*
X39250Y-27500D02*
X39500Y-27500D01*
X39500Y-27500D02*
X41250Y-29250D01*
X41250Y-29250D02*
X49500Y-29250D01*
X39000Y-27750D02*
X41000Y-29750D01*
X41000Y-29750D02*
X41500Y-29750D01*
X41500Y-29750D02*
X41750Y-30000D01*
X41750Y-30000D02*
X50250Y-30000D01*
X50250Y-30000D02*
X50500Y-30250D01*
X50500Y-30250D02*
X52500Y-30250D01*
X31250Y-29000D02*
X30250Y-30000D01*
X30250Y-30000D02*
X30250Y-31500D01*
X30250Y-31500D02*
X28000Y-33750D01*
X28000Y-33750D02*
X25000Y-33750D01*
X32750Y-24750D02*
X32750Y-25000D01*
X32750Y-25000D02*
X31000Y-26750D01*
X31000Y-26750D02*
X28750Y-26750D01*
X28750Y-26750D02*
X28750Y-26500D01*
X28750Y-26500D02*
X27500Y-25250D01*
X27500Y-25250D02*
X24250Y-25250D01*
X24250Y-25250D02*
X23750Y-25750D01*
X33750Y-24750D02*
X33750Y-24500D01*
X33750Y-24500D02*
X33250Y-24000D01*
X33250Y-24000D02*
X30250Y-24000D01*
X30250Y-24000D02*
X29750Y-24500D01*
X29750Y-24500D02*
X25000Y-24500D01*
X30500Y-26000D02*
X29500Y-25000D01*
X29500Y-25000D02*
X24750Y-25000D01*
X24750Y-25000D02*
X24500Y-24750D01*
X24500Y-24750D02*
X24500Y-24500D01*
X24500Y-24500D02*
X24250Y-24250D01*
X42750Y-26750D02*
X52250Y-26750D01*
X39750Y-32250D02*
X40750Y-33250D01*
X40750Y-33250D02*
X44250Y-33250D01*
X44250Y-33250D02*
X44750Y-33750D01*
X23000Y-40500D02*
X24250Y-39250D01*
X24250Y-39250D02*
X26250Y-39250D01*
X26250Y-39250D02*
X27000Y-40000D01*
X27000Y-40000D02*
X28000Y-40000D01*
X26750Y-22750D02*
X27750Y-21750D01*
X27750Y-21750D02*
X28000Y-21750D01*
X21250Y-40500D02*
X23000Y-40500D01*
X39750Y-32250D02*
X38750Y-32250D01*
X24750Y-22750D02*
X23750Y-22750D01*
X25750Y-22750D02*
X24750Y-22750D01*
X25750Y-22750D02*
X26750Y-22750D01*
X38750Y-30750D02*
X39750Y-30750D01*
X47500Y-35000D02*
X43000Y-39500D01*
X43000Y-39500D02*
X42500Y-39500D01*
X42500Y-39500D02*
X42500Y-40500D01*
X42500Y-40500D02*
X37500Y-40500D01*
X37500Y-40500D02*
X37000Y-41000D01*
X43750Y-32250D02*
X44250Y-31750D01*
X44250Y-31750D02*
X45250Y-31750D01*
X45250Y-31750D02*
X45250Y-32750D01*
X45250Y-32750D02*
X48750Y-32750D01*
X48750Y-32750D02*
X49000Y-33000D01*
X49000Y-33000D02*
X49500Y-33000D01*
X49500Y-33000D02*
X49750Y-33250D01*
X49750Y-33250D02*
X50250Y-33250D01*
X50250Y-33250D02*
X50250Y-34250D01*
X50250Y-34250D02*
X50000Y-34500D01*
X50000Y-34500D02*
X47250Y-34500D01*
X47250Y-34500D02*
X47000Y-34750D01*
X47000Y-34750D02*
X47000Y-35250D01*
X47000Y-35250D02*
X46750Y-35250D01*
X46750Y-35250D02*
X46750Y-35500D01*
X46750Y-35500D02*
X46500Y-35500D01*
X46500Y-35500D02*
X45500Y-36500D01*
X45500Y-36500D02*
X45000Y-36500D01*
X39000Y-36250D02*
X39000Y-36000D01*
X39000Y-36000D02*
X40250Y-34750D01*
X37250Y-34750D02*
X34250Y-37750D01*
X34250Y-37750D02*
X33000Y-37750D01*
X33000Y-37750D02*
X32750Y-38000D01*
X32750Y-38000D02*
X31750Y-38000D01*
X31750Y-38000D02*
X31500Y-38250D01*
X31500Y-38250D02*
X26250Y-38250D01*
X24250Y-40250D02*
X25250Y-41250D01*
X25250Y-41250D02*
X26250Y-41250D01*
X26250Y-41250D02*
X27000Y-40500D01*
X27000Y-40500D02*
X33500Y-40500D01*
X33500Y-40500D02*
X34000Y-41000D01*
X42500Y-35000D02*
X38000Y-39500D01*
X38000Y-39500D02*
X34500Y-39500D01*
X34500Y-39500D02*
X34000Y-40000D01*
X45500Y-35000D02*
X41750Y-38750D01*
X41750Y-38750D02*
X39750Y-38750D01*
X40250Y-33750D02*
X34750Y-39250D01*
X34750Y-39250D02*
X34250Y-39250D01*
X34250Y-39250D02*
X34000Y-39500D01*
X34000Y-39500D02*
X33500Y-39500D01*
X33500Y-39500D02*
X33000Y-40000D01*
X44500Y-35000D02*
X44000Y-34500D01*
X44000Y-34500D02*
X42250Y-34500D01*
X42250Y-34500D02*
X38000Y-38750D01*
X38000Y-38750D02*
X36250Y-38750D01*
X46500Y-35000D02*
X45750Y-34250D01*
X45750Y-34250D02*
X42000Y-34250D01*
X42000Y-34250D02*
X38250Y-38000D01*
X38250Y-38000D02*
X37750Y-38000D01*
X32250Y-38750D02*
X31000Y-40000D01*
X33500Y-38500D02*
X32000Y-40000D01*
X42750Y-23250D02*
X41750Y-22250D01*
X41750Y-22250D02*
X37500Y-22250D01*
X37500Y-22250D02*
X37000Y-21750D01*
X42750Y-26000D02*
X39000Y-26000D01*
X30750Y-32250D02*
X31500Y-31500D01*
X31500Y-31500D02*
X41500Y-31500D01*
X41500Y-31500D02*
X41750Y-31750D01*
X41750Y-31750D02*
X42250Y-31750D01*
X42250Y-31750D02*
X42250Y-32750D01*
X42250Y-32750D02*
X44750Y-32750D01*
X44750Y-32750D02*
X45000Y-33000D01*
X45000Y-33000D02*
X48500Y-33000D01*
X48500Y-33000D02*
X48750Y-33250D01*
X48750Y-33250D02*
X49250Y-33250D01*
X49250Y-33250D02*
X49750Y-33750D01*
X31750Y-32250D02*
X32250Y-31750D01*
X32250Y-31750D02*
X41250Y-31750D01*
X41250Y-31750D02*
X41250Y-32750D01*
X41250Y-32750D02*
X41500Y-33000D01*
X41500Y-33000D02*
X44500Y-33000D01*
X44500Y-33000D02*
X44750Y-33250D01*
X44750Y-33250D02*
X48250Y-33250D01*
X48250Y-33250D02*
X48750Y-33750D01*
X21250Y-35500D02*
X22750Y-37000D01*
X22750Y-37000D02*
X23000Y-37000D01*
X46750Y-23250D02*
X45750Y-22250D01*
X45750Y-22250D02*
X45500Y-22250D01*
X45500Y-22250D02*
X45500Y-21250D01*
X45500Y-21250D02*
X36500Y-21250D01*
X36500Y-21250D02*
X36000Y-21750D01*
X47750Y-23250D02*
X46750Y-22250D01*
X46750Y-22250D02*
X46500Y-22250D01*
X46500Y-22250D02*
X46500Y-20250D01*
X46500Y-20250D02*
X36500Y-20250D01*
X36500Y-20250D02*
X36000Y-20750D01*
X44750Y-23250D02*
X44250Y-23750D01*
X44250Y-23750D02*
X41250Y-23750D01*
X41250Y-23750D02*
X41250Y-22750D01*
X41250Y-22750D02*
X41000Y-22500D01*
X41000Y-22500D02*
X37250Y-22500D01*
X37250Y-22500D02*
X37000Y-22250D01*
X37000Y-22250D02*
X33500Y-22250D01*
X33500Y-22250D02*
X33000Y-21750D01*
X45750Y-23250D02*
X45000Y-24000D01*
X45000Y-24000D02*
X44250Y-24000D01*
X44250Y-24000D02*
X44250Y-25500D01*
X44250Y-25500D02*
X38750Y-25500D01*
X38750Y-25500D02*
X38250Y-26000D01*
X38250Y-26000D02*
X36000Y-26000D01*
M02*
